<svg width="90" height="88" viewBox="0 0 90 88" fill="none" xmlns="http://www.w3.org/2000/svg">
<g clip-path="url(#clip0_1423_2509)">
<path fill-rule="evenodd" clip-rule="evenodd" d="M83.7441 48.2082C82.6328 67.7135 66.7593 83.4698 46.8523 84.0729C25.9369 84.7035 8.45826 68.3714 7.62823 47.5296L7.55277 45.2885L3.74561 47.6462C4.63737 70.6331 23.9064 88.6511 46.9689 87.9521C70.0246 87.2599 88.1755 68.1178 87.6816 45.1172L83.7441 48.2082Z" fill="#D6E2EB"/>
<path fill-rule="evenodd" clip-rule="evenodd" d="M76.6098 45.4529C76.9254 62.3401 63.5832 76.3831 46.6327 76.8971C29.6822 77.4111 15.5169 64.1905 14.8103 47.317L11.0854 45.1787L11.154 47.4267C11.9223 66.322 27.7752 81.1189 46.7425 80.5501C64.7219 80.0086 79.0794 65.8423 80.2044 48.2628L76.6098 45.4529Z" fill="#D6E2EB"/>
<path d="M4.33545 35.1937L3.7798 36.9003C3.51227 37.7364 3.3888 38.038 3.07325 38.3875C2.68224 38.8261 1.99627 39.0112 1.33773 38.7987C0.686055 38.5863 0.233311 38.0311 0.178433 37.4486C0.130415 36.9825 0.212732 36.6604 0.487122 35.8243L2.9292 28.3264C3.20359 27.4903 3.32706 27.1819 3.63575 26.8324C4.02676 26.3937 4.71959 26.2087 5.37127 26.4211C6.02981 26.6336 6.47569 27.1887 6.53743 27.7782C6.57859 28.2373 6.50313 28.5595 6.22874 29.3956L5.6731 31.1021L15.0161 34.1383C15.8598 34.4124 16.1548 34.5221 16.5184 34.9127C16.9505 35.3719 17.1083 36.1806 16.8408 36.9962C16.5801 37.8049 15.9765 38.3669 15.3522 38.4903C14.824 38.5863 14.529 38.504 13.6784 38.2299L4.33545 35.1937Z" fill="#D6E2EB"/>
<path d="M14.1996 15.9969C13.5273 15.4143 13.3009 15.195 13.1157 14.7015C12.8962 14.1053 13.0677 13.2965 13.6302 12.6523C14.1927 12.0081 14.9679 11.7271 15.5852 11.8573C16.1066 11.9738 16.3467 12.1657 17.0189 12.7483L22.8634 17.8199C25.4839 20.0884 25.1683 23.8374 22.8017 26.5651C20.4282 29.2928 16.7926 30.0878 14.1721 27.8124L8.33447 22.7476C7.66221 22.1651 7.43584 21.9526 7.25063 21.4523C7.03112 20.856 7.20261 20.0473 7.76511 19.4031C8.32075 18.7588 9.0959 18.4779 9.72014 18.6081C10.2415 18.7246 10.4816 18.9165 11.1538 19.499L16.9297 24.509C18.0342 25.4754 19.2483 25.3657 20.1813 24.2897C21.1073 23.2205 21.0799 21.9663 19.9755 21.0068L14.1996 15.9969Z" fill="#D6E2EB"/>
<path d="M30.7866 19.7452C30.2104 20.0057 29.4833 20.3346 28.715 20.081C27.9467 19.8343 27.6517 19.1764 27.4116 18.6486L22.9391 8.71095C22.5755 7.90223 22.4589 7.61438 22.5001 7.08665C22.5549 6.45612 23.0488 5.79133 23.824 5.44179C24.606 5.09226 25.4292 5.1608 25.9368 5.53774C26.3621 5.85986 26.4993 6.14086 26.8629 6.94958L30.8964 15.9004L35.3072 13.9128C36.1098 13.5496 36.4185 13.4399 36.885 13.4331C37.4749 13.4262 38.0786 13.81 38.3598 14.4405C38.6411 15.0642 38.5313 15.777 38.1334 16.2088C37.8247 16.5583 37.5298 16.7091 36.7546 17.0586L30.7866 19.7452Z" fill="#D6E2EB"/>
<path d="M44.4376 9.60901C42.901 9.39655 41.728 8.9168 40.9528 8.17662C40.1571 7.41587 39.7729 6.34671 39.7867 4.9897C39.8072 2.10434 42.2219 0.0139989 46.18 0.0482668C47.696 0.061974 48.8553 0.294996 49.9185 0.678796C50.9886 1.0763 51.6952 1.76166 51.6883 2.60465C51.6883 2.9816 51.4963 3.44764 51.167 3.79718C50.8789 4.10559 50.4536 4.3249 49.9117 4.3249C49.4246 4.31805 48.8621 4.11244 48.4025 3.93425C47.6548 3.63269 46.8179 3.47506 46.029 3.4682C44.5405 3.4545 43.9231 4.20154 43.9162 4.78409C43.9162 5.0925 43.9848 5.38035 44.2524 5.62708C44.4719 5.83269 44.8354 6.02459 45.446 6.10683L47.5519 6.38783C49.1091 6.60029 50.2341 7.05948 50.9612 7.73113C51.8804 8.56042 52.2371 9.73923 52.2303 11.2059C52.2028 14.4271 49.1297 16.1542 45.4597 16.1199C43.978 16.1062 42.6472 15.9897 41.481 15.5579C40.0679 15.0302 39.2173 14.4271 39.2242 13.2688C39.231 12.8508 39.4505 12.3367 39.821 12.0078C40.1639 11.6994 40.5618 11.5966 41.0008 11.5966C41.4536 11.6034 41.8172 11.7473 42.6609 12.0763C43.5115 12.419 44.4513 12.6726 45.5146 12.6794C47.2021 12.6931 48.0115 12.1654 48.0184 11.2607C48.0252 10.8769 47.9292 10.5685 47.6822 10.3218C47.4696 10.1162 47.0992 9.95855 46.5367 9.89001L44.4376 9.60901Z" fill="#D6E2EB"/>
<path d="M60.2012 6.12083L58.5412 5.42861C57.7317 5.08593 57.4299 4.94201 57.1144 4.59933C56.7028 4.18126 56.5793 3.47534 56.84 2.83796C57.1075 2.20743 57.6974 1.80307 58.2874 1.79622C58.7538 1.78936 59.0694 1.89217 59.8788 2.23484L67.1639 5.27784C67.9734 5.62051 68.2683 5.76444 68.5907 6.10712C68.9955 6.52519 69.1258 7.23111 68.8583 7.86849C68.5976 8.49902 68.0008 8.90338 67.4177 8.91023C66.9513 8.91709 66.6357 8.81428 65.8262 8.4716L64.1662 7.77939L60.3796 16.833C60.0366 17.6486 59.9063 17.9295 59.4878 18.2654C58.9939 18.656 58.1708 18.7451 57.3819 18.4162C56.593 18.0872 56.0854 17.4429 56.0168 16.8124C55.9551 16.2847 56.0717 15.99 56.4078 15.1744L60.2012 6.12083Z" fill="#D6E2EB"/>
<path fill-rule="evenodd" clip-rule="evenodd" d="M66.6287 24.5294C65.0921 23.0559 64.4404 21.6029 64.3238 19.9238C64.1592 17.5387 65.5449 16.0515 67.3901 14.1256C69.2354 12.2066 70.6622 10.7537 73.0563 10.8154C74.7369 10.8633 76.2186 11.4528 77.7552 12.9194C79.2918 14.3929 79.9435 15.8459 80.0601 17.525C80.2247 19.9169 78.8391 21.3973 76.9938 23.3232C75.1485 25.249 73.7217 26.6951 71.3276 26.6334C69.647 26.5923 68.1653 26.0029 66.6287 24.5294ZM73.8863 20.3487C75.8825 18.2652 76.0746 17.7101 76.1157 17.1001C76.15 16.6066 75.9237 15.9624 75.3612 15.421C74.7918 14.8795 74.1401 14.6808 73.6462 14.7356C73.0426 14.8042 72.4938 15.0166 70.4976 17.1001C68.5014 19.1836 68.3231 19.725 68.2819 20.335C68.2476 20.8216 68.4603 21.4864 69.0296 22.0278C69.5921 22.5693 70.2644 22.7475 70.7514 22.6995C71.3551 22.6309 71.8901 22.4322 73.8863 20.3487Z" fill="#D6E2EB"/>
<path fill-rule="evenodd" clip-rule="evenodd" d="M79.6901 33.6442L79.1962 32.2803L76.0407 33.4112C75.2038 33.7127 74.9088 33.8087 74.3806 33.7265C73.7564 33.6237 73.1321 33.0822 72.844 32.2803C72.5559 31.4785 72.6863 30.6629 73.1047 30.1832C73.4545 29.7856 73.7427 29.6691 74.5795 29.3676L84.8349 25.6735C85.3837 25.4816 86.0628 25.2349 86.7762 25.6118C87.4896 25.9956 87.764 26.7427 87.9767 27.3389L89.4309 31.3688C90.7411 35.0012 89.1017 37.7975 86.6596 38.6747C85.0818 39.2436 83.2709 38.8598 81.8509 37.4617L79.4637 40.5046C78.8943 41.2243 78.6199 41.4847 78.1603 41.6492C77.5361 41.8754 76.9187 41.704 76.3494 41.1832C76.0681 40.9227 75.8486 40.6075 75.7251 40.2648C75.3547 39.2299 75.9035 38.476 76.4728 37.7495L79.6901 33.6442ZM83.0719 33.4523C83.4698 34.5557 84.4302 34.9395 85.2053 34.6585C85.9873 34.3775 86.5018 33.466 86.1039 32.3626L85.2808 30.0872L82.2488 31.1769L83.0719 33.4523Z" fill="#D6E2EB"/>
<path fill-rule="evenodd" clip-rule="evenodd" d="M72.8025 46.015C72.8025 60.9695 60.6676 73.0935 45.6996 73.0935C30.7316 73.0935 18.5967 60.9695 18.5967 46.015C18.5967 31.0605 30.7316 18.9365 45.6996 18.9365C60.6676 18.9365 72.8025 31.0605 72.8025 46.015ZM61.086 28.4424C60.9145 31.5471 59.131 35.3166 60.6195 37.7702C62.0738 40.1552 66.2445 41.1216 68.8101 42.5197C67.9732 36.934 65.147 31.9926 61.086 28.4424ZM45.6996 22.6649C42.8939 22.6649 40.2118 23.1583 37.7217 24.063C39.958 25.4748 42.304 27.9558 44.7872 28.7371C48.5189 29.916 50.961 25.9135 54.1234 24.2275C51.5098 23.22 48.6699 22.6649 45.6996 22.6649ZM22.6851 41.944C23.6249 41.3409 24.6676 40.8748 25.5525 40.5459C27.2811 39.9016 29.6272 39.2985 30.759 37.7153C32.3162 35.5359 31.445 32.8562 31.1569 30.8549C31.0334 29.9776 30.8825 28.9633 30.9237 27.9284C26.6775 31.3963 23.6729 36.3241 22.6851 41.944ZM30.4435 63.6973C30.4641 60.4692 32.1516 56.5421 30.8551 54.3764C29.5997 52.2655 25.3535 51.3197 22.5959 49.5583C23.4534 55.1851 26.3208 60.1471 30.4435 63.6973ZM45.6996 69.3652C48.4915 69.3652 51.1668 68.8786 53.6432 67.9808C51.2971 66.5072 48.8825 63.9097 46.6462 63.2175C43.4427 62.2306 40.5205 66.1509 37.3307 67.8231C39.9305 68.8169 42.7499 69.3652 45.6996 69.3652ZM68.6523 50.4219C67.6645 50.9633 66.6424 51.2443 65.9976 51.4842C64.3856 52.0667 61.6074 52.8755 60.5372 54.4655C58.6028 57.3303 60.647 60.7845 60.5166 64.0742C64.6531 60.6748 67.6096 55.8842 68.6523 50.4219Z" fill="#92A1AF"/>
<path d="M53.3894 34.6514H38.0442C37.4611 34.6514 36.9946 36.0701 36.9946 37.8314C36.9946 39.5859 37.4611 41.0046 38.0442 41.0046H42.3178V56.2059C42.3178 56.9255 43.8407 57.5081 45.7134 57.5081C47.593 57.5081 49.1158 56.9255 49.1158 56.2059V41.0046H53.3894C53.9725 41.0046 54.439 39.5859 54.439 37.8314C54.439 36.0701 53.9725 34.6514 53.3894 34.6514Z" fill="white"/>
</g>
<defs>
<clipPath id="clip0_1423_2509">
<rect width="90" height="88" fill="white"/>
</clipPath>
</defs>
</svg>
