<svg width="129" height="53" viewBox="0 0 129 53" fill="none" xmlns="http://www.w3.org/2000/svg">
<path fill-rule="evenodd" clip-rule="evenodd" d="M2.35742 14.5996V37.8549H14.159C16.5933 37.8549 18.4442 37.0809 20.2633 35.815C21.7825 34.7577 22.5519 33.5991 23.5094 32.1574L23.5189 32.1431L15.3798 14.5996H2.35742ZM8.51367 19.25V33.0094H13.1307C15.2469 33.0094 16.3349 31.8598 17.1706 30.8777C18.16 29.7149 18.5173 27.8766 18.5173 26.2377C18.5173 24.5987 17.9709 22.8047 17.1706 21.5755C16.3703 20.3463 14.8621 19.25 13.3154 19.25L8.51367 19.25Z" fill="#92A1AF"/>
<path d="M22.7832 14.2656H16.2305L27.0232 37.8109H30.1068L35.8515 25.4496V14.2656H33.7686L28.3723 26.8231L22.7832 14.2656Z" fill="#92A1AF"/>
<rect x="36.6367" y="14.2656" width="6.27875" height="23.5453" fill="#92A1AF"/>
<path d="M45.2695 22.1152V37.8121H50.5367V28.5707C50.5367 26.736 52.525 25.4788 53.5365 25.4449C54.5481 25.4109 55.769 26.1923 55.769 27.0757V37.8121H60.9664V26.736C60.9664 24.9352 59.9444 23.9727 59.2572 23.4063C58.3503 22.6588 57.3387 22.1152 54.8621 22.1152C52.8808 22.1152 51.1529 23.5082 50.5367 24.0858V22.1152H45.2695Z" fill="#92A1AF"/>
<path fill-rule="evenodd" clip-rule="evenodd" d="M79.3242 22.1133V25.6484H77.2846C77.7945 27.7218 77.5825 29.5352 76.8427 30.781C75.5511 32.9565 72.8318 33.3304 71.6421 33.3304C70.4524 33.3304 69.2627 33.6703 69.3647 34.3501C69.448 34.9055 70.2623 34.9665 71.4987 35.059C71.7757 35.0798 72.0739 35.1021 72.3899 35.1319C74.806 35.3601 76.2989 35.9137 77.5226 36.9335C78.7462 37.9532 79.3581 40.0947 78.5763 41.8962C77.7289 43.849 74.7902 45.1851 73.0697 45.3973C71.2798 45.618 69.7461 45.7783 67.7536 45.3973C65.8792 45.0389 62.5664 43.6297 62.5664 40.7745C62.5664 38.4903 64.7645 37.1714 65.8636 36.7975C65.4557 36.6049 64.6399 35.9545 64.6399 34.894C64.6399 33.6023 65.8975 32.9905 66.4754 32.7186C66.5169 32.699 66.4698 32.6769 66.3458 32.6185C66.0633 32.4854 65.381 32.1642 64.4359 31.2569C62.7364 29.6253 63.0083 26.5661 63.6201 25.4784C64.232 24.3907 65.8636 22.1133 69.8405 22.1133H79.3242ZM73.0698 27.9607C73.0698 29.3499 71.9436 30.476 70.5544 30.476C69.1652 30.476 68.0391 29.3499 68.0391 27.9607C68.0391 26.5715 69.1652 25.4453 70.5544 25.4453C71.9436 25.4453 73.0698 26.5715 73.0698 27.9607ZM70.7593 42.2421C72.7492 42.2421 74.3624 41.5268 74.3624 40.6445C74.3624 39.7621 72.7492 39.0469 70.7593 39.0469C68.7694 39.0469 67.1562 39.7621 67.1562 40.6445C67.1562 41.5268 68.7694 42.2421 70.7593 42.2421Z" fill="#92A1AF"/>
<rect x="90.0059" y="22.1152" width="5.4939" height="15.6969" fill="#92A1AF"/>
<path d="M82.1582 14.2656H87.6521V37.8109H82.1582V14.2656Z" fill="#92A1AF"/>
<circle cx="92.7528" cy="17.0126" r="2.74695" fill="#92A1AF"/>
<path fill-rule="evenodd" clip-rule="evenodd" d="M116.455 14.9102H111.424V37.9562H116.455V27.4398C117.288 26.2719 118.606 25.6186 119.686 25.6186C120.842 25.6186 121.556 26.8762 121.556 28.2699V37.7194H126.519V26.7063C126.519 24.8594 125.091 22.9672 123.765 22.3214C122.045 21.4832 120.036 21.5553 118.871 21.9815C117.802 22.3723 117.073 22.7898 116.455 23.188V14.9102Z" fill="#92A1AF"/>
<path d="M108.182 23.4474V27.0819C107.721 26.8102 106.997 26.4025 106.371 26.0968C105.684 25.7611 104.989 25.5412 104.057 25.381C103.125 25.2209 101.661 25.2137 101.661 26.0968C101.661 26.98 103.044 27.3536 105.712 28.7803C108.38 30.2069 108.841 32.4488 108.841 33.23C108.841 34.0113 108.874 35.404 107.425 36.8986C105.976 38.3931 103.637 38.5969 102.353 38.5969C101.086 38.5969 100.268 38.2666 99.5188 37.9643L99.4874 37.9516C98.8814 37.707 98.0272 37.1477 97.6759 36.8986V33.7056C97.9065 33.7962 98.5915 34.0521 99.4874 34.351C100.607 34.7246 102.616 34.9964 103.407 34.8605C104.197 34.7246 104.526 34.2151 104.263 33.5018C103.999 32.7885 102.254 32.245 100.377 31.3279C98.4993 30.4107 97.0684 29.086 97.0684 27.0819C97.0684 25.0778 97.8534 24.1645 99.3227 23.1416C100.64 22.2244 102.961 21.9316 105.053 22.2245C106.542 22.4329 107.939 23.1416 108.182 23.4474Z" fill="#92A1AF"/>
</svg>
