<svg width="236" height="46" viewBox="0 0 236 46" fill="none" xmlns="http://www.w3.org/2000/svg">
<path d="M48.7163 26.9443C48.7163 31.3557 52.7192 33.5614 56.7221 33.5614C60.7251 33.5614 64.7008 31.3557 64.7008 26.9443V20.3544C64.7008 15.9431 60.6978 13.7374 56.6949 13.7374C52.692 13.7374 48.7163 15.9158 48.7163 20.3544V26.9443ZM53.5906 20.3544C53.5906 18.9384 55.1155 18.176 56.6405 18.176C58.2198 18.176 59.8265 18.8568 59.8265 20.3544V26.9443C59.8265 28.3331 58.2743 29.0411 56.7221 29.0411C55.17 29.0411 53.5906 28.3603 53.5906 26.9443V20.3544ZM72.0541 21.1441V14.0097H67.1526V33.2891H72.0541V26.6175L72.2175 26.3997L77.2007 33.2891H83.3277L75.7303 23.486L83.3549 14.0097H77.2824L72.0541 21.1441ZM89.3361 26.0184H94.8912V33.2891H99.7927V14.0097H94.8912V21.3075H89.3361V14.0097H84.4346V33.2891H89.3361V26.0184ZM112.177 14.0097H107.738L101.012 33.2891H106.24L107.439 29.4223H112.585L113.838 33.2891H119.066L112.177 14.0097ZM108.528 25.0926L109.944 19.4558H110.08L111.414 25.0926H108.528ZM125.032 33.2891H129.906V27.734L129.579 23.84L129.715 23.8128L132.302 30.4298H135.652L138.184 23.8128L138.348 23.84L138.048 27.734L138.021 33.2891H142.922V14.0097H138.048L133.963 23.4315L129.906 14.0097H125.032V33.2891ZM155.3 14.0097H150.862L144.136 33.2891H149.364L150.562 29.4223H155.709L156.961 33.2891H162.19L155.3 14.0097ZM151.651 25.0926L153.067 19.4558H153.204L154.538 25.0926H151.651ZM163.345 33.2891H168.22V27.6523H171.079C175.735 27.6523 178.104 24.2484 178.104 20.8174C178.104 17.4135 175.763 14.0097 171.052 14.0097H163.345V33.2891ZM168.22 23.3226V18.5572H171.052C173.993 18.53 173.993 23.3498 171.052 23.3226H168.22ZM184.944 21.1441V14.0097H180.042V33.2891H184.944V26.6175L185.107 26.3997L190.09 33.2891H196.217L188.62 23.486L196.245 14.0097H190.172L184.944 21.1441ZM202.253 18.5844H210.749V14.0097H197.324V33.2891H210.749V28.6871H202.253V25.8006H210.068V21.5798H202.253V18.5844ZM227.221 18.6117V13.9824H212.053V18.6117H217.172V33.2891H222.101V18.6117H227.221Z" fill="#92A1AF"/>
<path d="M34.2748 38.1584C34.2748 27.9327 34.2748 17.786 34.2748 7.57998C33.0312 7.5405 31.8073 7.57998 30.5241 7.5405C30.5044 6.29683 30.5241 5.09265 30.5241 3.8095C31.1756 3.75027 31.8073 3.78976 32.4192 3.78976C33.0312 3.78976 33.6431 3.78976 34.2748 3.78976C34.9066 3.78976 35.5383 3.78976 36.17 3.78976C36.7819 3.78976 37.3939 3.78976 38.0453 3.78976C38.0651 4.04638 38.1045 4.24379 38.1045 4.4412C38.1045 5.82305 38.1045 7.22464 38.1045 8.6065C38.1045 19.1678 38.1045 29.7291 38.1045 40.2904C38.1045 40.7247 38.1045 41.1393 38.1045 41.5736C38.0848 41.9289 38.0256 41.9881 37.69 41.9881C37.4926 41.9881 37.3149 41.9881 37.1175 41.9881C28.8659 41.9881 20.634 41.9881 12.3824 41.9881C11.2769 41.9881 11.4348 41.9289 11.4348 41.0208C11.4348 32.5915 11.4348 24.1622 11.4151 15.7329C11.4151 15.2591 11.5532 14.963 11.8888 14.6472C13.3694 13.1864 14.85 11.7255 16.3108 10.245C17.0214 9.53432 17.7321 8.82365 18.4428 8.09324C18.5809 7.95506 18.7981 7.85635 18.6599 7.56024C18.5415 7.56024 18.4033 7.5405 18.2651 7.5405C13.6458 7.5405 9.04617 7.5405 4.42683 7.5405C4.34787 7.5405 4.2689 7.5405 4.18994 7.5405C3.95305 7.5405 3.85435 7.65894 3.83461 7.87609C3.83461 7.99454 3.81486 8.13272 3.81486 8.25117C3.81486 18.0031 3.81486 27.755 3.81486 37.5267C3.81486 37.7044 3.83461 37.9018 3.85435 38.1189C4.03201 38.1387 4.1702 38.1387 4.30838 38.1387C5.25594 38.1387 6.2035 38.1387 7.15105 38.1387C7.60509 38.1387 7.64457 38.1781 7.64457 38.6124C7.64457 39.5797 7.64457 40.547 7.64457 41.4946C7.64457 41.8697 7.56561 41.9289 7.21027 41.9486C7.15105 41.9486 7.09183 41.9486 7.01287 41.9486C4.90061 41.9486 2.78835 41.9486 0.656348 41.9486C0.537903 41.9486 0.399719 41.9486 0.281275 41.9289C0.103608 41.8894 0.00489961 41.7907 0.00489961 41.613C0.00489961 41.4946 0.00489961 41.3564 0.00489961 41.238C0.00489961 29.0184 0.00489961 16.7989 0.00489961 4.57939C0.00489961 3.71079 -0.113544 3.75027 0.814272 3.75027C9.20409 3.75027 17.5939 3.75027 25.964 3.75027C26.1614 3.75027 26.3588 3.75027 26.6154 3.75027C26.6352 3.98716 26.6549 4.18457 26.6549 4.38198C26.6549 12.6336 26.6549 20.8852 26.6549 29.1566C26.6549 29.512 26.6352 29.8476 26.6549 30.2029C26.6747 30.5385 26.5562 30.7754 26.3193 30.9925C25.3323 31.9796 24.3452 32.9666 23.3582 33.9536C22.0948 35.217 20.8314 36.4804 19.568 37.7636C19.489 37.8426 19.4495 37.9215 19.3706 38.04C19.4693 38.0794 19.5088 38.1189 19.568 38.1189C24.444 38.1584 29.3397 38.1584 34.2748 38.1584ZM15.3632 36.5002C16.3897 35.4934 17.3373 34.5458 18.3046 33.5983C18.4625 33.4404 18.6204 33.243 18.7981 33.085C19.5285 32.3546 20.2787 31.644 21.0091 30.9135C21.4039 30.5187 21.7987 30.1042 22.2132 29.7291C22.6278 29.354 22.8252 28.9395 22.8252 28.3472C22.8055 22.1092 22.8055 15.8514 22.8055 9.59353C22.8055 9.49483 22.7857 9.39613 22.766 9.19872C22.3909 9.59353 22.0948 9.90939 21.7789 10.2252C20.9893 11.0346 20.1997 11.8242 19.3903 12.6139C18.1664 13.8378 16.9227 15.0617 15.6791 16.2659C15.4422 16.5028 15.304 16.7594 15.304 17.1345C15.304 23.4515 15.304 29.7883 15.304 36.1054C15.304 36.2238 15.3435 36.3225 15.3632 36.5002Z" fill="#92A1AF"/>
<path d="M15.3639 36.5003C15.3442 36.3423 15.3047 36.2436 15.3047 36.1449C15.3047 29.8279 15.3047 23.4911 15.3047 17.1741C15.3047 16.799 15.4429 16.5424 15.6798 16.3055C16.9234 15.0815 18.1474 13.8774 19.391 12.6534C20.1807 11.8638 20.99 11.0544 21.7797 10.2648C22.0955 9.94895 22.3916 9.61336 22.7667 9.23828C22.7864 9.43569 22.8062 9.53439 22.8062 9.6331C22.8062 15.8909 22.8062 22.129 22.8259 28.3868C22.8259 28.979 22.6285 29.3936 22.214 29.7687C21.7994 30.1437 21.4046 30.5583 21.0098 30.9531C20.2794 31.6835 19.5292 32.3942 18.7988 33.1246C18.6409 33.2825 18.483 33.4799 18.3053 33.6379C17.3577 34.5459 16.3904 35.4935 15.3639 36.5003Z" fill="#D6E2EB"/>
</svg>
