<svg width="176" height="54" viewBox="0 0 176 54" fill="none" xmlns="http://www.w3.org/2000/svg">
<path d="M18.1902 29.2398C18.1236 29.1732 18.0569 29.1065 17.9902 29.1065L18.0569 29.0398C18.1236 28.9732 18.1902 28.9732 18.2569 28.9065C18.3236 28.8398 18.4569 28.8398 18.5236 28.8398H18.5902C18.5902 28.8398 18.5902 28.8398 18.5902 28.9065C18.5236 29.0398 18.3902 29.1065 18.2569 29.2398C18.2569 29.1732 18.2569 29.1732 18.1902 29.2398C18.2569 29.2398 18.1902 29.2398 18.1902 29.2398Z" fill="white"/>
<path d="M17.9238 29.0376C17.9905 28.971 18.0572 28.9043 18.1238 28.9043C18.0572 28.9043 17.9905 28.971 17.9238 29.0376Z" fill="white"/>
<path d="M16.2561 29.1724C16.2561 29.1057 16.1895 29.1057 16.1895 29.0391C16.2561 29.1057 16.2561 29.1724 16.2561 29.1724Z" fill="white"/>
<path d="M20.39 51.838C19.9233 51.838 19.5233 51.7714 19.0567 51.5714C17.3233 50.838 16.79 50.438 16.4567 50.1047C15.1233 48.9047 13.8567 48.238 12.59 47.638C10.9233 46.838 8.92334 45.838 8.05667 43.5047C7.39001 43.5047 6.79001 43.3047 6.25667 42.9714C5.59001 42.5714 4.45667 41.638 3.72334 40.038C3.19001 38.9047 2.85667 37.7714 2.65667 36.7714C1.79001 36.3714 1.12334 35.638 0.790006 34.7047C0.390006 33.438 -0.27666 30.838 0.12334 28.1714C0.190006 27.7714 0.32334 26.7714 0.590007 25.7714C0.790007 24.7047 1.19001 23.9047 1.65667 22.7714C1.79001 22.5047 1.92334 22.238 2.05667 21.9047C2.32334 21.3047 2.65667 20.7047 2.99001 20.238C2.99001 20.1047 2.99001 20.038 2.99001 19.9047C3.05667 18.9047 3.25667 17.438 3.99001 16.238C4.32334 15.638 4.65667 15.1714 4.99001 14.7047C4.99001 14.5714 4.99001 14.438 4.99001 14.3714C5.05667 13.838 5.19001 13.038 5.52334 12.1714C5.85667 11.5047 6.12334 10.9714 6.45667 10.5047C6.59001 9.37135 6.92334 8.30469 7.19001 7.83802C7.99001 5.83802 9.25667 4.43802 10.79 3.83802C11.3233 3.63802 11.8567 3.57135 12.5233 3.57135C13.5233 3.57135 14.6567 3.83802 15.5233 4.10469H15.59C16.6567 3.57135 17.99 3.30469 19.7233 3.30469C20.5233 3.30469 21.99 3.37135 23.19 3.77135C23.4567 3.83802 23.8567 4.03802 24.3233 4.23802C25.2567 4.03802 26.19 3.97135 26.99 3.97135C28.0567 3.97135 28.8567 4.10469 29.5233 4.43802C30.5233 4.90469 31.79 5.90469 32.59 8.17135C32.8567 8.90469 32.99 9.77135 33.1233 10.638C33.19 10.7047 33.19 10.838 33.2567 10.9047C33.39 11.238 33.4567 11.5047 33.5233 11.7714C33.6567 11.9047 33.7233 11.9714 33.8567 12.038L33.9233 12.1047C33.99 12.1714 34.0567 12.1714 34.19 12.238C34.4567 12.438 35.2567 12.9047 36.39 14.5047C36.8567 15.1714 37.0567 15.9047 36.99 16.7047C37.2567 17.1047 37.4567 17.438 37.6567 17.7714C38.19 18.838 38.1233 20.038 37.5233 21.038C37.5233 21.1047 37.4567 21.1047 37.4567 21.1714C37.5233 21.3047 37.5233 21.3714 37.59 21.5047C37.9233 22.3047 37.8567 23.1714 37.59 23.9047C37.59 24.038 37.6567 24.1047 37.6567 24.1714C37.7233 24.3047 37.7233 24.438 37.7233 24.638C37.7233 24.7047 37.7233 24.7047 37.7233 24.7714C37.9233 25.438 38.0567 26.1714 38.1233 26.9047C38.2567 27.7714 38.3233 28.3714 38.3233 28.9714C38.4567 32.438 37.6567 35.1047 37.1233 36.3713C36.8567 37.038 36.39 37.5714 35.8567 37.9714C35.7233 38.5714 35.5233 39.1047 35.1233 39.5714C35.0567 41.3047 34.5233 42.7714 34.0567 43.638C33.19 45.238 31.79 45.3713 31.19 45.3713C31.0567 45.3713 30.99 45.3713 30.8567 45.3713C30.4567 45.7714 30.0567 46.1713 29.7233 46.438C28.39 47.638 27.39 48.038 26.59 48.438C25.99 48.7047 25.5233 48.9047 24.7233 49.5714C23.6567 50.5047 22.1233 51.1713 21.59 51.438C21.3233 51.7047 20.8567 51.838 20.39 51.838Z" fill="#92A1AF"/>
<path d="M35.3237 29.0375C35.3237 28.7042 35.3237 28.3042 35.1903 27.5042C35.1236 26.9042 34.9903 26.3042 34.857 25.6375V25.5709C34.7903 25.3709 34.7903 25.2375 34.7236 25.0375C34.5903 24.5042 34.257 23.2375 34.457 23.1709C34.5237 23.1709 34.5903 23.1042 34.657 23.1042C34.7903 23.0375 34.7903 22.9042 34.7903 22.8375C34.5237 22.2375 33.7903 20.1709 34.3903 19.7709C34.457 19.7042 34.657 19.7042 34.7903 19.7709C34.9903 19.8375 35.1236 19.6375 35.057 19.4375C34.7903 18.9709 34.3903 18.3042 33.7903 17.8375C33.5903 17.7042 33.3236 17.5709 33.3903 17.3709C33.3903 17.1709 33.7236 17.0375 33.9903 16.9042C34.1236 16.8375 34.1903 16.7042 34.057 16.5709C33.7903 16.1709 33.1903 15.4375 32.657 15.1042C32.257 14.8375 31.9903 14.7042 31.9903 14.6375C31.9903 14.6375 30.657 13.5042 30.7236 13.1042C30.7236 12.9042 30.5903 12.3709 30.5236 12.1042C30.5236 12.0375 30.457 11.9709 30.3903 11.9709C30.3236 11.9042 30.257 11.8375 30.257 11.7709C30.257 10.3709 29.7903 8.03752 28.457 7.43752C27.7903 7.10419 25.257 7.30419 24.257 7.70419C24.1903 7.70419 24.1236 7.70419 24.057 7.70419C23.5236 7.37086 22.657 7.03752 22.3236 6.90419C20.9236 6.43752 17.5236 6.43752 16.7236 7.37086C16.657 7.43752 16.5903 7.43752 16.5236 7.43752C16.3236 7.43752 15.9236 7.37085 15.1903 7.43752C15.1236 7.43752 15.1236 7.43752 15.057 7.43752C14.257 7.03752 12.657 6.77085 11.9903 6.97085C10.3237 7.57085 9.45698 10.8375 9.65698 11.6375C9.65698 11.7042 9.65698 11.7709 9.59032 11.8375C9.25698 12.3042 8.79032 12.9709 8.39032 13.7709C8.19032 14.1709 8.12365 14.5709 8.12365 14.8375C8.12365 14.9709 8.19032 15.1042 8.32365 15.1042C8.52365 15.1042 8.79032 15.1042 8.85698 15.2375C8.99032 15.5042 7.59032 16.3709 6.72365 18.0375C6.25698 18.8375 6.19032 19.9042 6.12365 20.4375C6.12365 20.6375 6.25698 20.7042 6.45698 20.6375C6.72365 20.5042 7.05698 20.4375 7.19032 20.5042C7.39032 20.7709 5.79032 21.5709 4.92365 23.4375C4.19032 25.0375 3.79032 25.8375 3.59032 26.7042C3.32365 27.5709 3.19032 28.4375 3.12365 28.8375C2.79032 30.9042 3.39032 32.9709 3.65698 33.9042C3.72365 34.1042 3.99032 34.1042 4.05698 33.9042C4.39032 33.2375 4.92365 32.2375 5.19032 32.3042C5.59032 32.3709 4.85698 35.5042 6.39032 38.8375C6.79032 39.7042 7.45698 40.2375 7.79032 40.4375C7.85698 40.5042 7.99032 40.5042 8.05698 40.3709C8.39032 39.9709 9.52365 38.7709 9.92365 38.8375C10.3903 38.9709 10.257 40.5042 10.7236 42.1709C11.457 44.7042 14.7903 44.5709 18.3903 47.9042C18.657 48.1709 19.7903 48.6375 20.1236 48.7709C20.1903 48.7709 20.257 48.7709 20.3236 48.7709C20.657 48.6375 21.9236 48.0375 22.7903 47.3042C25.057 45.3709 25.7903 45.9709 27.657 44.2375C28.5903 43.3709 29.9903 42.1042 29.7903 40.6375C29.5903 39.4375 28.457 38.7709 28.657 38.6375C28.857 38.5042 30.857 39.6375 31.1903 41.3042C31.3237 41.9709 31.1236 42.3709 31.1903 42.3709C31.3237 42.3709 32.857 39.1709 31.257 36.7042C30.9903 36.2375 31.3903 36.7042 31.3903 36.7042C31.857 37.2375 31.7236 37.0375 32.3237 37.6375C32.457 37.7709 32.657 37.7042 32.7236 37.5042C32.7903 37.0375 32.9236 36.3042 32.857 35.7709C32.7903 34.9042 32.5903 34.4375 32.3903 34.1709C32.257 34.0375 32.3903 33.7709 32.5903 33.7709C33.1236 33.9042 33.5237 34.7042 33.7903 35.2375C33.857 35.4375 34.1236 35.4375 34.1903 35.2375C34.7903 34.3042 35.5237 32.1042 35.3237 29.0375Z" fill="white" stroke="#101010" stroke-width="1.32933" stroke-miterlimit="10"/>
<path d="M35.056 26.7036C34.9227 26.1036 34.7894 25.5703 34.656 24.9036V24.837C34.5894 24.637 34.5894 24.5036 34.5227 24.3036C34.3894 23.7703 33.9894 22.5703 34.1894 22.5036C34.456 22.437 34.5894 22.3036 34.5894 22.3036C34.5894 22.3036 33.3227 19.637 33.9894 19.1036C34.256 18.9036 34.856 19.237 34.856 19.237C34.856 19.237 34.3227 17.9036 33.256 17.237C33.056 17.1036 32.7894 16.9703 32.7894 16.7703C32.7894 16.5036 33.656 16.237 33.656 16.237C33.656 16.237 32.7227 15.037 32.056 14.5703C31.656 14.3703 31.3227 14.237 31.3894 14.1036C31.3894 14.1036 30.056 13.037 30.056 12.637C30.1227 12.437 29.7894 11.5703 29.7894 11.5703C29.7894 11.5703 29.5894 12.237 29.256 14.037C28.9894 15.5036 30.1894 15.9703 30.056 16.3036C29.856 16.5703 28.3894 15.837 28.256 16.037C28.056 16.3703 31.456 18.5703 31.1894 19.037C31.056 19.3036 30.056 18.7703 29.7894 19.1036C29.5227 19.5036 30.5894 20.5036 31.3227 22.1703C32.3227 24.3703 32.3894 26.9036 31.7894 27.237C31.256 27.5036 30.3227 26.1036 29.9894 26.3703C29.7894 26.5703 30.256 27.3036 30.3894 28.5703C30.5227 29.7703 30.3227 31.1703 29.856 31.237C29.3894 31.3703 28.9227 30.1036 28.656 30.237C28.3894 30.3703 28.856 31.5036 28.656 33.1036C28.456 34.3036 27.9227 35.3036 27.7894 35.237C27.5894 35.1703 28.056 33.437 27.5894 33.1703C27.1227 32.9036 26.1227 34.637 24.7227 35.837C21.7894 38.437 16.456 39.1036 13.456 36.837C11.9227 35.7036 11.1227 33.837 10.3227 34.1703C9.65602 34.437 9.78936 36.237 9.52269 36.237C9.18936 36.237 8.32269 33.7703 8.72269 30.9703C8.98936 29.1036 9.65602 27.9036 9.32269 27.637C8.78936 27.237 7.25602 29.7036 6.18936 29.3036C5.12269 28.9036 4.78936 25.837 5.58936 23.237C6.52269 20.3036 6.98936 20.7036 6.58936 19.837C6.45602 19.437 7.38936 17.837 6.58936 17.7703C6.58936 17.837 6.52269 17.837 6.52269 17.9036C5.92269 19.037 5.98936 20.637 5.98936 20.637C5.98936 20.637 6.85602 20.1703 7.05602 20.3703C7.25602 20.5703 5.65602 21.437 4.85602 23.3036C4.18936 24.9036 3.78936 25.637 3.58936 26.5703C3.38936 27.437 3.25602 28.3036 3.18936 28.7036C2.85602 31.437 4.05602 34.1703 4.05602 34.1703C4.05602 34.1703 4.98936 32.037 5.38936 32.1036C5.78936 32.1703 5.12269 35.1703 6.85602 38.437C7.45602 39.5703 8.52269 40.037 8.52269 40.037C8.52269 40.037 10.3894 38.237 10.856 38.3703C11.3227 38.5036 10.3894 40.037 10.9227 41.637C11.7894 44.1036 15.1227 43.837 18.856 46.9703C19.1894 47.237 20.7227 47.837 20.7227 47.837C20.7227 47.837 22.3227 47.1036 23.256 46.3036C25.5227 44.3703 26.256 44.9036 28.1227 43.237C29.056 42.3703 30.456 41.1036 30.1894 39.7036C29.9894 38.5703 28.7894 37.9036 28.9227 37.837C29.1227 37.7036 31.1894 38.7703 31.5894 40.3703C31.7227 40.9703 31.5227 41.437 31.5894 41.437C31.7227 41.437 33.1894 38.3036 31.5227 35.9703C31.1894 35.5036 30.7227 34.9703 30.7227 34.9703L32.9894 37.1703C32.9894 37.1703 33.256 35.9036 33.1227 35.037C32.9227 33.437 32.256 33.3036 32.256 33.3036C33.456 32.5036 34.256 35.037 34.256 35.037C34.256 35.037 35.5894 32.3703 35.256 28.437C35.256 27.9036 35.256 27.5703 35.056 26.7036Z" fill="#DFE2EB"/>
<path d="M35.3236 29.0375C35.3236 28.7042 35.3236 28.3042 35.1903 27.5042C35.1236 26.9042 34.9903 26.3042 34.857 25.6375V25.5709C34.7903 25.3709 34.7903 25.2375 34.7236 25.0375C34.5903 24.5042 34.257 23.2375 34.457 23.1709C34.5237 23.1709 34.5903 23.1042 34.657 23.1042C34.7903 23.0375 34.7903 22.9042 34.7903 22.8375C34.5237 22.2375 33.7903 20.1709 34.3903 19.7709C34.457 19.7042 34.657 19.7042 34.7903 19.7709C34.9903 19.8375 35.1236 19.6375 35.057 19.4375C34.7903 18.9709 34.3903 18.3042 33.7903 17.8375C33.5903 17.7042 33.3236 17.5709 33.3903 17.3709C33.3903 17.1709 33.7236 17.0375 33.9903 16.9042C34.1236 16.8375 34.1903 16.7042 34.057 16.5709C33.7903 16.1709 33.1903 15.4375 32.657 15.1042C32.257 14.8375 31.9903 14.7042 31.9903 14.6375C31.9903 14.6375 30.657 13.5042 30.7236 13.1042C30.7236 12.9042 30.5903 12.3709 30.5236 12.1042C30.5236 12.0375 30.457 11.9709 30.3903 11.9709C30.3236 11.9042 30.257 11.8375 30.257 11.7709C30.257 10.3709 29.7903 8.03752 28.457 7.43752C27.7903 7.10419 25.257 7.30419 24.257 7.70419C24.1903 7.70419 24.1236 7.70419 24.057 7.70419C23.5236 7.37086 22.657 7.03752 22.3236 6.90419C20.9236 6.43752 17.5236 6.43752 16.7236 7.37086C16.657 7.43752 16.5903 7.43752 16.5236 7.43752C16.3236 7.43752 15.9236 7.37085 15.1903 7.43752C15.1236 7.43752 15.1236 7.43752 15.057 7.43752C14.257 7.03752 12.657 6.77085 11.9903 6.97085C10.3237 7.57085 9.45698 10.8375 9.65698 11.6375C9.65698 11.7042 9.65698 11.7709 9.59032 11.8375C9.25698 12.3042 8.79032 12.9709 8.39032 13.7709C8.19032 14.1709 8.12365 14.5709 8.12365 14.8375C8.12365 14.9709 8.19032 15.1042 8.32365 15.1042C8.52365 15.1042 8.79032 15.1042 8.85698 15.2375C8.99032 15.5042 7.59032 16.3709 6.72365 18.0375C6.25698 18.8375 6.19032 19.9042 6.12365 20.4375C6.12365 20.6375 6.25698 20.7042 6.45698 20.6375C6.72365 20.5042 7.05698 20.4375 7.19032 20.5042C7.39032 20.7709 5.79032 21.5709 4.92365 23.4375C4.19032 25.0375 3.79032 25.8375 3.59032 26.7042C3.32365 27.5709 3.19032 28.4375 3.12365 28.8375C2.79032 30.9042 3.39032 32.9709 3.65698 33.9042C3.72365 34.1042 3.99032 34.1042 4.05698 33.9042C4.39032 33.2375 4.92365 32.2375 5.19032 32.3042C5.59032 32.3709 4.85698 35.5042 6.39032 38.8375C6.79032 39.7042 7.45698 40.2375 7.79032 40.4375C7.85698 40.5042 7.99032 40.5042 8.05698 40.3709C8.39032 39.9709 9.52365 38.7709 9.92365 38.8375C10.3903 38.9709 10.257 40.5042 10.7236 42.1709C11.457 44.7042 14.7903 44.5709 18.3903 47.9042C18.657 48.1709 19.7903 48.6375 20.1236 48.7709C20.1903 48.7709 20.257 48.7709 20.3236 48.7709C20.657 48.6375 21.9236 48.0375 22.7903 47.3042C25.057 45.3709 25.7903 45.9709 27.657 44.2375C28.5903 43.3709 29.9903 42.1042 29.7903 40.6375C29.5903 39.4375 28.457 38.7709 28.657 38.6375C28.857 38.5042 30.857 39.6375 31.1903 41.3042C31.3236 41.9709 31.1236 42.3709 31.1903 42.3709C31.3236 42.3709 32.857 39.1709 31.257 36.7042C30.9903 36.2375 31.3903 36.7042 31.3903 36.7042C31.857 37.2375 31.7236 37.0375 32.3236 37.6375C32.457 37.7709 32.657 37.7042 32.7236 37.5042C32.7903 37.0375 32.9236 36.3042 32.857 35.7709C32.7903 34.9042 32.5903 34.4375 32.3903 34.1709C32.257 34.0375 32.3903 33.7709 32.5903 33.7709C33.1236 33.9042 33.5237 34.7042 33.7903 35.2375C33.857 35.4375 34.1236 35.4375 34.1903 35.2375C34.7903 34.3042 35.5236 32.1042 35.3236 29.0375Z" stroke="#101010" stroke-width="1.32933" stroke-miterlimit="10"/>
<path d="M11.9911 11.6385C11.7245 11.5051 11.8578 10.6385 12.0578 10.0385C12.1911 9.63848 12.4578 8.97181 13.0578 8.77181C13.9911 8.43848 15.1911 9.43847 15.1245 9.90514C15.0578 10.1718 14.4578 10.0385 13.5245 10.5718C12.5245 11.1051 12.2578 11.7718 11.9911 11.6385Z" fill="#D6E2EB"/>
<path d="M28.1901 11.7705C28.4567 11.6371 28.3234 10.8371 28.1234 10.3038C27.9901 9.97047 27.7234 9.30381 27.1901 9.10381C26.3234 8.83714 25.19 9.77047 25.2567 10.1705C25.3234 10.4371 25.8567 10.3038 26.7234 10.7705C27.7234 11.2371 27.9901 11.9038 28.1901 11.7705Z" fill="#D6E2EB"/>
<path d="M13.9238 23.7698C13.9905 24.2365 14.2572 25.3698 15.7238 26.2365C18.1238 27.6365 22.7238 27.6365 24.7238 26.1031C25.8572 25.2365 25.7905 24.1698 25.6572 23.7031" stroke="#101010" stroke-width="1.34473" stroke-miterlimit="10" stroke-linecap="round"/>
<path d="M15.3922 18.4393C15.9255 18.6393 16.7922 18.2393 16.7922 17.7726C16.7922 17.506 16.5922 17.2393 16.3255 17.106C15.7255 16.906 14.9255 17.506 14.9922 17.9726C14.9922 18.306 15.3255 18.4393 15.3922 18.4393Z" fill="#101010"/>
<path d="M24.0562 18.4393C23.5229 18.6393 22.6562 18.2393 22.6562 17.7726C22.6562 17.506 22.8563 17.2393 23.1229 17.106C23.7229 16.906 24.5229 17.506 24.4563 17.9726C24.3896 18.306 24.0562 18.4393 24.0562 18.4393Z" fill="#101010"/>
<path d="M21.7905 21.1722C21.4572 20.3722 19.8572 20.4389 19.7238 20.4389C19.3905 20.4389 18.1905 20.5055 17.8572 21.1722C17.4572 22.0389 18.4572 23.6389 19.6572 23.7055C20.9905 23.7722 22.1905 22.0389 21.7905 21.1722Z" fill="#101010"/>
<path d="M17.5231 26.8384C16.9231 27.1718 16.8564 28.1051 16.7898 28.5051C16.7898 28.8384 16.7231 29.6384 17.2564 30.4384C17.8564 31.3051 18.9898 31.9051 20.1898 31.7718C20.3231 31.7718 21.6564 31.6384 22.4564 30.5718C22.9898 29.9051 22.9898 29.1718 22.9898 28.6384C22.9898 28.4384 22.9898 26.9718 22.2564 26.7718C21.9231 26.6384 21.6564 26.6384 21.3231 26.5051C21.1231 26.3718 21.1231 26.4384 20.7898 26.1051C20.5231 25.7718 20.3231 25.5051 19.9898 25.4384C19.6564 25.3718 19.3231 25.6384 19.3231 25.6384C19.1231 25.8384 19.1898 25.9718 18.9231 26.2384C18.7231 26.4384 18.5898 26.5051 18.3231 26.6384C17.8564 26.7718 17.7231 26.7051 17.5231 26.8384Z" fill="#D6E2EB" stroke="#101010" stroke-width="1.09473" stroke-miterlimit="10"/>
<path d="M19.7891 25.5039C19.7891 26.7039 19.7891 27.9039 19.7891 29.1039" stroke="#101010" stroke-width="0.723467" stroke-miterlimit="10" stroke-linecap="round" stroke-linejoin="round"/>
<path d="M11.7229 11.1702C11.6562 10.9036 11.5896 10.3702 11.7896 9.77024C11.8563 9.57024 12.2563 8.57024 13.2563 8.4369C13.9229 8.37024 14.5896 8.77024 14.9229 9.4369" stroke="#101010" stroke-width="1.32933" stroke-miterlimit="10" stroke-linecap="round"/>
<path d="M28.5223 11.305C28.5889 11.0383 28.6556 10.505 28.4556 9.905C28.3889 9.705 27.9889 8.705 26.9889 8.57167C26.3223 8.505 25.6556 8.905 25.3223 9.57167" stroke="#101010" stroke-width="1.32933" stroke-miterlimit="10" stroke-linecap="round"/>
<path d="M59.6518 39.9688C59.6518 41.1021 58.9185 41.3688 57.7852 41.4354C57.3852 41.4354 57.2518 41.0354 57.1852 40.5688L55.9185 29.4354L51.8518 29.5021C51.7852 30.0354 51.6518 30.5688 51.5852 31.1688C51.4518 31.8354 50.5852 39.2354 50.1852 40.6354C49.9852 40.8354 48.6518 41.3687 48.3185 41.3687C48.0518 41.3687 47.7852 41.1688 47.7852 40.5021C47.7852 40.2354 47.7852 39.9021 47.8518 39.6354C49.0518 31.7021 50.1852 23.4354 51.7185 15.1021C52.0518 13.3688 52.2518 10.9688 54.5185 10.9688C56.0518 10.9688 56.3852 13.3021 56.5852 14.9688L59.5185 39.5021C59.6518 39.6354 59.6518 39.8354 59.6518 39.9688ZM55.7185 27.1688L54.3185 14.3688C53.7852 16.3688 53.3185 20.7021 52.3185 27.2354C53.3185 27.2354 54.7185 27.1688 55.7185 27.1688Z" fill="#92A1AF" stroke="#92A1AF" stroke-width="1.03387" stroke-miterlimit="10"/>
<path d="M69.3172 29.8357C70.4505 31.7023 72.6505 35.6357 73.2505 41.369C73.1839 41.4357 72.7172 41.8357 71.9839 41.8357C71.4505 41.8357 70.5839 41.2357 70.4505 40.969C69.9172 37.8357 68.4505 31.969 66.1839 30.2357C65.5172 30.2357 64.9172 30.169 64.9172 30.2357C64.7172 30.4357 64.7172 34.3023 64.7172 36.969C64.7172 38.7023 64.7839 40.0357 64.7839 40.0357C64.7839 40.2357 64.3839 41.769 63.2505 41.769C62.5839 41.769 62.1172 41.6357 62.1172 41.0357L62.3172 13.9023V13.6357C62.7839 11.1023 65.5172 10.9023 67.2505 10.9023C69.2505 10.9023 70.9172 11.3023 71.9172 13.2357C72.5839 14.369 72.5839 16.5023 72.5839 17.9023C72.5839 21.1023 72.3172 25.0357 71.9172 26.4357C71.3839 28.2357 70.4505 29.3023 69.3172 29.8357ZM67.1172 27.6357C68.8505 27.6357 70.0505 25.569 70.0505 22.9023L70.1172 18.169C70.1172 14.8357 69.5839 13.169 66.7839 13.169C66.1172 13.169 65.0505 13.5023 65.0505 13.969C64.9172 20.169 64.9172 23.5023 64.9839 27.6357H67.1172Z" fill="#92A1AF" stroke="#92A1AF" stroke-width="1.03387" stroke-miterlimit="10"/>
<path d="M85.0522 11.5697V17.1697C85.0522 26.7697 84.8522 39.2364 84.8522 40.7697C84.4522 41.1697 83.7855 41.3697 83.3189 41.3697C82.9189 41.3697 82.4522 41.2364 82.4522 40.9697L82.5189 28.8364V28.703L77.6522 28.8364V32.303V36.5697C77.6522 38.703 77.6522 41.103 76.7189 41.3697H76.1189C75.5189 41.3697 75.1855 40.9697 75.1855 40.2364C75.1855 34.9697 75.2522 30.903 75.2522 27.5697C75.2522 14.6364 75.1855 13.0364 75.2522 12.0364C75.2522 11.303 75.9189 11.303 76.4522 11.303C76.9855 11.303 77.7855 11.5697 77.7855 12.0364C77.7189 18.4364 77.7189 23.103 77.6522 26.503C78.1855 26.4364 78.9855 26.4364 79.7855 26.4364C80.7855 26.4364 81.8522 26.4364 82.5189 26.503L82.6522 11.7697C82.6522 11.3697 83.3189 10.9697 83.8522 10.9697C84.1855 10.8364 84.5855 11.0364 85.0522 11.5697Z" fill="#92A1AF" stroke="#92A1AF" stroke-width="1.03387" stroke-miterlimit="10"/>
<path d="M95.6506 39.9023C95.6506 40.569 95.584 41.3023 95.184 41.4357C94.5173 41.569 88.6506 41.3023 88.1173 41.3023C87.9173 41.3023 87.584 40.2357 87.584 40.0357C87.584 39.6357 87.9173 39.169 88.1173 38.9023C88.184 38.8357 89.1173 38.769 90.2507 38.769V13.569C89.2507 13.569 88.384 13.5023 88.184 13.4357C87.784 13.369 87.7173 12.569 87.7173 11.769C87.784 11.369 88.1173 11.0357 88.4506 10.9023C89.784 10.9023 94.9173 10.9023 95.184 11.0357C95.384 11.169 95.784 11.6357 95.784 11.969C95.784 12.169 95.5173 13.369 95.2507 13.369C95.0507 13.369 94.0507 13.4357 92.9173 13.4357V19.0357C92.9173 26.2357 92.8506 33.5023 92.8506 36.7023V38.9023H94.8506C95.3173 39.1023 95.584 39.4357 95.6506 39.9023Z" fill="#92A1AF" stroke="#92A1AF" stroke-width="1.03387" stroke-miterlimit="10"/>
<path d="M107.519 18.0361C107.519 18.6361 107.452 19.1027 106.852 19.1027C106.052 19.1027 105.252 19.1027 104.985 18.1694C104.652 16.7694 105.252 12.6361 103.119 12.6361C101.719 12.6361 100.919 13.9027 100.919 16.1027C100.919 21.6361 107.519 26.5027 107.519 33.3027C107.519 37.9027 106.385 41.9027 102.119 41.9027C99.3187 41.9027 97.7188 38.3694 97.7188 35.2361C97.7188 34.2361 98.0521 33.3027 99.1187 33.3027C100.052 33.3027 100.785 33.8361 100.785 34.9027C100.852 36.3027 100.852 39.5027 102.652 39.5027C104.785 39.5027 104.985 36.5694 104.985 34.9027C104.985 27.7027 98.2521 24.5027 98.2521 16.3027C98.2521 12.6361 100.385 10.3027 103.119 10.3027C106.919 10.3027 107.452 14.9694 107.519 18.0361Z" fill="#92A1AF" stroke="#92A1AF" stroke-width="1.03387" stroke-miterlimit="10"/>
<path d="M118.918 19.1026C118.318 19.1026 118.118 19.1026 117.785 18.9026C117.452 17.5026 117.985 13.3693 115.052 13.3693C113.185 13.3693 112.452 16.8359 112.452 19.2359C112.452 20.5026 112.385 22.9026 112.385 26.0359V29.9026C112.385 33.9026 112.718 38.8359 115.318 38.8359C116.852 38.8359 118.318 37.9693 118.318 34.7693C118.318 34.2359 118.318 33.6359 118.252 32.9693C118.318 32.4359 119.185 32.2359 119.652 32.2359C120.718 32.2359 120.785 33.0359 120.785 33.9026C120.785 35.1026 120.785 36.3693 120.385 37.3693C119.385 39.9693 117.652 41.3693 115.385 41.3693C111.718 41.3693 110.318 38.8359 110.118 34.9693C109.918 32.3026 109.785 26.9026 109.785 23.9026C109.785 21.4359 109.852 18.8359 110.318 16.1026C111.118 11.7693 113.252 10.8359 115.585 10.8359C117.918 10.8359 119.252 12.5026 119.852 14.7026C120.318 16.2359 120.318 16.7693 120.385 18.5693C120.052 18.9026 119.518 19.1026 118.918 19.1026Z" fill="#92A1AF" stroke="#92A1AF" stroke-width="1.03387" stroke-miterlimit="10"/>
<path d="M133.384 11.5697V17.1697C133.384 26.7697 133.184 39.2364 133.184 40.7697C132.784 41.1697 132.118 41.3697 131.651 41.3697C131.251 41.3697 130.784 41.2364 130.784 40.9697L130.851 28.8364V28.703L125.984 28.8364V32.303V36.5697C125.984 38.703 125.984 41.103 125.051 41.3697H124.451C123.851 41.3697 123.518 40.9697 123.518 40.2364C123.518 34.9697 123.584 30.903 123.584 27.5697C123.584 14.6364 123.518 13.0364 123.584 12.0364C123.584 11.303 124.251 11.303 124.784 11.303C125.318 11.303 126.118 11.5697 126.118 12.0364C126.051 18.4364 126.051 23.103 125.984 26.503C126.518 26.4364 127.318 26.4364 128.118 26.4364C129.118 26.4364 130.184 26.4364 130.851 26.503L130.984 11.7697C130.984 11.3697 131.651 10.9697 132.184 10.9697C132.518 10.8364 132.918 11.0364 133.384 11.5697Z" fill="#92A1AF" stroke="#92A1AF" stroke-width="1.03387" stroke-miterlimit="10"/>
<path d="M147.252 24.7711C147.252 34.6378 146.118 41.7044 142.052 41.7044C139.852 41.7044 137.852 40.9044 136.985 35.9711C136.585 33.5711 136.318 30.1044 136.318 26.8378C136.318 24.6378 136.385 22.5711 136.385 21.0378C136.385 17.3044 137.385 10.3711 142.385 10.3711C145.185 10.3711 146.985 14.5044 147.118 18.0378C147.118 20.3711 147.252 22.6378 147.252 24.7711ZM144.518 25.5044C144.518 22.3044 144.452 18.3044 144.118 16.3711C143.985 15.0378 143.185 12.9044 141.852 12.9044C140.185 12.9044 138.852 14.8378 138.852 26.2378C138.852 30.1044 138.985 39.3711 141.785 39.3711C144.052 39.3711 144.518 32.1711 144.518 25.5044Z" fill="#92A1AF" stroke="#92A1AF" stroke-width="1.03387" stroke-miterlimit="10"/>
<path d="M160.451 24.7711C160.451 34.6378 159.318 41.7044 155.251 41.7044C153.051 41.7044 151.051 40.9044 150.184 35.9711C149.784 33.5711 149.518 30.1044 149.518 26.8378C149.518 24.6378 149.584 22.5711 149.584 21.0378C149.584 17.3044 150.584 10.3711 155.584 10.3711C158.384 10.3711 160.184 14.5044 160.318 18.0378C160.318 20.3711 160.451 22.6378 160.451 24.7711ZM157.718 25.5044C157.718 22.3044 157.651 18.3044 157.318 16.3711C157.184 15.0378 156.384 12.9044 155.051 12.9044C153.384 12.9044 152.051 14.8378 152.051 26.2378C152.051 30.1044 152.184 39.3711 154.984 39.3711C157.318 39.3711 157.718 32.1711 157.718 25.5044Z" fill="#92A1AF" stroke="#92A1AF" stroke-width="1.03387" stroke-miterlimit="10"/>
<path d="M165.985 37.9029C165.985 38.3029 166.519 38.3695 167.385 38.3695H169.052C169.985 38.3695 170.452 38.3695 171.052 38.5029C171.119 38.5695 171.252 39.3029 171.252 39.7029C171.252 40.2362 171.185 40.6362 170.719 40.9695C170.119 41.3695 168.319 41.2362 167.519 41.2362C165.652 41.2362 164.319 41.1695 163.585 40.6362C163.319 40.2362 163.319 38.9695 163.319 38.3695C163.452 34.7029 163.452 15.7029 163.252 11.5695C163.585 10.9695 163.919 10.7695 164.319 10.7695C164.919 10.7695 165.519 11.1695 165.585 11.1695C166.252 11.4362 166.119 13.5029 166.119 14.8362C166.119 14.9695 166.119 33.5029 165.985 37.9029Z" fill="#92A1AF" stroke="#92A1AF" stroke-width="1.03387" stroke-miterlimit="10"/>
</svg>
