<svg width="135" height="131" viewBox="0 0 135 131" fill="none" xmlns="http://www.w3.org/2000/svg">
<g clip-path="url(#clip0_209_1881)">
<path fill-rule="evenodd" clip-rule="evenodd" d="M21.6934 105.33C16.3608 108.559 9.32624 109.316 0.589844 107.602C1.51261 97.5948 1.51261 86.4662 0.589844 74.2163C13.7982 73.1056 22.4386 75.1798 25.929 80.439C31.1048 87.3262 29.3138 100.14 21.6934 105.33ZM18.9322 101.182C16.6152 103.072 12.7034 103.829 7.19705 103.453C7.63866 94.6882 7.47428 86.5887 6.70394 79.155C13.5359 77.8045 18.2694 79.5496 20.9045 84.39C23.5866 89.4131 22.7836 97.5358 18.9322 101.182Z" fill="#92A1AF"/>
<path fill-rule="evenodd" clip-rule="evenodd" d="M42.1051 107.603C40.856 107.603 38.4564 107.603 34.9062 107.603C35.9581 96.54 35.9581 85.4114 34.9062 74.2168C37.0757 74.2168 39.4754 74.2168 42.1051 74.2168C41.1846 85.0155 41.1846 96.1442 42.1051 107.603Z" fill="#92A1AF"/>
<path fill-rule="evenodd" clip-rule="evenodd" d="M56.8024 107.603C55.5533 107.603 53.1536 107.603 49.6035 107.603C50.6554 96.54 50.6554 85.4114 49.6035 74.2168C51.773 74.2168 54.1726 74.2168 56.8024 74.2168C56.4055 78.8731 56.1799 83.5907 56.1252 88.3695C57.8094 88.5021 59.8431 86.9124 62.2262 83.6004C64.8219 79.9746 66.827 76.8466 68.2418 74.2168C71.4632 74.2168 73.6984 74.2168 74.9476 74.2168C72.2518 79.0193 68.3071 83.7275 63.1138 88.3416C69.8279 96.2007 74.2327 102.621 76.3281 107.603C73.8299 107.603 71.2988 107.603 68.7348 107.603C66.4262 101.979 63.2376 96.9744 59.1691 92.5888C58.2887 91.6028 57.2713 91.4302 56.117 92.0707C56.1525 97.1789 56.3809 102.356 56.8024 107.603Z" fill="#92A1AF"/>
<path fill-rule="evenodd" clip-rule="evenodd" d="M88.0602 107.603H88.0008H87.9577H87.9398H87.877H87.8125H87.7464H87.6786H87.6658H80.8613C81.9132 96.54 81.9132 85.4114 80.8613 74.2168H86.7782H86.8444H86.9644H87.0702H87.0848H87.2056H87.3267H87.3603H87.4481H87.5699H87.6488H87.6919H87.8144H87.9354H87.9372H88.0602H101.965C101.902 75.792 101.836 77.3066 101.768 78.7604C95.0585 78.4849 90.3852 78.382 87.7474 78.4519C87.5382 81.797 87.4159 85.1733 87.3806 88.5808C91.361 88.7361 95.302 88.4918 99.2037 87.8476C99.2037 89.6915 99.2037 91.2718 99.2037 92.5888C94.9443 92.29 91.0021 92.2168 87.3772 92.3689C87.4077 95.9892 87.5348 99.6443 87.759 103.334C90.1609 103.46 95.1262 103.368 102.655 103.059C102.724 104.513 102.789 106.027 102.852 107.603H88.0602Z" fill="#92A1AF"/>
<path fill-rule="evenodd" clip-rule="evenodd" d="M88.4062 27.7307L106.059 17.0966L107.017 18.6924L88.4062 29.9035V49.7967C88.4062 53.5959 85.3029 56.7042 81.5099 56.7042H50.686C48.842 56.7042 47.161 55.9694 45.9204 54.7777L34.8507 61.3212L34.1114 60.2798L45.0294 53.7352C44.2489 52.616 43.7897 51.2576 43.7897 49.7967V48.7887L32.3051 59.3308L31.4531 58.4163L43.7897 46.9328V18.9231C43.7897 15.1239 46.893 12.0156 50.686 12.0156H80.9852L92.6444 1.4562L92.7154 1.39012L92.7162 1.39121L93.3552 0.8125L94.6021 2.19365L90.7268 5.70345L83.521 12.3179C86.3409 13.1854 88.4062 15.824 88.4062 18.9231V27.7307Z" fill="#92A1AF"/>
<path fill-rule="evenodd" clip-rule="evenodd" d="M50.6859 13.877H81.5095C84.2801 13.877 86.5469 16.1474 86.5469 18.9225V49.796C86.5469 52.5712 84.2801 54.8416 81.5095 54.8416H50.6859C47.9153 54.8416 45.6484 52.5712 45.6484 49.796V18.9225C45.6484 16.1474 47.9153 13.877 50.6859 13.877Z" fill="white"/>
<path fill-rule="evenodd" clip-rule="evenodd" d="M77.9253 48.1153C74.7794 50.8279 70.685 52.468 66.208 52.468C61.6337 52.468 57.4593 50.7553 54.2871 47.9362L66.0168 36.1875L77.9253 48.1153Z" fill="#ADB3C9"/>
<path fill-rule="evenodd" clip-rule="evenodd" d="M79.6551 22.5273C82.4697 25.7047 84.1797 29.8858 84.1797 34.4675C84.1797 39.0772 82.4491 43.2814 79.6039 46.4657L67.6797 34.5221L79.6551 22.5273Z" fill="#92A1AF"/>
<path fill-rule="evenodd" clip-rule="evenodd" d="M64.3556 34.5233L62.9682 35.913C62.4381 35.0626 60.8122 33.913 60.6476 33.7297C59.4854 32.4352 59.0625 31.6986 58.107 30.5046C57.1172 29.2679 55.3639 28.2458 55.0778 27.877C53.0755 25.298 52.2383 25.5574 51.0827 24.7471C51.5367 24.0402 52.0385 23.367 52.5838 22.7324L64.3556 34.5233ZM62.3027 36.5796L60.0061 38.8798C59.9732 38.8398 59.9323 38.8058 59.8825 38.7798C59.0575 38.3491 58.0398 37.0055 58.0289 37C55.7489 35.8418 56.461 35.2075 55.073 34.2223C53.4589 33.0764 53.0507 32.1018 51.8314 31.1521C50.1242 29.8226 50.0429 30.4953 49.0285 29.1747C49.2836 28.3437 49.5968 27.5384 49.9638 26.7636C51.595 27.422 52.9249 28.3768 54.5546 29.1862C56.5692 30.1866 57.3694 32.8563 59.478 33.8939C60.2622 34.28 61.5671 35.9841 62.3027 36.5796ZM58.7823 40.1056L57.3347 41.5556C57.2435 41.1188 56.9441 40.5753 56.4768 40.2437C54.9091 39.1307 52.5204 35.8823 50.6509 35.9193C49.8835 35.9344 48.9669 35.5762 48.2586 35.328C48.2453 35.0433 48.2383 34.7568 48.2383 34.4687C48.2383 33.6266 48.2961 32.7984 48.4078 31.9872C50.9291 32.5853 53.0564 33.5954 54.5266 35.8645C55.6233 37.5574 57.7134 38.6915 58.1117 39.3632C58.3371 39.7434 58.5651 39.9781 58.7823 40.1056ZM56.7455 42.1457L52.6342 46.2638C50.5297 43.8362 49.0638 40.8384 48.4978 37.5327C49.3787 37.8439 50.4604 37.9654 51.1521 38.5968C52.6263 39.9422 55.0774 40.4422 55.6788 41.1603C56.1291 41.6978 56.4817 42.0042 56.7455 42.1457Z" fill="#DFE2EB"/>
<path fill-rule="evenodd" clip-rule="evenodd" d="M66.2091 16.4688C70.7139 16.4688 74.8313 18.1292 77.9852 20.8718L66.0179 32.8585L54.2305 21.052C57.4096 18.2022 61.6069 16.4688 66.2091 16.4688Z" fill="#ADB3C9"/>
<path fill-rule="evenodd" clip-rule="evenodd" d="M67.3564 39.2864C66.287 39.1085 64.1005 39.3629 64.1592 40.7368C64.214 42.023 62.4151 43.6924 65.5801 44.8564C67.4919 45.5596 67.7471 44.1892 68.5219 42.6575C69.1392 41.4374 68.8027 39.5269 67.3564 39.2864Z" fill="#92A1AF"/>
<path fill-rule="evenodd" clip-rule="evenodd" d="M67.1367 41.3666C67.1115 41.3738 64.8566 40.9217 64.9731 42.3245C64.974 42.334 65.8468 43.7827 66.9453 42.6122C67.4832 42.0393 67.3912 42.1968 67.5011 41.4987C67.337 41.3186 67.1102 41.3742 67.1367 41.3666Z" fill="#92A1AF"/>
<path fill-rule="evenodd" clip-rule="evenodd" d="M63.2841 45.4151C62.5096 44.8285 62.7449 44.457 61.1668 44.457C58.8506 44.457 58.0261 46.3208 58.4342 48.2889C58.8024 50.0641 64.104 52.2905 64.104 47.9105C64.104 47.4003 63.6739 45.7103 63.2841 45.4151Z" fill="#92A1AF"/>
<path fill-rule="evenodd" clip-rule="evenodd" d="M61.8644 46.4844C60.9721 46.5801 59.6254 46.5817 60.2389 48.0985C60.5315 48.8222 62.3017 49.5172 62.3017 47.0865C62.3017 46.7887 62.1152 46.6709 61.8644 46.4844Z" fill="#92A1AF"/>
<path fill-rule="evenodd" clip-rule="evenodd" d="M71.3728 44.6225C68.9376 44.3036 67.9977 45.0945 67.8251 47.3001C67.6348 49.7296 69.1157 49.6702 71.0277 50.1701C73.5734 50.8357 75.3744 46.0404 71.5866 44.7727C71.4961 44.7423 71.4642 44.6344 71.3728 44.6225Z" fill="#92A1AF"/>
<path fill-rule="evenodd" clip-rule="evenodd" d="M71.4825 46.2668C70.4674 45.0224 68.1667 47.7005 70.608 48.0732C72.34 48.3375 71.8308 46.6413 71.4825 46.2668Z" fill="#92A1AF"/>
<path fill-rule="evenodd" clip-rule="evenodd" d="M62.3664 16.8809C63.3288 18.4169 63.0587 21.1169 63.0587 22.6402C63.0587 23.4029 63.0803 24.3465 62.8188 25.0729C62.7431 25.2832 62.6466 25.4864 62.5603 25.6926C62.4303 26.0028 62.3199 26.3185 62.2202 26.6397C62.0711 27.1191 61.9148 27.6511 61.7103 28.1093C61.6662 28.2082 61.6175 28.3039 61.5626 28.3935L59.0176 25.8444C59.0249 25.7372 59.0328 25.6303 59.0407 25.5235C59.0799 24.9912 59.1254 24.4591 59.177 23.9279C59.2035 23.655 59.2242 23.278 59.2856 23.0139C59.4558 22.2825 59.4945 21.4793 59.5066 20.7301C59.5188 19.9785 59.4974 19.2275 59.4993 18.476C59.4999 18.2456 59.5016 18.0043 59.5106 17.7609C60.4275 17.3916 61.3819 17.0958 62.3664 16.8809Z" fill="#92A1AF"/>
<path fill-rule="evenodd" clip-rule="evenodd" d="M60.397 17.4317C60.2797 18.9822 60.5459 21.4161 60.1277 23.2127C60.0954 23.3515 59.9007 25.3034 59.8359 26.6685L60.9174 27.7517C61.033 27.4914 61.1769 27.0653 61.3889 26.383C62.0065 24.396 62.1883 25.1844 62.1883 22.6418C62.1883 21.1446 62.4806 18.2669 61.4422 17.1094C61.0893 17.2064 60.7409 17.3141 60.397 17.4317Z" fill="#92A1AF"/>
<path fill-rule="evenodd" clip-rule="evenodd" d="M69.5729 16.7838C69.7309 17.3817 69.7675 18.0527 69.7941 18.5156C69.8767 19.9501 69.8343 21.4297 69.773 22.8651C69.6843 24.9493 69.5201 27.0183 69.3524 29.0964C69.3412 29.2341 69.3276 29.3904 69.3106 29.5604L66.0179 32.8585L65.1262 31.9653C65.0959 31.3488 65.1258 30.755 65.1454 30.3419C65.1981 29.2311 65.3069 27.9798 65.4974 26.8806C65.5294 26.696 65.5391 26.4699 65.5534 26.282C65.5856 25.858 65.6125 25.4333 65.6388 25.0088C65.7126 23.8181 65.7782 22.6267 65.8453 21.4357C65.9168 20.1657 65.9868 18.8953 66.0689 17.6262C66.0938 17.2406 66.1192 16.8543 66.1509 16.4691L66.2092 16.4688C67.3589 16.4688 68.4832 16.5771 69.5729 16.7838Z" fill="#92A1AF"/>
<path fill-rule="evenodd" clip-rule="evenodd" d="M67.0217 16.4863C66.8365 18.7022 66.4822 26.2867 66.3537 27.0285C66.2985 27.3465 65.7734 30.9687 66.0923 32.7848L68.3051 30.5685C68.399 29.9609 68.4592 29.3973 68.4892 29.0257C68.6275 27.3123 69.4218 18.4567 68.6102 16.6274C68.0874 16.5576 67.5577 16.5102 67.0217 16.4863Z" fill="#92A1AF"/>
<path fill-rule="evenodd" clip-rule="evenodd" d="M76.347 19.6051C76.2518 20.4985 75.9666 21.4115 75.7709 22.1835C75.6798 22.5431 75.6379 22.8871 75.6289 23.232L72.7894 26.0761C72.7661 25.9751 72.7495 25.8718 72.7368 25.7702C72.6907 25.3991 72.6707 25.0169 72.6537 24.6435C72.6045 23.5658 72.5956 22.4792 72.5957 21.4005C72.5958 20.4237 72.6059 19.4453 72.6342 18.469C72.6413 18.227 72.6449 17.9461 72.6556 17.6621C73.967 18.1671 75.2045 18.8218 76.347 19.6051Z" fill="#92A1AF"/>
<path fill-rule="evenodd" clip-rule="evenodd" d="M73.5168 18.0195C73.4421 19.9928 73.4344 23.7007 73.5619 25.3017L74.7899 24.0717C74.7381 23.4785 74.7267 22.7703 74.9297 21.9694C75.1338 21.1639 75.5108 20.0435 75.5098 19.0645V19.0644L75.4798 19.0463L75.4198 19.01L75.3896 18.9921L75.3595 18.9741L75.3294 18.9563L75.2991 18.9384L75.2386 18.903L75.2082 18.8852L75.1778 18.8677L75.1475 18.8501L75.1415 18.8466L75.0866 18.8152L75.056 18.7979L75.0255 18.7806L74.9949 18.7633L74.9643 18.7461L74.9029 18.712L74.8722 18.695L74.8415 18.6779L74.8106 18.661L74.7797 18.6442L74.739 18.6219L74.625 18.5609L74.5939 18.5444L74.5894 18.5419L74.5628 18.528L74.4693 18.4791L74.438 18.4628L74.4143 18.4504L74.4068 18.4467L74.3755 18.4307L74.3441 18.4147L74.2499 18.3668L74.238 18.3609L74.2184 18.3511L74.0605 18.2732L74.0604 18.2731L73.9015 18.1967L73.8822 18.1875L73.8697 18.1815L73.7098 18.1069L73.7026 18.1037L73.5221 18.0217L73.5168 18.0195Z" fill="#92A1AF"/>
<path fill-rule="evenodd" clip-rule="evenodd" d="M74.9806 31.4585C74.8656 32.4913 76.0348 31.8029 75.3992 32.8496C75.0691 33.393 76.7768 35.1603 74.0109 34.9391C72.9139 34.8514 71.4631 33.3526 72.1746 31.9003C73.5836 29.0242 78.9378 28.9086 79.9352 32.2615C80.3321 33.596 81.0642 35.1271 80.1819 36.4311C78.8617 38.3822 79.2501 37.9672 76.6342 38.7522C73.2609 39.7645 71.1445 37.0792 71.6967 37.1241C72.7551 37.2098 71.5407 36.682 72.9226 37.4431C74.0678 38.0739 78.569 38.7019 78.8015 36.0699C78.9687 34.1781 80.1 32.538 77.0574 31.2809C76.6111 31.0965 74.9805 31.4595 74.9806 31.4585Z" fill="#92A1AF"/>
<path fill-rule="evenodd" clip-rule="evenodd" d="M77.6593 33.4824C77.8776 34.4061 77.7818 35.4959 77.2862 36.2059C76.6196 37.161 75.2596 38.0689 74.3442 36.9943C73.5333 36.0421 76.6922 36.8951 76.5663 33.9477C76.5285 33.0615 77.5234 32.9077 77.6593 33.4824Z" fill="#AEB3C9"/>
<path fill-rule="evenodd" clip-rule="evenodd" d="M77.1109 26.7246C79.064 27.8861 79.0866 27.3361 80.8959 29.3882C81.9222 30.5521 81.913 37.8453 81.2098 38.658C80.5479 39.423 80.339 40.7848 78.2585 40.9524C77.7239 40.9955 77.254 41.2565 76.0912 41.3356C73.6811 41.4994 78.2097 43.4787 80.9834 41.5264C82.6944 40.3219 82.4234 40.9072 83.2319 37.1393C83.7839 34.567 83.6598 34.4458 83.0273 31.0866C82.6655 29.1644 82.6372 28.3654 80.8741 27.5818C79.5965 27.014 77.9185 24.2977 77.2475 26.3142L77.1109 26.7246Z" fill="#92A1AF"/>
<path fill-rule="evenodd" clip-rule="evenodd" d="M78.1498 43.9401C79.3443 43.7469 78.776 44.26 80.6685 43.6436C80.8635 43.5801 81.0402 46.4022 78.0999 44.2551C77.821 44.0517 78.0437 43.9572 78.1498 43.9401Z" fill="#92A1AF"/>
<path fill-rule="evenodd" clip-rule="evenodd" d="M123.463 93.7741C123.068 98.5816 122.871 103.257 123.266 107.603C121.162 107.603 118.894 107.603 116.461 107.603C117.018 103.322 116.985 98.6465 116.362 93.5766C114.007 87.8749 110.753 81.4217 106.6 74.2168C109.558 74.2168 111.695 74.2168 113.601 74.2168C116.568 80.4569 118.869 86.2188 120.504 91.5023C122.052 86.6973 124.649 80.9354 127.703 74.2168C130.727 74.2168 133.423 74.2168 135.001 74.2168C129.544 82.803 125.896 88.5648 123.463 93.7741Z" fill="#92A1AF"/>
<path d="M2.00977 115.092H5.9655V120.886H6.00802L10.4742 115.092H15.238L9.79359 121.697L15.6634 129.275H10.623L6.00802 122.832H5.9655V129.275H2.00977V115.092ZM23.2984 118.009H23.2558L21.3418 123.561H25.0635L23.2984 118.009ZM20.8739 115.092H25.7228L31.4437 129.275H27.1052L25.9993 126.235H20.4273L19.2576 129.275H15.238L20.8739 115.092ZM38.8306 119.002C38.3379 119.002 37.9267 119.073 37.59 119.215C37.2533 119.357 36.9874 119.515 36.7925 119.691C36.5798 119.88 36.4132 120.079 36.2892 120.289C36.1615 120.498 36.0658 120.714 36.002 120.937C35.9418 121.16 35.8992 121.379 35.878 121.596C35.8567 121.812 35.8461 122.008 35.8461 122.183C35.8461 122.859 35.9489 123.389 36.1509 123.774C36.353 124.159 36.5621 124.446 36.7712 124.635C37.0087 124.864 37.3135 125.043 37.6857 125.172C38.0543 125.3 38.4442 125.364 38.8519 125.364H39.3126V119.002H38.8306ZM43.0982 125.364H43.559C43.9667 125.364 44.3566 125.3 44.7252 125.172C45.0974 125.043 45.4022 124.864 45.6397 124.635C45.8488 124.446 46.0579 124.159 46.26 123.774C46.462 123.389 46.5648 122.859 46.5648 122.183C46.5648 122.008 46.5542 121.812 46.5329 121.596C46.5116 121.379 46.4691 121.16 46.4089 120.937C46.3451 120.714 46.2493 120.498 46.1253 120.289C45.9977 120.079 45.8311 119.88 45.6184 119.691C45.4235 119.515 45.1576 119.357 44.8209 119.215C44.4841 119.073 44.073 119.002 43.5803 119.002H43.0982V125.364ZM43.1833 114.281V116.206H43.9915C44.9981 116.206 45.8736 116.334 46.618 116.591C47.3624 116.848 47.9755 117.158 48.4576 117.523C48.7128 117.712 48.9715 117.949 49.2338 118.232C49.4961 118.516 49.7301 118.85 49.9357 119.235C50.1413 119.62 50.3114 120.056 50.4461 120.542C50.5808 121.028 50.6481 121.575 50.6481 122.183C50.6481 122.805 50.5843 123.358 50.4567 123.845C50.3291 124.331 50.1625 124.766 49.9569 125.151C49.7514 125.536 49.5139 125.867 49.2445 126.144C48.9751 126.421 48.6986 126.661 48.4151 126.864C48.3725 126.891 48.2414 126.972 48.0216 127.107C47.8019 127.242 47.5006 127.387 47.1178 127.542C46.735 127.698 46.2777 127.839 45.746 127.968C45.2144 128.096 44.6295 128.16 43.9915 128.16H43.1833V130.085H39.2276V128.16H38.4194C37.7814 128.16 37.1965 128.096 36.6649 127.968C36.1332 127.839 35.6759 127.698 35.2931 127.542C34.9103 127.387 34.609 127.242 34.3893 127.107C34.1695 126.972 34.0384 126.891 33.9958 126.864C33.7123 126.661 33.4358 126.421 33.1664 126.144C32.897 125.867 32.6595 125.536 32.4539 125.151C32.2484 124.766 32.0818 124.331 31.9542 123.845C31.8266 123.358 31.7628 122.805 31.7628 122.183C31.7628 121.575 31.8301 121.028 31.9648 120.542C32.0995 120.056 32.2696 119.62 32.4752 119.235C32.6808 118.85 32.9147 118.516 33.177 118.232C33.4393 117.949 33.6981 117.712 33.9533 117.523C34.4354 117.158 35.0485 116.848 35.7929 116.591C36.5373 116.334 37.4128 116.206 38.4194 116.206H39.2276V114.281H43.1833ZM52.6685 115.092H63.1321V117.766H56.6243V120.704H62.7705V123.379H56.6243V126.6H63.366V129.275H52.6685V115.092ZM96.1815 126.6H97.3937C97.5355 126.6 97.6986 126.597 97.8829 126.59C98.0672 126.583 98.2586 126.566 98.4571 126.539C98.6556 126.512 98.8505 126.472 99.042 126.418C99.2334 126.364 99.407 126.283 99.563 126.175C99.8182 125.999 99.9848 125.803 100.063 125.587C100.141 125.371 100.18 125.162 100.18 124.959C100.18 124.527 100.088 124.203 99.9033 123.986C99.7189 123.77 99.5204 123.608 99.3078 123.5C99.1093 123.406 98.8505 123.341 98.5315 123.308C98.2125 123.274 97.7907 123.257 97.2661 123.257H96.1815V126.6ZM92.2258 115.092H102.944V117.888H96.1815V120.583H97.1598C97.6277 120.583 98.1026 120.586 98.5847 120.593C99.0668 120.599 99.5382 120.63 99.999 120.684C100.46 120.738 100.906 120.829 101.339 120.957C101.771 121.086 102.165 121.278 102.519 121.535C102.661 121.643 102.828 121.791 103.019 121.981C103.21 122.17 103.388 122.406 103.551 122.69C103.714 122.973 103.852 123.311 103.965 123.703C104.079 124.094 104.135 124.554 104.135 125.081C104.135 125.675 104.018 126.252 103.785 126.813C103.551 127.373 103.115 127.87 102.477 128.302C101.91 128.68 101.257 128.937 100.52 129.072C99.7827 129.207 99.0739 129.275 98.3933 129.275H92.2258V115.092ZM112.004 118.009H111.962L110.048 123.561H113.77L112.004 118.009ZM109.58 115.092H114.429L120.15 129.275H115.811L114.705 126.235H109.133L107.964 129.275H103.944L109.58 115.092ZM125.275 121.636H126.296C126.537 121.636 126.838 121.606 127.2 121.545C127.561 121.484 127.884 121.339 128.168 121.109C128.409 120.893 128.565 120.653 128.635 120.39C128.706 120.127 128.742 119.894 128.742 119.691C128.742 119.421 128.699 119.157 128.614 118.901C128.529 118.644 128.338 118.408 128.04 118.192C127.756 117.989 127.444 117.868 127.104 117.827C126.764 117.786 126.495 117.766 126.296 117.766H125.275V121.636ZM126.041 115.092C126.424 115.092 126.856 115.105 127.338 115.132C127.82 115.159 128.306 115.22 128.795 115.315C129.284 115.409 129.759 115.551 130.22 115.74C130.681 115.929 131.088 116.186 131.443 116.51C131.74 116.78 132.024 117.179 132.293 117.705C132.563 118.232 132.697 118.914 132.697 119.752C132.697 120.265 132.616 120.775 132.453 121.282C132.29 121.788 132.003 122.257 131.592 122.69C131.223 123.068 130.819 123.365 130.379 123.581C129.94 123.797 129.497 123.959 129.05 124.067C128.604 124.176 128.182 124.243 127.785 124.27C127.388 124.297 127.062 124.311 126.806 124.311H125.275V129.275H121.319V115.092H126.041ZM74.8078 118.415C74.8362 118.847 75.0063 119.212 75.3182 119.509C75.4742 119.671 75.6266 119.823 75.7755 119.965C75.9244 120.106 76.0768 120.231 76.2327 120.339C76.332 120.285 76.4312 120.231 76.5305 120.177C76.6297 120.123 76.7361 120.062 76.8495 119.995C77.0338 119.873 77.2252 119.732 77.4237 119.569C77.8065 119.272 78.0121 118.887 78.0405 118.415C78.0405 117.982 77.8845 117.665 77.5726 117.462C77.2465 117.26 76.8495 117.158 76.3816 117.158C75.9279 117.158 75.5592 117.273 75.2757 117.503C74.9638 117.719 74.8078 118.023 74.8078 118.415ZM73.8933 125.141C73.9217 125.769 74.1698 126.252 74.6377 126.593C75.1197 126.948 75.6656 127.127 76.2753 127.127C77.0834 127.127 77.8349 126.857 78.5296 126.316C77.9908 125.749 77.4485 125.205 76.9026 124.685C76.3568 124.165 75.8003 123.662 75.2332 123.176C74.8078 123.368 74.4817 123.612 74.2549 123.912C74.0138 124.226 73.8933 124.635 73.8933 125.141ZM85.2713 121.616C85.1721 123.466 84.4136 125.087 82.9957 126.479L85.6329 129.275H81.4007C81.1029 128.869 80.8052 128.511 80.5075 128.201C79.8411 128.714 79.118 129.059 78.3382 129.234C77.5017 129.423 76.6865 129.518 75.8925 129.518C74.4179 129.518 73.1348 129.167 72.0431 128.464C70.8804 127.748 70.292 126.661 70.2779 125.202C70.2779 124.203 70.5402 123.412 71.0648 122.832C71.561 122.237 72.2699 121.744 73.1915 121.352C72.0005 120.488 71.4051 119.448 71.4051 118.232C71.4051 117.597 71.561 117.064 71.8729 116.632C72.1423 116.213 72.518 115.868 73.0001 115.598C73.9926 115.098 75.1056 114.849 76.3391 114.849C77.686 114.835 78.8699 115.085 79.8907 115.598C80.9257 116.125 81.4574 117.037 81.4858 118.334C81.4858 118.793 81.4007 119.191 81.2306 119.529C81.1313 119.705 81.0214 119.867 80.9009 120.015C80.7804 120.164 80.6421 120.312 80.4862 120.461C80.1743 120.731 79.8411 120.988 79.4866 121.231C79.2881 121.352 79.0896 121.471 78.8911 121.585C78.6926 121.7 78.4941 121.812 78.2957 121.92C79.1606 122.649 80.0112 123.399 80.8477 124.169C81.2022 123.791 81.4503 123.385 81.5921 122.953C81.663 122.737 81.7162 122.517 81.7516 122.295C81.7871 122.072 81.8119 121.845 81.826 121.616H85.2713Z" fill="#92A1AF"/>
</g>
<defs>
<clipPath id="clip0_209_1881">
<rect width="134.411" height="129.272" fill="white" transform="translate(0.589844 0.8125)"/>
</clipPath>
</defs>
</svg>
