<svg width="176" height="41" viewBox="0 0 176 41" fill="none" xmlns="http://www.w3.org/2000/svg">
<g clip-path="url(#clip0_209_1779)">
<path fill-rule="evenodd" clip-rule="evenodd" d="M32.1602 8.53125H28.0938V11.272H32.1602V32.6312H35.7515V11.272H39.813V8.53125H35.7515H32.1602Z" fill="#92A1AF"/>
<path fill-rule="evenodd" clip-rule="evenodd" d="M118.916 8.52734H114.852V11.2681H118.916V32.6273H122.507V11.2681H126.571V8.52734H122.507H118.916Z" fill="#92A1AF"/>
<path fill-rule="evenodd" clip-rule="evenodd" d="M56.541 8.53125H57.2031H60.1324H62.8752H65.5199H66.4666V32.6312H62.8752V11.272H60.1324V26.6766C60.1333 26.6763 60.1342 26.6761 60.1351 26.6758C60.1351 26.769 60.1342 26.861 60.1324 26.9519V27.2442H60.1233C60.0413 29.1646 59.5378 30.5314 58.7179 31.3068C57.0448 32.889 55.1131 32.6981 54.9488 32.6786H53.5176V29.0399C54.4627 29.0399 54.9691 29.0146 55.6913 28.4729C56.4074 27.9358 56.5301 26.5509 56.541 25.4424V8.53125Z" fill="#92A1AF"/>
<path fill-rule="evenodd" clip-rule="evenodd" d="M71.0039 8.53125H71.666H74.5953H77.3381H79.9828H80.9295V32.6312H77.3381V11.272H74.5953V26.6766C74.5962 26.6763 74.5971 26.6761 74.598 26.6758C74.598 26.769 74.5971 26.861 74.5953 26.9519V27.2442H74.5862C74.5042 29.1646 74.0007 30.5314 73.1808 31.3068C71.5101 32.8868 69.5814 32.6986 69.4124 32.6787H67.9805V29.04C68.9256 29.04 69.432 29.0147 70.1542 28.473C70.8703 27.9359 70.9929 26.551 71.0039 25.4425V8.53125Z" fill="#92A1AF"/>
<path fill-rule="evenodd" clip-rule="evenodd" d="M153.982 8.52734H154.644H157.574H160.317H162.961H163.908V32.6273H160.317V11.2681H157.574V26.6727C157.575 26.6724 157.576 26.6722 157.577 26.6719C157.577 26.7651 157.576 26.8571 157.574 26.948V27.2403H157.565C157.483 29.1607 156.979 30.5275 156.159 31.3029C154.489 32.8828 152.56 32.6947 152.391 32.6747H150.959V29.0361C151.904 29.0361 152.41 29.0107 153.133 28.4691C153.849 27.932 153.971 26.5471 153.982 25.4385V8.52734Z" fill="#92A1AF"/>
<path fill-rule="evenodd" clip-rule="evenodd" d="M17.418 21.9527V29.8908V32.6312V32.6315H26.3019V29.8908H21.0093V21.9527H24.0337V18.3613H21.0093V11.272H26.3019V8.53125H21.0093H17.418V11.272V18.3613V21.9527Z" fill="#92A1AF"/>
<path fill-rule="evenodd" clip-rule="evenodd" d="M128.277 21.9488V29.8868V32.6273V32.6276H137.161V29.8868H131.869V21.9488H134.893V18.3574H131.869V11.2681H137.161V8.52734H131.869H128.277V11.2681V18.3574V21.9488Z" fill="#92A1AF"/>
<path fill-rule="evenodd" clip-rule="evenodd" d="M10.4259 8.53125L10.4729 8.53154L10.4727 8.53141H11.465H15.0564V32.6314H11.465V15.5016L8.96494 30.4924L8.96701 30.5048L8.94356 30.6206L8.60823 32.6312L8.5363 32.6312L6.97631 32.6312L6.83903 32.6312L6.49227 30.552L3.99762 15.5938V32.6315H0.40625V8.53154H3.99762H5.17899L5.17834 8.53188L5.3024 8.53125L7.72363 23.0493L10.1449 8.53125L10.4259 8.53125Z" fill="#92A1AF"/>
<path fill-rule="evenodd" clip-rule="evenodd" d="M43.8788 8.54484V8.54305H47.182L47.1884 8.54199L47.4727 8.54305H47.8482V8.54445L47.9527 8.54484L51.9719 32.6448H48.2938L47.2847 26.5944H44.5256L43.5165 32.6448H39.8384L43.8576 8.54484L43.8788 8.54484ZM44.9827 23.8536L45.9052 18.3222L46.8276 23.8536H44.9827Z" fill="#92A1AF"/>
<path fill-rule="evenodd" clip-rule="evenodd" d="M172.414 12.4409C172.414 12.4408 172.413 12.4407 172.413 12.4405C172.384 11.7877 171.845 11.2672 171.185 11.2672C170.507 11.2672 169.957 11.8173 169.957 12.4958L169.957 12.5102L169.957 12.5244C169.957 12.5245 169.957 12.5245 169.957 12.5246V28.6294L169.957 28.6296L169.957 28.6439L169.957 28.6582C169.957 29.3367 170.507 29.8868 171.185 29.8868C171.845 29.8868 172.384 29.3664 172.413 28.7135L172.414 28.7131V12.4409ZM176.005 12.3085C176.005 12.2924 176.005 12.2761 176.005 12.2595C176.005 10.2452 174.41 8.60355 172.414 8.52902V8.52644H172.295L172.272 8.52637L172.249 8.52644H169.957V8.52911C167.961 8.60364 166.365 10.2453 166.365 12.2596C166.365 12.2754 166.365 12.2911 166.366 12.3065H166.365V28.8457H166.366C166.365 28.8617 166.365 28.878 166.365 28.8944C166.365 30.9087 167.961 32.5504 169.957 32.6249V32.6276H172.249L172.272 32.6277L172.295 32.6276H172.414V32.625C174.41 32.5505 176.005 30.9088 176.005 28.8945C176.005 28.8787 176.005 28.8631 176.005 28.8477H176.005V12.3085H176.005Z" fill="#92A1AF"/>
<path fill-rule="evenodd" clip-rule="evenodd" d="M112.81 12.2595C112.81 12.3007 112.809 12.3403 112.807 12.3783V16.8449H109.215L109.215 12.4064C109.169 11.7696 108.638 11.2672 107.99 11.2672C107.311 11.2672 106.761 11.8173 106.761 12.4958L106.761 12.5102L106.762 12.5244L106.761 12.5246V28.6294C106.761 28.6295 106.762 28.6295 106.762 28.6296L106.761 28.6439L106.761 28.6582C106.761 29.3367 107.311 29.8868 107.99 29.8868C108.638 29.8868 109.169 29.3844 109.215 28.7477L109.215 24.3104H112.807V28.7758C112.809 28.8137 112.81 28.8533 112.81 28.8945C112.81 30.9088 111.215 32.5505 109.219 32.625V32.6276H109.1L109.077 32.6277L109.054 32.6276H106.761V32.6249C104.765 32.5504 103.17 30.9087 103.17 28.8944C103.17 28.878 103.17 28.8617 103.17 28.8457H103.17V12.3065H103.17C103.17 12.2911 103.17 12.2754 103.17 12.2596C103.17 10.2453 104.765 8.60364 106.761 8.52911V8.52644H109.054L109.077 8.52637L109.1 8.52644H109.219V8.52902C111.215 8.60355 112.81 10.2452 112.81 12.2595Z" fill="#92A1AF"/>
<path fill-rule="evenodd" clip-rule="evenodd" d="M138.955 8.52734H142.546V18.3011C143.764 18.2611 144.512 18.0273 144.674 16.7024L144.715 16.3679L144.715 16.3679C144.927 14.6283 145.063 13.5139 145.241 11.6461C145.43 9.66144 145.524 8.52734 145.524 8.52734H149.825C149.242 9.64796 148.829 12.4695 148.587 14.128L148.549 14.3869L148.507 14.6736C148.114 17.3593 147.864 19.0692 145.855 20.5301C145.833 20.5463 145.811 20.5623 145.788 20.5781C145.811 20.594 145.833 20.61 145.855 20.6262C147.864 22.087 148.114 23.797 148.507 26.4826C148.521 26.577 148.535 26.6725 148.549 26.7693C148.561 26.8519 148.574 26.9384 148.587 27.0283C148.829 28.6868 149.242 31.5083 149.825 32.6289H145.524C145.524 32.6289 145.43 31.4948 145.241 29.5101C145.063 27.6424 144.927 26.5279 144.715 24.7883C144.701 24.6794 144.688 24.568 144.674 24.4538C144.512 23.129 143.764 22.8951 142.546 22.8552V32.6273H138.955V8.52734Z" fill="#92A1AF"/>
<path d="M96.8496 32.5996L89.2042 8.6543H87.5405L95.186 32.5996H96.8496Z" fill="#92A1AF"/>
<path d="M100.176 32.5996L92.531 8.6543H90.8674L98.5128 32.5996H100.176Z" fill="#92A1AF"/>
<path d="M84.2129 8.6543L91.8583 32.5996H93.522L85.8765 8.6543H84.2129Z" fill="#92A1AF"/>
</g>
<defs>
<clipPath id="clip0_209_1779">
<rect width="175.599" height="39.9089" fill="white" transform="translate(0.400391 0.546875)"/>
</clipPath>
</defs>
</svg>
