<svg width="176" height="135" viewBox="0 0 176 135" fill="none" xmlns="http://www.w3.org/2000/svg">
<path d="M50.9883 24.6016H81.2403V36.9661H52.8287C51.6484 32.9467 51.0292 28.7867 50.9883 24.6016Z" fill="#D6E2EB"/>
<path d="M60.7487 54.0268C58.1197 50.0561 55.9168 45.825 54.1758 41.4023H85.5781V54.0106C85.5781 54.0106 75.9158 53.8968 60.7487 54.0106" fill="#D6E2EB"/>
<path d="M87.4872 76.901C87.0159 77.1458 86.4914 77.2737 85.959 77.2737C85.4266 77.2737 84.9022 77.1458 84.4308 76.901C78.8119 73.8036 73.7258 69.8441 69.3623 65.1702C69.198 64.9265 69.0994 64.6827 69.1651 64.5203C69.2308 64.3578 70.036 64.1953 70.9891 64.1953H102.391C102.485 64.2008 102.576 64.2288 102.656 64.2769C102.736 64.3251 102.803 64.3919 102.851 64.4715C102.851 64.6178 102.851 64.8452 102.671 65.0889C98.286 69.8092 93.1588 73.7979 87.4872 76.901Z" fill="#D6E2EB"/>
<path d="M111.198 54.1564C110.458 55.31 109.686 56.4473 108.881 57.5684L108.634 57.8933L107.879 58.9007C107.764 59.0144 107.665 59.0794 107.583 59.0632C107.501 59.0469 107.451 58.9169 107.435 58.7382V57.8284C107.435 57.6821 107.435 57.5196 107.435 57.3572V42.6205L103.475 41.1582V27.4776L84.2159 20.0362H58.4171C58.2363 20.0362 58.2363 20.0362 58.2363 20.0362C58.2363 20.0362 58.2363 19.9224 58.3349 19.8574C61.3984 18.732 64.5396 17.8253 67.7342 17.1441C73.7162 15.8035 79.8245 15.0901 85.9577 15.0156C92.1101 15.0592 98.2405 15.7454 104.247 17.0628C109.711 18.1071 114.966 20.0222 119.808 22.7333C120.146 22.9255 120.428 23.1993 120.63 23.5289C120.831 23.8586 120.944 24.2333 120.959 24.618C120.959 34.2367 117.229 44.7164 111.231 54.1401" fill="#D6E2EB"/>
<path d="M30.9746 105.904H9.03742V101.744H30.8596C31.4175 101.729 31.9585 101.934 32.3637 102.313C32.769 102.692 33.0052 103.215 33.0205 103.767C33.0357 104.319 32.8288 104.854 32.4451 105.254C32.0614 105.655 31.5325 105.888 30.9746 105.904ZM9.03742 94.7089H30.761C31.2927 94.7089 31.8026 94.9177 32.1786 95.2895C32.5546 95.6612 32.7658 96.1654 32.7658 96.6911C32.7658 97.2168 32.5546 97.721 32.1786 98.0928C31.8026 98.4645 31.2927 98.6733 30.761 98.6733H9.03742V94.7089ZM34.1132 99.9569C34.9324 99.4159 35.5535 98.6284 35.8846 97.7111C36.2157 96.7938 36.2392 95.7954 35.9515 94.8638C35.6639 93.9323 35.0805 93.1171 34.2877 92.539C33.4949 91.961 32.5348 91.6507 31.5498 91.6543H5.65234V108.893H31.9441C33.0269 108.889 34.0766 108.524 34.9237 107.857C35.7708 107.19 36.3659 106.261 36.6128 105.218C36.8598 104.176 36.7441 103.082 36.2846 102.112C35.8251 101.143 35.0486 100.355 34.0804 99.8757" fill="#92A1AF"/>
<path d="M43.1663 94.6942H64.1669C64.8206 94.6942 65.4476 94.951 65.9098 95.4081C66.3721 95.8651 66.6317 96.485 66.6317 97.1314C66.6317 97.7778 66.3721 98.3977 65.9098 98.8547C65.4476 99.3118 64.8206 99.5685 64.1669 99.5685H43.1663V94.6942ZM66.5332 108.895H70.4441L65.8101 102.396C67.1638 102.12 68.3647 101.354 69.1782 100.25C69.9918 99.1449 70.3595 97.7799 70.2096 96.4214C70.0597 95.0629 69.4029 93.8084 68.3675 92.9031C67.3321 91.9979 65.9926 91.5068 64.6106 91.5259H39.7812V108.895H43.1663V102.558H61.965L66.5332 108.895Z" fill="#92A1AF"/>
<path d="M142.518 94.6942H163.518C164.172 94.6942 164.799 94.951 165.261 95.4081C165.724 95.8651 165.983 96.485 165.983 97.1314C165.983 97.7778 165.724 98.3977 165.261 98.8547C164.799 99.3118 164.172 99.5685 163.518 99.5685H142.518V94.6942ZM165.885 108.895H169.796L165.145 102.396C166.499 102.12 167.7 101.354 168.513 100.25C169.327 99.1449 169.695 97.7799 169.545 96.4214C169.395 95.0629 168.738 93.8084 167.703 92.9031C166.667 91.9979 165.328 91.5068 163.946 91.5259H139.133V108.895H142.518V102.558H161.317L165.885 108.895Z" fill="#92A1AF"/>
<path d="M76.3773 98.772V97.1473C76.3771 96.5093 76.63 95.8966 77.0817 95.4409C77.5333 94.9853 78.1477 94.7229 78.7928 94.7101H100.023V98.7883L76.3773 98.772ZM78.3163 91.6393C76.8948 91.6975 75.55 92.2928 74.5594 93.3025C73.5688 94.3123 73.0078 95.6594 72.9922 97.066V108.894H76.3773V101.827H100.023V108.894H103.409V91.623L78.3163 91.6393Z" fill="#92A1AF"/>
<path d="M135.862 105.922H110.441V101.828H130.818V98.7734H110.441V94.6789H135.862V91.6406H107.023V108.961H135.862V105.922Z" fill="#92A1AF"/>
</svg>
