<svg width="80" height="80" viewBox="0 0 80 80" fill="none" xmlns="http://www.w3.org/2000/svg">
<path d="M36.72 57.5C36.88 56.18 37 54.86 37 53.5C37 52.14 36.88 50.82 36.72 49.5H43.48C43.8 50.78 44 52.12 44 53.5C44 54.88 43.8 56.22 43.48 57.5M33.18 68.62C34.38 66.4 35.3 64 35.94 61.5H41.84C39.9023 64.8366 36.8282 67.364 33.18 68.62ZM32.68 57.5H23.32C23.12 56.18 23 54.86 23 53.5C23 52.14 23.12 50.8 23.32 49.5H32.68C32.86 50.8 33 52.14 33 53.5C33 54.86 32.86 56.18 32.68 57.5ZM28 69.42C26.34 67.02 25 64.36 24.18 61.5H31.82C31 64.36 29.66 67.02 28 69.42ZM20 45.5H14.16C16.0777 42.1544 19.1496 39.623 22.8 38.38C21.6 40.6 20.7 43 20 45.5ZM14.16 61.5H20C20.7 64 21.6 66.4 22.8 68.62C19.1572 67.3633 16.0897 64.8354 14.16 61.5ZM12.52 57.5C12.2 56.22 12 54.88 12 53.5C12 52.12 12.2 50.78 12.52 49.5H19.28C19.12 50.82 19 52.14 19 53.5C19 54.86 19.12 56.18 19.28 57.5M28 37.56C29.66 39.96 31 42.64 31.82 45.5H24.18C25 42.64 26.34 39.96 28 37.56ZM41.84 45.5H35.94C35.314 43.0229 34.3871 40.6318 33.18 38.38C36.86 39.64 39.92 42.18 41.84 45.5ZM28 33.5C16.94 33.5 8 42.5 8 53.5C8 58.8043 10.1071 63.8914 13.8579 67.6421C15.715 69.4993 17.9198 70.9725 20.3463 71.9776C22.7728 72.9827 25.3736 73.5 28 73.5C33.3043 73.5 38.3914 71.3929 42.1421 67.6421C45.8929 63.8914 48 58.8043 48 53.5C48 50.8736 47.4827 48.2728 46.4776 45.8463C45.4725 43.4198 43.9993 41.215 42.1421 39.3579C40.285 37.5007 38.0802 36.0275 35.6537 35.0224C33.2272 34.0173 30.6264 33.5 28 33.5Z" fill="#1B41A2"/>
<path d="M38 28C38 24.3333 38 23.6 38 18C38 11 43 5 50 5C57 5 62 11 62 18C62 23.6 62 24.3333 62 28" stroke="#1B41A2" stroke-width="4" stroke-linecap="square"/>
<g filter="url(#filter0_b_209_1983)">
<rect x="28" y="18.5" width="43" height="35" rx="3" fill="#C3DBFF" fill-opacity="0.32"/>
<rect x="28.15" y="18.65" width="42.7" height="34.7" rx="2.85" stroke="#1B41A2" stroke-width="0.3"/>
</g>
<defs>
<filter id="filter0_b_209_1983" x="22" y="12.5" width="55" height="47" filterUnits="userSpaceOnUse" color-interpolation-filters="sRGB">
<feFlood flood-opacity="0" result="BackgroundImageFix"/>
<feGaussianBlur in="BackgroundImageFix" stdDeviation="3"/>
<feComposite in2="SourceAlpha" operator="in" result="effect1_backgroundBlur_209_1983"/>
<feBlend mode="normal" in="SourceGraphic" in2="effect1_backgroundBlur_209_1983" result="shape"/>
</filter>
</defs>
</svg>
