<svg width="190" height="27" viewBox="0 0 190 27" fill="none" xmlns="http://www.w3.org/2000/svg">
<path d="M132.096 16.4074C132.65 13.9621 133.143 11.8455 133.615 9.70848C134.169 7.26317 134.744 4.79732 135.257 2.33147C135.524 1.0369 136.099 0.358792 137.535 0.482085C138.952 0.605377 140.388 0.482081 141.825 0.523179C143.118 0.564276 143.467 0.995805 143.2 2.24928C141.62 9.70848 140.019 17.1882 138.397 24.6474C137.925 26.8461 137.843 26.8461 135.627 26.8461C134.272 26.8461 132.938 26.7639 131.583 26.8667C130.311 26.9694 129.592 26.4146 129.017 25.3461C127.047 21.5446 125.015 17.7636 122.983 13.9621C122.819 13.6333 122.614 13.3251 122.244 12.688C121.608 15.606 121.074 18.1746 120.52 20.7432C120.171 22.3049 119.802 23.8666 119.432 25.4283C119.206 26.3941 118.652 26.9078 117.585 26.8667C116.189 26.805 114.814 26.8872 113.418 26.8461C111.817 26.7845 111.243 26.0242 111.592 24.4625C113.234 17.0855 114.876 9.72902 116.518 2.37257C116.928 0.564276 116.99 0.543729 118.878 0.543729C120.089 0.543729 121.321 0.605374 122.531 0.523179C123.804 0.440984 124.481 0.934155 125.036 2.08489C127.109 6.48232 129.284 10.8181 131.419 15.195C131.563 15.4827 131.768 15.8115 132.096 16.4074Z" fill="#92A1AF"/>
<path d="M99.8099 10.3457C102.437 10.3457 104.9 10.3457 107.343 10.3457C110.791 10.3457 110.832 10.4074 110.134 13.7568C109.641 16.161 109.436 16.3254 106.953 16.346C104.572 16.346 102.191 16.3665 99.7893 16.346C99.0504 16.346 98.681 16.5515 98.5989 17.3323C98.4963 18.2776 98.291 19.1817 98.1063 20.3119C98.722 20.3119 99.1941 20.3119 99.6457 20.3119C102.376 20.3119 105.105 20.353 107.835 20.2913C109.128 20.2708 109.662 20.8667 109.662 22.0791C109.662 22.5517 109.662 23.0449 109.621 23.5175C109.313 26.2916 108.697 26.8669 105.947 26.8669C101.226 26.8669 96.4848 26.8669 91.764 26.8669C89.5678 26.8669 89.1368 26.3738 89.5268 24.2367C90.8404 16.9419 92.154 9.64709 93.4676 2.35228C93.6934 1.13991 94.3296 0.543988 95.5817 0.543988C100.959 0.564536 106.337 0.564535 111.714 0.523438C112.946 0.523438 113.397 1.11935 113.336 2.18789C113.295 3.09203 113.131 3.99618 112.925 4.87978C112.659 6.03051 111.92 6.60587 110.668 6.60587C107.671 6.56477 104.674 6.64697 101.698 6.56478C100.651 6.54423 100.2 6.89355 100.138 7.92099C100.118 8.6402 99.9535 9.40051 99.8099 10.3457Z" fill="#92A1AF"/>
<path d="M179.509 0.318106C182.527 0.338655 185.482 0.646889 188.294 1.79762C189.341 2.22914 189.587 2.94835 189.238 3.87305C188.828 5.00323 188.315 6.11286 187.76 7.20194C187.309 8.10609 186.549 8.18828 185.646 7.92115C184.148 7.46907 182.67 6.95536 181.131 6.70877C180.063 6.54438 178.894 6.66768 177.826 6.93481C177.375 7.0581 176.841 7.88005 176.821 8.41432C176.8 8.8253 177.436 9.38011 177.908 9.66779C178.442 9.99657 179.14 10.0788 179.756 10.2432C180.248 10.387 180.782 10.4486 181.274 10.5925C185.256 11.7227 187.022 13.4282 187.268 16.3667C187.617 20.5792 185.831 24.2985 182.403 25.7986C180.884 26.4561 179.14 26.9904 177.518 26.9493C174.296 26.8671 171.053 26.3945 167.851 25.9424C166.435 25.7369 166.004 24.8122 166.414 23.456C166.722 22.4286 167.153 21.4217 167.543 20.4148C167.913 19.4696 168.569 19.1202 169.596 19.2846C171.771 19.6545 173.968 19.9833 176.164 20.271C176.697 20.3326 177.436 20.3942 177.785 20.1066C178.421 19.6134 179.119 18.8736 179.242 18.1544C179.325 17.6818 178.524 16.7982 177.908 16.5516C176.697 16.0174 175.363 15.7091 174.05 15.442C170.437 14.6817 168.61 12.298 168.918 8.64035C169.349 3.46207 172.284 0.626339 177.498 0.338656C178.216 0.27701 178.853 0.318106 179.509 0.318106Z" fill="#92A1AF"/>
<path d="M48.333 6.5852C47.2247 6.5852 46.1984 6.42081 45.2748 6.64685C44.5974 6.81124 43.838 7.36605 43.4891 7.96197C41.7855 10.9621 41.1697 14.3115 40.8824 17.6815C40.7387 19.4282 41.806 20.4556 43.6328 20.3323C45.2132 20.2296 46.7936 19.8802 48.3741 19.572C49.3387 19.3871 50.406 18.8323 51.145 19.8186C52.1096 21.0721 52.7459 22.5516 52.4175 24.1749C52.3354 24.6065 51.6991 25.0791 51.2065 25.2435C49.4414 25.8188 47.6557 26.538 45.8289 26.6819C43.2223 26.9079 40.5335 26.9079 37.9268 26.5791C34.5812 26.1682 32.426 23.6818 32.4876 20.3118C32.5697 15.2773 33.5139 10.3662 35.9769 5.90709C37.5984 2.98917 40.2872 1.07813 43.5712 0.769899C47.1631 0.441119 50.8371 0.605509 54.4495 0.769899C56.3173 0.852094 56.7483 1.69459 56.3378 3.52343C55.8452 5.72215 55.25 7.90032 54.7369 10.099C54.47 11.2498 53.8337 11.8046 52.6228 11.7429C51.2886 11.6813 49.934 11.6607 48.5793 11.7018C47.5531 11.7224 47.2862 11.3114 47.512 10.3456C47.8404 9.15379 48.0662 7.92087 48.333 6.5852Z" fill="#92A1AF"/>
<path d="M7.9602 26.8051C7.2213 26.8051 6.48239 26.8256 5.74349 26.8051C4.30673 26.7229 3.83465 26.1475 4.10148 24.6885C4.51198 22.3871 5.04563 20.1062 5.41509 17.7842C5.53824 17.0649 5.47666 16.2225 5.25089 15.5238C3.97833 11.7839 2.62367 8.08514 1.31006 4.36582C1.16639 3.95484 1.00218 3.54387 0.879032 3.13289C0.263278 1.11912 0.714833 0.502655 2.8084 0.482106C3.97833 0.482106 5.14826 0.523202 6.31819 0.461556C7.59075 0.420458 8.32966 0.893079 8.65806 2.18765C9.19171 4.24253 9.84852 6.25631 10.5053 8.29063C10.6079 8.61941 10.8953 8.9071 11.1005 9.21533C11.3879 8.98929 11.7573 8.8249 11.9626 8.53722C13.6046 6.2974 15.2466 4.05759 16.8271 1.77668C17.4633 0.87253 18.2022 0.420458 19.3106 0.461556C21.0347 0.523202 22.7793 0.461553 24.5035 0.5232C24.9961 0.543748 25.776 0.749239 25.8992 1.07802C26.0634 1.46845 25.7965 2.1671 25.4887 2.57808C22.3073 6.79057 19.1464 11.0647 15.8008 15.1539C14.0972 17.2293 13.8714 19.7363 13.071 22.0994C12.7426 23.0446 12.4963 24.0104 12.291 24.9762C12.0037 26.2913 11.2853 26.9284 9.91009 26.8256C9.25328 26.7845 8.61701 26.8256 7.9602 26.8256C7.9602 26.8256 7.9602 26.8256 7.9602 26.8051Z" fill="#92A1AF"/>
<path d="M152.15 7.07872C150.241 7.07872 148.476 7.07872 146.71 7.07872C145.13 7.07872 144.863 6.74994 145.109 5.22933C145.13 5.10604 145.171 4.98274 145.192 4.85945C146.731 -0.339385 145.91 0.564759 150.733 0.523661C156.152 0.482564 161.591 0.503113 167.01 0.523661C168.693 0.523661 168.939 0.831893 168.549 2.47579C168.262 3.64707 167.913 4.81835 167.564 5.96908C167.318 6.79103 166.763 7.11981 165.901 7.09926C164.424 7.05817 162.946 7.14037 161.468 7.07872C160.524 7.03762 160.195 7.38695 160.011 8.27055C158.841 13.6954 157.609 19.1203 156.419 24.5452C155.947 26.7233 155.803 26.8672 153.607 26.8672C152.314 26.8672 151 26.9083 149.707 26.8466C148.434 26.8055 148.045 26.2507 148.311 24.9767C149.461 19.634 150.61 14.2913 151.76 8.94865C151.883 8.39384 151.985 7.83902 152.15 7.07872Z" fill="#92A1AF"/>
<path d="M65.5742 20.1473C68.612 20.1473 71.465 20.1473 74.3179 20.1473C75.9189 20.1473 76.2063 20.4966 75.9394 22.1199C75.2211 26.5585 74.8926 26.8462 70.4182 26.8462C66.6005 26.8462 62.7828 26.8462 58.9652 26.8462C56.5227 26.8462 56.0095 26.2708 56.5432 23.846C57.7542 18.339 59.0267 12.8525 60.2582 7.34539C60.6687 5.51655 61.0792 3.70825 61.4692 1.87941C61.6745 0.872526 62.2081 0.420456 63.2959 0.482102C64.6301 0.564297 65.9847 0.502652 67.3394 0.502652C69.4124 0.502652 69.6587 0.79033 69.2277 2.78356C68.0578 8.20843 66.8879 13.6333 65.7384 19.0582C65.6769 19.3459 65.6563 19.6541 65.5742 20.1473Z" fill="#92A1AF"/>
<path d="M81.8916 26.7433C81.2348 26.7433 80.5985 26.7433 79.9417 26.7433C78.1561 26.7228 77.5608 26.0241 77.9303 24.298C78.5871 21.2568 79.2849 18.2156 79.9623 15.1744C80.9269 10.8592 81.8711 6.54392 82.8358 2.22868C83.2258 0.482036 83.39 0.379291 85.1962 0.358742C86.4893 0.358742 87.8029 0.338193 89.0959 0.358742C90.6764 0.379291 91.0869 0.831365 90.7585 2.33142C89.7117 7.28367 88.6444 12.2359 87.5771 17.2087C87.0434 19.6746 86.5508 22.1199 85.9761 24.5652C85.463 26.7433 85.4219 26.7228 83.1847 26.7228C82.7537 26.7228 82.3227 26.7228 81.8916 26.7433Z" fill="#92A1AF"/>
<path d="M29.1421 13.6951C29.1011 15.4828 27.6438 16.9007 25.8786 16.8802C24.0724 16.8596 22.6151 15.3184 22.6767 13.4896C22.7383 11.7019 24.1956 10.3456 26.0223 10.4073C27.849 10.4689 29.1832 11.8663 29.1421 13.6951Z" fill="#92A1AF"/>
</svg>
