<svg width="182" height="147" viewBox="0 0 182 147" fill="none" xmlns="http://www.w3.org/2000/svg">
<path d="M82.7876 88.8248C79.8968 88.6925 77.1878 87.7664 74.5117 86.7907C70.1838 85.2196 66.1697 83.0035 62.5521 80.1425C61.2472 79.1171 59.8926 78.158 58.885 76.8184C59.0832 76.6696 59.2979 76.5373 59.4797 76.3719C65.4429 70.8813 71.3897 65.3908 77.3529 59.9168C84.2743 53.5498 91.2122 47.1827 98.1335 40.8157C98.3152 40.6503 98.6621 40.5511 98.4804 40.1211C97.6214 40.3195 96.7625 40.5015 95.92 40.7165C89.2464 42.3372 82.5894 44.0075 75.9158 45.562C71.6705 46.5377 67.8381 45.5124 64.8152 42.3537C58.4059 35.689 61.2967 24.7575 70.2003 22.2934C77.2869 20.3254 84.489 18.7378 91.6251 16.9848C96.3825 15.8106 101.156 14.6529 105.914 13.4953C110.077 12.4865 114.239 11.4942 118.402 10.502C119.641 11.1635 120.516 12.2384 121.491 13.1811C126.149 17.762 129.569 23.1699 131.848 29.2723C134.277 35.8047 135.185 42.5852 134.376 49.498C132.922 61.769 127.372 71.8901 117.791 79.729C114.784 82.1932 111.514 84.2935 107.83 85.6826C107.731 84.0454 107.88 82.4247 108.408 80.8702C110.589 74.4039 112.786 67.9376 114.966 61.4713C115.28 60.5618 115.544 59.6191 115.842 58.693C115.776 58.6599 115.726 58.6103 115.66 58.5772C104.691 68.6653 93.7395 78.7533 82.7876 88.8248Z" fill="#DBDDE0"/>
<path d="M118.369 10.485C114.206 11.4773 110.043 12.4695 105.881 13.4783C101.123 14.636 96.3495 15.7936 91.5921 16.9678C84.4394 18.7208 77.2538 20.3084 70.1672 22.2764C61.2636 24.7571 58.3728 35.6886 64.7821 42.3367C67.8051 45.4789 71.6374 46.5208 75.8827 45.5451C82.5728 44.0071 89.2299 42.3202 95.8869 40.6995C96.7459 40.4845 97.6049 40.3026 98.4473 40.1041C98.6456 40.5341 98.2822 40.6499 98.1004 40.7987C91.1791 47.1658 84.2412 53.5328 77.3199 59.8999C71.3566 65.3904 65.4098 70.8809 59.4466 76.3549C59.2649 76.5203 59.0501 76.6526 58.8519 76.8014C56.9027 75.2304 55.3664 73.2954 53.8963 71.3109C50.4273 66.6307 47.9495 61.4544 46.5454 55.7985C44.9101 49.2165 44.6953 42.6179 46.0499 35.9366C47.3714 29.4538 49.9648 23.5498 53.8632 18.2578C57.2991 13.5776 61.5279 9.70773 66.4836 6.64825C73.6197 2.23266 81.3835 0.0165998 89.7089 6.20202e-05C100.05 -0.0164757 109.35 3.27454 117.526 9.64158C117.857 9.88965 118.088 10.2039 118.369 10.485Z" fill="#929AAF"/>
<path d="M82.7875 88.8247C93.7395 78.7367 104.708 68.6652 115.66 58.5771C115.726 58.6102 115.775 58.6598 115.842 58.6929C115.544 59.619 115.28 60.5451 114.966 61.4713C112.786 67.9375 110.589 74.4038 108.408 80.8701C107.88 82.4411 107.714 84.0453 107.83 85.6825C104.972 87.0883 101.933 87.9813 98.8272 88.6097C96.1677 89.1555 93.4752 89.5028 90.7496 89.5358C88.0735 89.5689 85.3975 89.5358 82.7875 88.8247Z" fill="#929AAF"/>
<path d="M5.63977 128.304C4.90689 127.714 4.17401 127.232 3.54838 126.606C2.49375 125.551 1.9575 124.211 1.67149 122.763C1.27824 120.725 1.31399 118.705 1.90387 116.721C2.92275 113.271 5.85427 111.09 9.55442 111.019C11.0023 110.983 12.4502 111.037 13.8981 111.001C14.4164 110.983 14.5416 111.198 14.5416 111.68C14.5237 120.957 14.5416 130.235 14.5237 139.512C14.5237 139.691 14.5058 139.869 14.4879 140.084C13.5048 140.084 12.5396 140.084 11.5207 140.084C11.5028 139.78 11.4671 139.512 11.4671 139.226C11.4671 136.062 11.4492 132.898 11.4849 129.734C11.4849 129.126 11.3241 128.894 10.6805 128.912C8.39253 129.001 9.05391 128.501 8.10653 130.592C6.74802 133.577 5.42527 136.562 4.10251 139.565C3.90588 140.012 3.67351 140.173 3.19088 140.155C2.2435 140.12 1.31399 140.137 0.241486 140.137C2.08262 136.116 3.87013 132.201 5.63977 128.304ZM11.4671 126.302C11.4671 125.98 11.4671 125.694 11.4671 125.408C11.4671 122.066 11.4671 118.723 11.4671 115.38C11.4671 113.664 11.4671 113.647 9.76892 113.664C7.69541 113.682 6.22965 114.648 5.42527 116.542C4.65664 118.348 4.65664 120.242 4.92476 122.137C5.08564 123.21 5.46102 124.193 6.21177 124.997C7.64178 126.552 9.50079 126.374 11.4671 126.302Z" fill="#929AAF"/>
<path d="M31.5946 137.492C32.828 137.849 33.0246 136.991 33.2749 136.169C34.2044 133.22 34.5976 130.163 34.7049 127.088C34.7764 124.622 34.7227 122.173 34.7227 119.652C38.0296 119.652 41.1399 119.652 44.3396 119.652C44.3396 125.569 44.3396 131.486 44.3396 137.474C44.9116 137.51 45.4121 137.527 45.9662 137.563C45.9662 139.762 45.9662 141.925 45.9662 144.123C45.0367 144.123 44.1072 144.123 43.1419 144.123C43.1419 142.801 43.1419 141.514 43.1419 140.209C40.1925 140.209 37.3146 140.209 34.3474 140.209C34.3474 141.514 34.3474 142.801 34.3474 144.123C33.4 144.123 32.5241 144.123 31.5946 144.123C31.5946 141.943 31.5946 139.798 31.5946 137.492ZM35.9383 137.51C37.5828 137.51 39.2273 137.527 40.8718 137.492C40.9969 137.492 41.2293 137.134 41.2293 136.938C41.2472 132.219 41.2472 127.482 41.2472 122.763C41.2472 122.351 41.1399 122.137 40.6752 122.155C39.8708 122.191 39.0485 122.173 38.2263 122.155C37.7794 122.137 37.6543 122.316 37.6543 122.745C37.6543 123.799 37.6721 124.872 37.6006 125.927C37.4398 128.161 37.3146 130.395 37.0108 132.594C36.7963 134.221 36.3315 135.811 35.9383 137.51Z" fill="#929AAF"/>
<path d="M94.0679 138.475C95.0153 138.672 95.3906 138.028 95.7303 137.367C96.5883 135.74 96.91 133.953 97.1424 132.165C97.7501 127.464 97.8574 122.745 97.9289 118.026C97.9646 115.72 97.9289 113.414 97.9289 111.055C101.468 111.055 104.829 111.055 108.261 111.055C108.261 120.153 108.261 129.252 108.261 138.439C108.922 138.439 109.53 138.439 110.191 138.439C110.191 140.638 110.191 142.783 110.191 144.964C109.709 144.964 109.226 144.964 108.672 144.964C108.6 143.587 108.493 142.229 108.457 140.888C108.439 140.352 108.314 140.155 107.724 140.155C104.006 140.173 100.306 140.173 96.5883 140.155C96.0699 140.155 95.8733 140.298 95.8554 140.835C95.8375 142.014 95.7124 143.176 95.6945 144.356C95.6945 144.928 95.48 145.071 94.9795 145.017C94.6935 145 94.4075 145.017 94.0679 145.017C94.0679 142.783 94.0679 140.656 94.0679 138.475ZM99.77 112.717C99.77 114.594 99.8237 116.399 99.7522 118.205C99.5913 122.495 99.4304 126.785 99.1265 131.057C98.9478 133.542 98.6081 136.044 97.339 138.296C97.3211 138.314 97.3569 138.368 97.3748 138.439C100.271 138.439 103.184 138.439 106.116 138.439C106.116 129.841 106.116 121.297 106.116 112.717C104.042 112.717 102.022 112.717 99.77 112.717Z" fill="#929AAF"/>
<path d="M18.7066 119.616C19.7434 119.616 20.7444 119.616 21.8348 119.616C21.8348 121.064 21.8348 122.494 21.8348 123.906C21.8348 125.336 21.8348 126.749 21.8348 128.232C23.3899 128.232 24.9093 128.232 26.5359 128.232C26.5359 125.39 26.5359 122.53 26.5359 119.581C27.5548 119.581 28.4664 119.563 29.3781 119.599C29.4853 119.599 29.6283 119.813 29.6641 119.938C29.7177 120.081 29.6819 120.242 29.6819 120.403C29.6819 126.713 29.6819 133.023 29.6819 139.333C29.6819 139.583 29.6819 139.815 29.6819 140.101C28.6094 140.101 27.6263 140.101 26.5359 140.101C26.5359 139.815 26.5359 139.565 26.5359 139.297C26.5359 136.741 26.5181 134.185 26.5538 131.628C26.5538 131.056 26.3929 130.896 25.8209 130.913C24.516 130.949 23.2112 130.931 21.8348 130.931C21.8348 134.024 21.8348 137.045 21.8348 140.101C20.7623 140.101 19.7613 140.101 18.7066 140.101C18.7066 133.309 18.7066 126.498 18.7066 119.616Z" fill="#929AAF"/>
<path d="M59.1045 136.437C59.3011 137.099 59.5335 137.796 59.7122 138.493C59.748 138.636 59.6229 138.868 59.4977 138.975C55.7618 141.996 50.2563 140.441 48.6833 135.937C47.8611 133.577 47.7359 131.146 47.9683 128.697C48.1292 127.071 48.4509 125.444 48.8621 123.853C49.0766 122.995 49.5413 122.173 50.0597 121.44C52.3477 118.222 56.9595 118.669 58.6397 122.244C59.462 123.996 59.6944 125.873 59.7301 127.786C59.748 128.501 59.7122 129.234 59.748 129.949C59.7659 130.449 59.605 130.61 59.0866 130.61C56.7629 130.592 54.4212 130.592 52.0975 130.592C51.8472 130.592 51.6148 130.592 51.2752 130.592C51.2394 132.755 51.3109 134.811 52.6695 136.562C53.6705 137.849 55.0826 137.867 56.5126 137.474C57.3706 137.224 58.175 136.813 59.1045 136.437ZM56.459 127.929C56.5126 126.266 56.459 124.675 55.7976 123.174C55.1005 121.601 53.3666 121.44 52.4192 122.888C51.4182 124.407 51.4182 126.159 51.2752 127.929C53.027 127.929 54.6893 127.929 56.459 127.929Z" fill="#929AAF"/>
<path d="M66.3617 128.715C67.0409 127.428 67.7023 126.123 68.3816 124.836C69.2217 123.228 70.0439 121.619 70.902 120.028C71.0271 119.813 71.3667 119.617 71.617 119.599C72.475 119.545 73.333 119.581 74.3161 119.581C74.1552 119.903 74.0658 120.135 73.9407 120.368C72.475 123.138 71.0271 125.927 69.5434 128.697C69.3289 129.108 69.3289 129.412 69.5613 129.823C71.2773 133.005 72.9755 136.187 74.6915 139.387C74.7987 139.601 74.906 139.816 75.0669 140.155C73.9228 140.155 72.8682 140.173 71.8136 140.137C71.6706 140.137 71.474 139.869 71.3846 139.691C69.8294 136.777 68.2922 133.863 66.7371 130.95C66.6298 130.735 66.4868 130.538 66.2366 130.342C66.2366 133.577 66.2366 136.813 66.2366 140.102C65.1283 140.102 64.1094 140.102 63.0548 140.102C63.0548 133.273 63.0548 126.481 63.0548 119.635C64.0915 119.635 65.1104 119.635 66.1829 119.635C66.1829 122.656 66.1829 125.659 66.1829 128.662C66.2365 128.679 66.2902 128.697 66.3617 128.715Z" fill="#929AAF"/>
<path d="M131.123 138.851C131.123 141.425 131.123 143.909 131.123 146.448C130.48 146.448 129.89 146.448 129.229 146.448C129.229 137.546 129.229 128.626 129.229 119.653C129.711 119.653 130.23 119.653 130.837 119.653C130.909 120.618 130.963 121.619 131.034 122.692C131.535 121.994 131.946 121.333 132.446 120.743C133.93 119.027 136.254 118.652 137.916 119.903C138.524 120.368 139.06 120.993 139.471 121.655C140.401 123.138 140.794 124.819 140.955 126.535C141.241 129.591 141.205 132.63 140.293 135.597C139.918 136.795 139.4 137.903 138.524 138.851C136.593 140.942 133.501 141.067 131.427 139.119C131.374 139.047 131.284 138.976 131.123 138.851ZM131.106 130.7C131.106 132.469 131.106 134.221 131.106 135.991C131.106 136.205 131.106 136.455 131.195 136.652C131.803 137.868 132.696 138.726 134.109 138.922C135.592 139.137 136.808 138.69 137.576 137.367C137.916 136.795 138.22 136.169 138.416 135.526C139.346 132.344 139.4 129.109 138.917 125.873C138.702 124.461 138.363 123.085 137.415 121.941C136.7 121.065 135.789 120.672 134.645 120.976C133.036 121.405 131.088 123.961 131.088 125.623C131.106 127.321 131.106 129.002 131.106 130.7Z" fill="#929AAF"/>
<path d="M124.546 140.12C123.956 140.12 123.419 140.12 122.758 140.12C122.758 137.314 122.758 134.525 122.758 131.737C122.758 128.948 122.758 126.142 122.758 123.335C122.329 124.283 121.9 125.248 121.453 126.195C119.38 130.682 117.306 135.186 115.251 139.673C115.108 139.995 114.947 140.192 114.553 140.156C114.196 140.12 113.838 140.156 113.427 140.156C113.427 133.292 113.427 126.481 113.427 119.635C114.017 119.635 114.571 119.635 115.161 119.635C115.161 125.248 115.161 130.843 115.161 136.473C115.912 134.811 116.645 133.167 117.396 131.54C119.165 127.697 120.935 123.872 122.74 120.046C122.83 119.85 123.151 119.671 123.384 119.617C123.741 119.546 124.134 119.599 124.563 119.599C124.546 126.463 124.546 133.256 124.546 140.12Z" fill="#929AAF"/>
<path d="M86.114 123.263C85.399 122.888 84.8091 122.513 84.1656 122.244C82.4854 121.565 81.0196 122.066 80.0901 123.621C79.3572 124.819 79.0534 126.177 78.9282 127.553C78.7316 129.877 78.7495 132.201 79.3572 134.489C80.3761 138.439 83.2361 138.278 85.6493 136.831C85.7565 136.759 85.8638 136.688 86.0961 136.527C86.3285 137.277 86.5609 137.975 86.7397 138.69C86.7754 138.833 86.5609 139.083 86.4 139.208C84.1835 140.942 79.3751 141.174 77.1943 137.492C76.104 135.651 75.7107 133.631 75.5856 131.54C75.4247 128.948 75.532 126.392 76.4615 123.925C77.5518 121.065 79.5538 119.402 82.6641 119.295C83.9154 119.241 85.1488 119.492 86.2391 120.171C86.3821 120.26 86.5788 120.475 86.5609 120.618C86.4179 121.476 86.257 122.334 86.114 123.263Z" fill="#929AAF"/>
<path d="M154.236 136.652C154.468 137.206 154.665 137.599 154.79 138.028C154.826 138.171 154.719 138.422 154.593 138.547C152.359 141.192 146.889 141.711 144.887 137.063C144.083 135.204 143.815 133.238 143.725 131.254C143.6 128.483 143.743 125.73 144.851 123.138C145.191 122.334 145.656 121.548 146.21 120.886C148.355 118.33 151.93 118.67 153.628 121.53C154.576 123.138 154.862 124.908 154.969 126.731C155.022 127.679 154.933 128.626 154.933 129.573C154.933 130.092 154.683 130.199 154.218 130.199C151.59 130.181 148.963 130.217 146.353 130.181C145.745 130.181 145.513 130.36 145.62 130.95C145.906 132.594 145.995 134.292 146.496 135.865C147.801 139.923 151.608 139.298 153.503 137.51C153.735 137.278 153.932 137.01 154.236 136.652ZM145.638 128.698C148.069 128.698 150.375 128.698 152.663 128.68C152.806 128.68 153.074 128.447 153.092 128.304C153.163 126.32 153.128 124.318 152.18 122.495C151.09 120.386 148.856 120.153 147.425 122.048C145.995 123.996 145.763 126.284 145.638 128.698Z" fill="#929AAF"/>
<path d="M160.42 129.859C160.42 133.256 160.42 136.67 160.42 140.12C159.777 140.12 159.205 140.12 158.579 140.12C158.579 133.327 158.579 126.535 158.579 119.671C159.169 119.671 159.759 119.671 160.42 119.671C160.42 122.763 160.42 125.837 160.42 129.126C160.688 128.823 160.814 128.68 160.921 128.537C162.816 125.891 164.764 123.281 166.552 120.564C167.249 119.51 168.035 119.545 169.126 119.671C168.536 120.529 167.982 121.315 167.427 122.102C165.89 124.282 164.353 126.463 162.78 128.608C162.476 129.037 162.494 129.305 162.78 129.734C164.979 133.041 167.159 136.366 169.358 139.691C169.429 139.798 169.501 139.923 169.644 140.155C168.929 140.155 168.321 140.191 167.713 140.138C167.535 140.12 167.338 139.852 167.213 139.655C165.122 136.563 163.048 133.47 160.974 130.36C160.849 130.181 160.724 130.002 160.599 129.824C160.545 129.824 160.474 129.841 160.42 129.859Z" fill="#929AAF"/>
<path d="M175.114 121.172C173.773 121.172 172.558 121.172 171.342 121.172C170.323 121.172 170.323 121.172 170.341 120.135C170.341 119.974 170.377 119.831 170.395 119.635C174.167 119.635 177.902 119.635 181.62 119.635C181.656 119.706 181.71 119.742 181.71 119.778C181.835 121.172 181.817 121.172 180.423 121.172C179.547 121.172 178.653 121.208 177.777 121.154C177.17 121.118 177.009 121.315 177.009 121.905C177.027 127.661 177.027 133.434 177.027 139.19C177.027 139.476 177.027 139.762 177.027 140.102C176.365 140.102 175.757 140.102 175.096 140.102C175.114 133.828 175.114 127.553 175.114 121.172Z" fill="#929AAF"/>
</svg>
