<svg width="189" height="35" viewBox="0 0 189 35" fill="none" xmlns="http://www.w3.org/2000/svg">
<path d="M15.8476 1.20215C15.4782 2.35288 14.6777 4.92148 14.6777 4.92148C14.6777 4.92148 14.2262 4.90093 13.8362 4.90093C11.1884 4.90093 8.5407 4.94203 5.87243 4.88038C5.09248 4.85983 4.88723 4.92148 4.88723 4.92148V10.7162C4.88723 10.7162 5.15405 10.7368 5.89296 10.6957C7.69917 10.634 9.50538 10.6546 11.2705 11.1272C16.0529 12.4012 18.208 17.0863 16.0324 21.5454C14.6982 24.2784 12.1736 25.162 9.42328 25.5113C6.63186 25.8607 3.81992 25.6346 1.0285 25.6963C0.412751 25.7168 0.289599 25.7168 0.289599 25.7168V1.2227C0.289599 1.2227 0.24855 1.2227 0.884829 1.2227C5.85191 1.20215 10.7779 1.20215 15.8476 1.20215ZM4.90775 18.1343C4.90775 19.1618 4.90775 20.1892 4.90775 21.2372C4.90775 21.6276 4.90775 21.9769 5.46193 21.9564C6.93974 21.9358 8.41755 22.018 9.83378 21.566C11.4347 21.0523 12.2147 19.9015 12.2147 18.1343C12.2147 16.3466 11.4347 15.1959 9.81326 14.7027C8.3765 14.2506 6.89869 14.3123 5.42088 14.3123C4.8667 14.3123 4.88723 14.6821 4.88723 15.052C4.90775 16.0795 4.90775 17.1069 4.90775 18.1343Z" fill="#BBC6CD"/>
<path d="M55.8511 21.5458C55.8511 17.6415 55.8306 8.76446 55.8306 8.76446C55.8306 8.76446 56.0974 8.62061 56.9184 8.41513C59.9561 7.63427 63.0144 7.26439 66.0931 8.08634C70.3624 9.25762 72.7228 13.203 72.107 17.9908C71.3886 23.5596 66.832 26.8885 61.2903 25.8199C60.4898 25.6761 60.2845 25.4911 60.2845 25.4911C60.2845 25.4911 60.2845 31.1832 60.3256 33.4846C60.3461 34.1833 60.3256 34.4299 60.3256 34.4299H55.8511C55.8511 34.4299 55.8511 34.1833 55.8511 33.4846C55.8716 29.5187 55.8511 25.5322 55.8511 21.5458ZM60.305 16.6963C60.305 18.1758 60.305 21.7718 60.305 21.7718C60.305 21.7718 60.3872 21.8951 60.9413 22.0801C63.979 23.1075 66.8936 21.4636 67.4888 18.3402C68.3509 13.7989 65.7032 10.7782 61.3929 11.3536C60.6334 11.4563 60.2845 11.5591 60.2845 11.5591C60.2845 11.5591 60.305 15.3195 60.305 16.6963Z" fill="#BBC6CD"/>
<path d="M139.942 21.8125C141.523 21.8125 143.103 21.8331 144.704 21.792C145.32 21.7714 145.566 21.792 145.566 21.792L145.525 25.6346H128.428C128.428 25.6346 128.448 25.4908 128.551 24.7099C129.085 20.3741 131.178 16.9425 134.565 14.2917C135.878 13.2642 137.212 12.319 138.506 11.271C139.019 10.86 139.491 10.3669 139.86 9.8326C141.318 7.71608 140.394 5.35298 137.89 4.85981C135.673 4.42828 133.559 5.0242 131.568 5.94889C130.685 6.33932 130.603 6.25712 130.603 6.25712L129.269 2.82548C129.269 2.82548 129.208 2.82548 131.301 2.08573C134.277 1.05829 137.295 0.544567 140.414 1.34597C144.704 2.4556 146.551 6.72975 144.458 10.634C143.637 12.1546 142.364 13.2848 141.03 14.3533C139.593 15.5041 138.054 16.5315 136.74 17.8261C135.837 18.7097 135.078 19.6755 134.565 20.8467C134.277 21.5248 134.113 21.8125 134.113 21.8125C134.113 21.8125 138.362 21.8125 139.942 21.8125Z" fill="#92A1AF"/>
<path d="M161.33 8.55885C161.33 10.737 161.309 16.0591 161.309 16.0591L164.963 16.0386L164.942 19.6963L161.309 19.6757C161.309 19.6757 161.309 19.6757 161.309 22.121C161.309 23.0457 161.309 25.5938 161.309 25.5938H156.917L156.896 19.6757C156.896 19.6757 156.876 19.6757 154.351 19.6757C151.847 19.6757 145.977 19.6963 145.977 19.6963V16.1824C145.977 16.1824 153.653 6.8533 156.773 2.59971C157.697 1.36678 157.861 1.0791 157.861 1.0791L161.309 1.09965C161.35 1.09965 161.33 6.42178 161.33 8.55885ZM152.75 13.7166C152.196 14.4152 151.683 15.155 151.047 16.018C152.976 16.018 154.7 16.018 156.404 16.018C156.773 16.018 156.917 15.9975 156.917 15.9975L156.958 8.12732C156.958 8.14787 154.166 11.9083 152.75 13.7166Z" fill="#92A1AF"/>
<path d="M79.0852 19.4285C81.4661 15.6475 83.9497 12.2775 86.3101 8.80481C86.6795 8.24999 86.8232 8.04451 86.8232 8.04451H91.1745C91.1745 8.04451 91.1745 8.20889 91.1745 8.80481C91.154 14.1475 91.154 19.4902 91.1745 24.8328C91.1745 25.4699 91.1745 25.6342 91.1745 25.6342H86.7616C86.7616 25.6342 86.7822 25.3466 86.7822 24.6685C86.8232 21.5039 86.8437 14.3735 86.8437 14.3735C85.5507 16.264 84.1549 18.2572 82.8619 20.1272C81.7535 21.73 80.6041 23.3122 79.5368 24.9561C79.2084 25.4493 79.0852 25.6342 79.0852 25.6342H74.7134C74.7134 25.6342 74.7134 25.511 74.7134 24.8945C74.7339 19.5107 74.7134 8.04451 74.7134 8.04451L79.0647 8.02396C79.0647 8.02396 79.0852 7.75682 79.0852 11.3734C79.0852 14.0036 79.0852 16.5722 79.0852 19.4285Z" fill="#BBC6CD"/>
<path d="M31.7953 14.374C31.7953 14.374 28.9629 18.5454 27.5261 20.6208C26.5204 22.0798 25.4941 23.5182 24.5089 24.9771C24.1805 25.4703 24.0779 25.6552 24.0779 25.6552H19.7266C19.7266 25.6552 19.7266 25.4292 19.7266 24.6689C19.7676 20.2509 19.7471 15.8329 19.7471 11.3944C19.7471 10.5108 19.7471 8.06551 19.7471 8.06551L24.1189 8.02441C24.1189 8.02441 24.0984 10.3259 24.1189 11.415C24.16 13.9836 24.1395 16.5727 24.1395 19.1824L31.8569 8.12716H36.1672C36.1672 8.12716 36.1672 8.2299 36.1672 8.80526C36.1467 14.1479 36.1467 19.4906 36.1672 24.8333C36.1672 25.4703 36.1672 25.6347 36.1672 25.6347H31.7748L31.7953 24.7306V14.374Z" fill="#BBC6CD"/>
<path d="M105.009 16.7777C106.117 17.2914 106.651 18.2367 107.123 19.2436C108.005 21.1135 108.867 22.9834 109.791 24.8123C110.14 25.5109 110.222 25.6548 110.222 25.6548H105.316C105.316 25.6548 105.214 25.4082 105.009 24.8534C104.393 23.23 103.757 21.6272 103.1 20.0244C102.484 18.5449 101.15 18.1956 99.4052 18.2161C99.0768 18.2367 98.9742 18.2161 98.9742 18.2161L99.0152 25.5726H94.6023C94.6023 25.5726 94.5818 23.2506 94.5818 22.1615C94.5818 17.764 94.5818 8.02393 94.5818 8.02393H98.9331L98.9742 14.9283C98.9742 14.9283 99.3026 14.9489 99.8157 14.9283C101.191 14.9078 102.135 14.8667 102.587 13.8803C103.161 12.6885 103.551 11.4145 104.064 10.2021C104.947 8.16777 106.466 7.79789 108.683 7.79789C109.586 7.79789 109.668 7.77734 109.668 7.77734V11.5583C109.668 11.5583 109.421 11.5789 108.457 11.5789C107.554 11.62 107.246 12.2981 106.979 12.9967C106.733 13.6543 106.486 14.3118 106.24 14.9694C105.973 15.6475 105.542 16.2023 105.009 16.7777Z" fill="#BBC6CD"/>
<path d="M125.144 12.5446C123.727 11.7021 122.393 11.2501 120.915 11.2501C119.663 11.2706 118.514 11.5583 117.549 12.4008C115.64 14.0447 115.127 17.6613 116.42 20.0655C117.549 22.1204 119.992 22.9218 122.701 22.1204C122.763 22.0998 122.845 22.0793 122.906 22.0382C123.707 21.6888 124.651 21.2779 124.651 21.2779L126.047 24.278C126.047 24.278 125.759 24.4835 125.513 24.6273C122.024 26.8671 116.236 26.3123 113.506 23.456C110.653 20.4765 110.345 15.0105 112.828 11.4555C115.271 7.96226 120.279 6.60604 124.302 8.33213C124.938 8.59927 125.164 8.72256 125.164 8.72256C125.164 8.72256 125.144 11.4555 125.144 12.5446Z" fill="#BBC6CD"/>
<path d="M46.3481 8.06547C48.7085 8.06547 51.0688 8.08602 53.4292 8.04492C54.086 8.04492 54.3118 8.04492 54.3118 8.04492L52.9571 11.7848H48.0106C48.0106 11.7848 47.9901 21.1139 48.0311 24.6072C48.0516 25.4497 48.0311 25.6552 48.0311 25.6552H43.4951C43.4951 25.6552 43.4951 25.4086 43.4951 24.6894C43.5156 20.7852 43.4745 16.8809 43.5361 12.9766C43.5566 11.9903 43.5566 11.7642 43.5566 11.7642L38.1585 11.8053C38.1585 11.8053 38.1791 11.641 38.1585 10.9012C38.138 8.06547 38.1585 8.06547 38.1585 8.06547C38.1585 8.06547 44.5419 8.06547 46.3481 8.06547Z" fill="#BBC6CD"/>
<path d="M169.991 10.9425C170.011 5.72311 174.198 1.59281 179.473 1.61336C184.687 1.63391 188.853 5.82585 188.853 11.0658C188.853 16.3263 184.605 20.4977 179.309 20.4566C174.096 20.4155 169.991 16.2235 169.991 10.9425ZM179.432 3.36C175.101 3.36 171.715 6.75055 171.715 11.0658C171.735 15.3194 175.122 18.7099 179.371 18.7305C183.66 18.751 187.109 15.2783 187.088 11.0041C187.088 6.75055 183.702 3.36 179.432 3.36Z" fill="#92A1AF"/>
<path d="M178.776 12.2982L178.796 6.25684C178.796 6.25684 178.776 6.25684 179.474 6.25684C180.172 6.25684 180.11 6.25684 180.11 6.25684L180.089 10.9831L184.851 10.942V12.2776L178.776 12.2982Z" fill="#92A1AF"/>
</svg>
