<svg width="200" height="39" viewBox="0 0 200 39" fill="none" xmlns="http://www.w3.org/2000/svg">
<path d="M5.32179 38.7943C5.32179 38.7943 6.58878 36.0639 7.16858 34.817C8.65031 31.6781 10.0676 28.4963 11.6352 25.4004C12.0218 24.648 12.2795 24.1535 13.8256 23.6375C12.258 21.3801 10.2394 18.9292 10.2394 18.9292C10.2394 18.9292 2.72341 13.4255 0.167969 11.5766C1.95033 9.96416 3.5609 8.50223 5.21442 7.0188C7.46922 4.99789 9.68107 2.93399 11.9788 0.956081C12.4513 0.5476 13.1814 0.225117 13.8041 0.225117C33.088 0.182119 52.3719 0.203616 71.6343 0.203616C71.9779 0.203616 72.343 0.24662 73.0731 0.289617C72.4933 0.848591 72.1497 1.19257 71.7632 1.53656C66.2872 6.28783 60.8328 11.0391 55.3354 15.7474C54.4979 16.4569 54.2187 16.7363 54.2187 16.7363C54.2187 16.7363 54.2187 27.7653 54.2617 32.5166C54.2617 33.5056 54.2617 33.7206 54.2617 33.7206C54.2617 33.7206 51.2982 33.742 50.3104 33.742C50.3104 30.0872 50.3104 26.4109 50.3104 22.9281C49.6232 24.1965 45.9726 30.1732 45.9726 30.1732H42.4723C42.4723 30.1732 39.5088 24.906 38.2848 23.0785C38.2848 26.5614 38.2848 30.0442 38.2848 33.742C37.1896 33.742 34.1617 33.7635 34.1617 33.7635L28.3637 38.7943C28.3637 38.7943 28.2348 38.7943 27.698 38.7943C20.6115 38.8373 13.525 38.8158 6.45993 38.8158C6.13782 38.7943 5.32179 38.7943 5.32179 38.7943ZM0.983992 11.4906C1.37053 11.8131 1.64969 12.0496 1.92886 12.2646C4.46282 14.135 7.06121 15.9409 9.55222 17.8543C10.3468 18.4563 11.0339 18.4778 11.9144 18.2198C30.9621 12.5655 50.0312 6.9543 69.1004 1.32157C69.5513 1.19257 69.9593 1.02058 70.4103 0.848586C70.1956 0.655095 70.0238 0.633596 69.8734 0.633596C51.2123 0.633596 32.5297 0.633597 13.8686 0.655096C13.3532 0.655096 12.7519 0.934587 12.3654 1.25707C10.54 2.8265 8.75768 4.46042 6.95384 6.07284C4.97821 7.87876 3.02405 9.66317 0.983992 11.4906ZM34.1832 16.0699C33.8396 16.1774 33.6893 16.1989 33.539 16.2634C26.7531 18.9937 19.9672 21.7026 13.1814 24.4545C12.7519 24.6265 12.3224 25.0995 12.1077 25.5294C10.9481 27.9158 9.87434 30.3452 8.75768 32.7746C8.6503 33.0111 8.45704 33.5701 8.45704 33.5701C8.45704 33.5701 25.6579 33.5701 34.1617 33.5701C34.1832 27.7008 34.1832 21.9606 34.1832 16.0699ZM70.9686 1.55806C70.9257 1.47206 70.8827 1.38606 70.8183 1.32157C58.9216 6.07284 35.1281 15.6184 35.1281 15.6184L38.6284 15.5754L44.1687 24.82C44.1473 24.8415 62.0783 9.27619 70.9686 1.55806ZM65.4068 3.06299C70.3674 1.23557 68.2414 1.88054 65.278 2.805C47.2181 8.13675 29.1582 13.4685 10.8836 18.8647C11.9144 20.2192 12.8807 21.3801 13.7397 22.6271C14.2551 23.3795 14.749 23.401 15.565 23.0785C29.2871 17.5533 43.0306 12.0496 56.7741 6.54582C59.6517 5.40637 62.5292 4.22393 65.4068 3.06299Z" fill="#92A1AF"/>
<path d="M112.092 30.6892L112.135 34.172C112.135 34.172 107.496 34.473 106.552 33.5485C106.122 33.1186 105.929 32.7101 105.843 31.9576C104.748 32.5596 103.631 33.4196 102.364 33.8065C96.9311 35.4835 92.5074 32.3231 92.1208 26.6044C91.6699 20.0687 95.6211 15.7904 102.149 15.6829C104.383 15.6399 106.573 15.6829 108.828 15.7689C109.665 15.7904 109.923 15.7904 109.923 15.7904C109.923 15.7904 109.902 24.476 109.902 28.1523C109.923 30.3022 109.73 30.7107 112.092 30.6892ZM105.8 22.9495C105.843 22.9495 105.714 20.6062 105.628 19.4237C104.125 19.3592 100.603 19.4022 100.41 19.4452C98.3913 19.9182 97.1673 21.0146 96.6734 23.0355C96.1365 25.2499 96.0291 27.4858 97.6612 29.3132C98.9067 30.7107 100.625 30.9042 102.3 30.2592C104.318 29.4852 105.585 28.0018 105.778 25.7659C105.864 24.8415 105.8 23.8955 105.8 22.9495Z" fill="#92A1AF"/>
<path d="M178.469 30.6673C178.383 31.8497 178.318 32.9461 178.233 34.0426C176.493 34.1716 174.689 34.5586 173.122 33.4621C172.649 33.1396 172.435 32.4087 172.069 31.7852C170.48 33.4406 168.419 34.2146 166.035 34.2146C162.062 34.2146 159.249 31.8067 158.67 27.8939C158.176 24.583 158.433 21.4227 160.774 18.7783C162.599 16.7144 164.983 15.7899 167.624 15.6825C170.115 15.575 176.257 15.8329 176.257 15.8329C176.257 15.8329 176.257 16.3059 176.235 17.1874C176.193 20.8207 176.214 24.4755 176.214 28.1089C176.214 30.2588 176.343 30.4093 178.469 30.6673ZM172.112 19.3158C170.931 19.2298 169.922 19.1008 168.913 19.1008C165.069 19.1223 162.9 21.1862 162.664 25.013C162.47 27.9799 163.995 30.2373 166.379 30.5383C169.063 30.8607 171.876 28.7968 172.091 26.1095C172.263 23.9381 172.112 21.7237 172.112 19.3158Z" fill="#92A1AF"/>
<path d="M62.1424 26.5188C62.6363 28.8837 64.0751 30.3456 66.3729 30.5176C68.2841 30.6681 70.1953 30.4961 72.128 30.4531C72.6004 30.4316 73.0943 30.3456 73.803 30.2596C73.803 31.2271 73.76 33.3555 73.76 33.3555C73.76 33.3555 73.352 33.5705 73.0514 33.6565C69.9376 34.4304 66.8238 34.5379 63.7315 33.5705C60.6392 32.603 58.8784 30.4316 58.1482 27.3143C57.1819 23.1865 58.5777 18.9942 61.8203 16.8658C64.7623 14.9309 67.9834 14.9309 71.0757 16.4143C74.0177 17.8332 75.027 20.4776 74.9841 23.6379C74.9841 24.2399 74.7693 26.4758 74.7693 26.4758C74.7693 26.4758 72.4716 26.5188 72.085 26.5188C68.778 26.5188 65.5139 26.5188 62.1424 26.5188ZM70.7107 22.9715C70.7321 20.3271 69.2719 18.8437 66.8024 18.8437C64.1825 18.8437 62.3572 20.5421 62.3357 22.9715C65.1059 22.9715 67.8761 22.9715 70.7107 22.9715Z" fill="#92A1AF"/>
<path d="M116.301 15.919C117.117 15.919 117.847 15.919 118.577 15.919C123.087 15.919 127.575 15.9405 132.084 15.8975C132.965 15.8975 133.287 15.919 133.287 15.919C133.287 15.919 133.244 27.3779 133.287 32.5377C133.287 33.4406 133.287 33.7201 133.287 33.7201C133.287 33.7201 130.238 33.6986 129.121 33.6986C129.121 28.9689 129.121 24.3466 129.121 19.6383C126.115 19.6383 123.323 19.6383 120.381 19.6383C120.381 24.2821 120.381 28.8829 120.381 33.5911C118.985 33.5911 117.697 33.5911 116.301 33.5911C116.301 27.7864 116.301 21.9602 116.301 15.919Z" fill="#92A1AF"/>
<path d="M150.81 19.6177C148.555 19.6177 143.874 19.6607 143.874 19.6607C143.874 19.6607 143.831 20.2841 143.809 20.6281C143.659 22.907 143.595 25.2074 143.509 27.4863C143.487 27.8518 143.487 28.2173 143.444 28.5828C142.951 33.0545 141.426 33.7425 136.358 33.764C136.358 32.7106 136.358 31.3991 136.358 30.3242C139.107 30.2167 139.278 29.7867 139.429 27.1638C139.601 23.939 139.643 20.7141 139.729 17.4678C139.751 17.0163 139.729 16.5863 139.729 16.0273C144.776 16.0273 149.736 16.0273 154.761 16.0273C154.761 21.8966 154.761 27.7228 154.761 33.635C153.451 33.635 152.206 33.635 150.81 33.635C150.81 29.0127 150.81 24.412 150.81 19.6177Z" fill="#92A1AF"/>
<path d="M199.32 33.6565C197.967 33.6565 196.722 33.6565 195.326 33.6565C195.326 31.2701 195.326 28.9697 195.326 26.5618C192.427 26.5618 189.657 26.5618 186.736 26.5618C186.736 28.8837 186.736 31.2271 186.736 33.6565C185.319 33.6565 184.073 33.6565 182.742 33.6565C182.742 27.7873 182.742 21.9611 182.742 16.0273C183.987 16.0273 185.233 16.0273 186.629 16.0273C186.629 18.1987 186.629 20.3916 186.629 22.6705C189.571 22.6705 192.362 22.6705 195.261 22.6705C195.261 20.4776 195.261 18.3062 195.261 16.0488C196.657 16.0488 197.924 16.0488 199.32 16.0488C199.32 21.8751 199.32 27.7013 199.32 33.6565Z" fill="#92A1AF"/>
<path d="M78.7422 33.7201C78.7422 33.7201 78.7637 32.9246 78.7637 32.6022C78.7637 27.4424 78.7851 22.2826 78.7422 17.1444C78.7422 16.2844 78.7422 15.9834 78.7422 15.9834C78.7422 15.9834 86.3441 15.9619 89.5867 15.9189C90.4027 15.9189 90.7463 15.9404 90.7463 15.9404C90.7463 15.9404 90.7248 18.6278 90.7248 19.5953C88.0835 19.5953 85.571 19.5953 82.9082 19.5953C82.9082 20.3692 82.9082 20.9712 82.9082 21.5732C82.9082 25.2495 82.8867 28.9473 82.9297 32.6237C82.9297 33.4836 82.9297 33.7416 82.9297 33.7416L78.7422 33.7201Z" fill="#92A1AF"/>
</svg>
