<svg width="198" height="39" viewBox="0 0 198 39" fill="none" xmlns="http://www.w3.org/2000/svg">
<path d="M85.0262 28.1373C84.8295 21.8029 85.9901 15.7833 89.3147 10.3144C91.9114 6.0259 95.3934 2.74065 100.272 1.12754C102.003 0.557051 103.793 0.576725 105.525 0.871807C108.259 1.32426 109.085 3.4882 108.967 6.20295C108.947 6.61606 108.711 7.0095 108.987 7.56032C110.364 5.27836 112.37 3.82262 114.593 2.62262C118.174 0.694757 122.029 0.498037 125.964 0.871807C128.816 1.14722 131.511 1.99312 133.774 3.84229C134.403 4.35377 134.679 3.82262 135.033 3.48819C137.413 1.30459 140.206 0.458694 143.393 0.98984C145.616 1.36361 146.974 2.81934 147.308 5.10131C147.406 5.71114 147.485 6.34065 147.623 7.16688C148.311 6.18327 148.862 5.3177 149.511 4.51114C151.734 1.69803 154.606 0.399673 158.206 0.812787C161.472 1.18656 163.38 3.29147 163.872 7.04884C164.01 8.03245 164.147 9.03573 164.088 10.3341C165.446 8.68163 166.764 7.5013 168.456 6.75376C170.108 6.02589 171.839 5.96688 173.551 6.36032C176.147 6.95048 177.662 9.15376 177.839 12.1439C178.056 15.8423 177.406 19.4029 176.521 22.9636C176.01 25.0095 175.498 27.075 175.105 29.1603C174.908 30.2029 174.495 31.5209 175.734 32.1308C176.797 32.6619 177.603 31.6586 178.37 31.0488C179.964 29.7504 181.38 28.275 182.816 26.839C183.741 25.9144 184.213 26.0914 184.528 27.3701C185 29.298 184.154 30.8718 183.111 32.3078C180.672 35.6914 177.446 37.875 173.216 38.1701C170.206 38.3668 168.298 36.439 168.121 33.6652C167.944 30.7537 169.006 28.098 169.715 25.3832C170.482 22.3931 171.387 19.4226 171.819 16.3537C171.977 15.2324 172.213 13.8947 171.052 13.2652C169.852 12.616 168.81 13.4619 167.924 14.3078C165.328 16.7865 163.774 19.8947 162.436 23.1603C161.413 25.6586 160.921 28.2554 160.606 30.9111C160.488 31.8357 160.764 32.7013 160.882 33.6062C161.157 35.8291 159.524 38.1504 157.321 38.5439C154.724 38.9963 153.642 38.0717 153.544 35.2193C153.485 33.4488 153.938 31.7177 154.37 30.0062C155.57 25.4226 157.046 20.898 157.872 16.216C158.206 14.3472 158.364 12.4783 158.246 10.5898C158.069 7.77671 156.101 6.77343 153.682 8.30786C151.872 9.44884 150.633 11.1406 149.669 13.0095C147.426 17.3373 146.088 21.9603 145.203 26.7209C144.869 28.5111 145.695 30.1832 145.833 31.934C145.911 32.7996 145.99 33.6652 145.931 34.5111C145.715 36.9111 143.885 38.1308 141.111 38.5439C138.908 38.8586 138.357 38.3275 137.924 36.1242C137.767 35.298 137.472 35.6521 137.079 35.8881C135.288 37.0488 133.4 37.9537 131.216 38.1898C128.679 38.4652 126.593 37.1078 125.826 34.6685C124.862 31.5209 124.862 28.2357 124.233 25.0488C124.154 24.6357 124.036 24.2029 123.997 23.7701C123.918 23.0423 123.682 22.4914 122.856 22.3931C122.698 22.3734 122.561 22.275 122.423 22.216C121.105 21.5669 120.298 20.3669 120.534 19.3832C120.79 18.3013 121.833 17.6324 123.406 17.6128C124.233 17.5931 125.059 17.4947 125.826 17.9472C126.2 18.1636 126.475 18.0062 126.77 17.7505C129.249 15.7636 130.075 11.1406 128.521 8.38654C127.833 7.16687 126.77 6.39967 125.531 6.08491C122.423 5.25868 119.315 5.51442 116.265 6.45868C114.534 7.0095 112.961 7.91441 111.328 8.68162C109.97 9.3308 109.361 9.21277 108.77 8.32753C108.495 8.89802 108.259 9.44884 107.944 9.97998C106.843 11.8488 105.328 12.1046 103.636 10.7472C101.059 8.66195 98.5606 8.99638 96.6721 11.7308C93.8786 15.8029 92.7377 20.3865 93.1114 25.2455C93.3082 27.7832 94.7442 29.9275 97.3016 30.9504C99.8393 31.9537 102.2 31.1668 104.108 29.534C107.059 27.0357 109.577 24.0849 111.721 20.898C112.902 19.1472 113.295 16.9046 114.102 14.898C114.711 13.4029 115.439 11.9669 116.364 10.6488C116.875 9.92097 117.525 9.35048 118.272 8.93737C119.61 8.18983 120.377 8.62261 120.397 10.157C120.456 12.9701 119.865 15.6849 119.177 18.3996C118.705 20.2685 118.252 22.1177 117.761 23.9865C117.446 25.1668 117.288 26.3668 117.308 27.5865C117.347 29.5931 117.229 31.5996 117.328 33.6062C117.544 37.3635 113.354 38.9767 110.875 38.6029C110.266 38.5045 110.01 38.0127 109.774 37.4816C109.282 36.3799 109.321 35.1996 109.282 33.8029C107.846 34.9832 106.567 36.0258 105.111 36.7537C100.39 39.075 95.5901 39.6062 90.7311 37.2258C88.7246 36.2422 87.3278 34.6095 86.1869 32.7209C85.6557 31.1472 85.2623 29.6718 85.0262 28.1373ZM141.229 9.74392C141.229 8.79966 141.21 7.8554 140.738 6.98983C140.285 6.1636 139.597 5.78983 138.672 6.06524C137.452 6.43901 136.488 7.52097 136.646 8.32753C136.98 10.1177 136.961 11.9275 136.567 13.698C135.741 17.3964 133.243 19.7373 130.016 21.3701C129.288 21.7439 129.092 21.9996 129.406 22.7472C130.036 24.2816 130.429 25.875 130.803 27.4882C131.098 28.7865 131.511 30.0652 132.121 31.2455C132.751 32.4652 133.439 32.6619 134.62 31.9931C135.583 31.4422 136.37 30.675 137.157 29.9078C137.747 29.357 138.102 28.7472 138.239 27.9209C138.79 24.3603 139.4 20.8193 140.01 17.2587C140.443 14.7603 141.033 12.2816 141.229 9.74392Z" fill="#92A1AF"/>
<path d="M85.0265 28.1378C85.2823 29.6526 85.656 31.1476 86.1675 32.6034C85.0265 33.2132 83.8265 33.4296 82.5478 33.1739C81.1905 32.9181 80.0691 33.0558 78.9478 34.1771C76.3118 36.7935 73.0265 37.7968 69.2692 37.4034C66.8888 37.1476 64.7446 36.5575 62.9151 34.9837C62.4626 34.5902 62.0692 34.7083 61.6561 35.0624C60.0626 36.3804 58.1938 37.0099 56.1676 37.2853C54.7118 37.482 53.3938 36.8132 52.7249 35.3771C51.6626 33.1542 51.82 30.7935 52.0561 28.4329C52.2725 26.328 53.02 24.3017 52.902 22.1575C52.8626 21.5476 52.9217 20.8788 52.2331 20.6821C51.5249 20.4657 50.7577 20.3673 50.0889 20.8788C47.3348 22.9444 45.5643 28.2558 46.5479 31.5804C46.6069 31.7771 46.6659 31.9542 46.7053 32.1509C47.4135 34.964 47.2364 35.4361 44.6987 36.8525C43.8331 37.3443 42.9282 37.8361 41.8463 37.8558C40.784 37.8755 40.2135 37.3443 39.9381 36.4394C39.3676 34.5706 39.3479 32.6427 39.4659 30.7148C39.702 27.2329 40.0955 23.7706 40.1348 20.2886C40.1348 19.6198 39.8987 19.128 39.3282 18.8329C38.7774 18.5378 38.2659 18.7739 37.8135 19.128C35.866 20.6231 34.9217 22.8067 33.9578 24.9509C32.9348 27.2132 33.0725 29.5345 33.8004 31.8362C33.8397 31.9542 33.8791 32.0525 33.9184 32.1706C34.6069 34.787 34.2332 35.6722 31.7938 36.8722C30.9283 37.305 30.0627 37.7575 29.0397 37.8361C27.9971 37.9148 27.3283 37.5017 27.1512 36.4984C26.9348 35.3378 26.4233 35.3575 25.5381 35.8886C24.4955 36.5181 23.3545 36.8919 22.1348 37.1476C19.5184 37.7181 18.5545 36.4394 17.807 34.7476C17.1381 33.2132 17.0791 33.1542 16.0168 34.4132C13.184 37.7771 7.53814 38.3673 4.35126 36.5771C2.04962 35.2788 0.751263 33.2722 0.652903 30.5575C0.456182 25.4427 1.89225 20.9575 5.55125 17.2788C8.18732 14.6427 11.4135 13.4034 15.0922 13.3444C16.0168 13.3247 16.9611 13.5018 17.8463 13.8559C18.2201 14.0132 18.5742 14.0919 18.9283 13.7575C20.1873 12.5968 21.407 12.5182 22.725 13.5608C23.1578 13.8952 23.5709 14.269 23.9643 14.6624C25.4594 16.2165 25.4988 17.2198 23.925 19.7575C23.1381 21.0165 22.8627 22.3345 22.843 23.7706C22.843 25.5804 22.843 27.3903 22.8234 29.2001C22.8234 29.7116 22.902 30.223 23.0791 30.6952C23.3742 31.4624 23.866 31.6198 24.5545 31.187C25.8529 30.3607 26.6988 29.4755 26.7184 27.646C26.7381 22.846 27.7414 18.2624 30.3381 14.0723C31.9709 11.4559 33.584 12.1837 35.0004 14.0329C35.4528 14.6231 35.6299 15.6854 36.161 15.8624C36.7905 16.0591 37.2233 14.9968 37.8135 14.5837C40.6463 12.5968 43.8725 12.9509 46.2332 15.469C47.0004 16.2952 47.2168 17.2788 47.2954 18.4788C47.9643 17.9083 48.5151 17.4362 49.0659 16.9837C51.5249 14.9182 55.7151 14.446 58.0167 15.9608C59.6298 17.0231 60.2003 18.6755 60.102 20.446C59.9643 23.3378 59.3741 26.1903 58.4692 28.964C58.3512 29.3378 58.2528 29.7312 58.2921 30.105C58.3315 30.5575 57.8594 31.3247 58.7643 31.4034C59.5315 31.4821 60.279 30.6165 60.1413 29.8689C59.6692 27.2526 59.9839 24.7149 60.8692 22.2362C64.0167 13.4624 73.2233 11.6329 79.1249 14.5247C79.8921 14.8985 81.1118 15.2723 80.8364 16.3345C80.5806 17.2788 79.4003 17.0624 78.5741 17.0624C76.3118 17.0624 74.0888 17.2198 72.102 18.4198C69.4856 19.9935 67.9511 22.2755 67.4987 25.305C67.1839 27.3706 67.361 29.2591 68.8954 30.8525C70.4692 32.4657 73.4003 32.4657 75.4069 31.5214C76.2331 31.128 75.5642 30.8132 75.2495 30.5181C72.9675 28.3935 72.0823 24.9116 73.1839 21.9804C74.5806 18.2427 78.7314 17.0821 81.8396 18.5772C83.3347 19.305 83.8462 20.7608 84.0232 22.2755C84.22 23.987 84.0823 25.7181 83.4724 27.3903C83.0986 28.3935 83.2364 28.5509 84.2593 28.3739C84.4954 28.2952 84.7511 28.2165 85.0265 28.1378ZM7.97092 28.0985C7.97092 28.3345 7.97092 28.5706 7.97092 28.8067C7.99059 31.5411 9.83977 32.8001 12.3775 31.8165C14.8168 30.8722 16.9414 27.823 16.9414 25.2067C16.9414 23.0821 17.0004 20.9968 17.3939 18.8919C17.807 16.728 17.7283 16.7083 15.5644 17.5149C10.9021 19.2854 7.97092 23.3968 7.97092 28.0985ZM80.4626 24.105C80.4626 23.7313 80.4823 23.3772 80.4626 23.0231C80.4429 22.4919 80.1675 22.1181 79.6364 22.0395C79.0265 21.9411 78.7511 22.3935 78.6724 22.8657C78.456 24.105 78.397 25.364 79.2036 26.4657C79.4987 26.8788 79.7937 27.1345 80.0495 26.387C80.3249 25.6198 80.561 24.8919 80.4626 24.105Z" fill="#BBC6CD"/>
<path d="M197.137 32.4459C197.157 35.141 194.777 37.541 192.141 37.5213C189.387 37.482 187.085 35.2394 187.046 32.5246C187.006 29.8689 189.387 27.4492 192.062 27.4492C194.836 27.4492 197.118 29.7115 197.137 32.4459Z" fill="#92A1AF"/>
<path d="M80.4623 24.1047C80.541 24.8719 80.305 25.6194 80.0492 26.367C79.7935 27.1145 79.4984 26.8588 79.2033 26.4457C78.3968 25.344 78.4558 24.085 78.6722 22.8457C78.7509 22.3735 79.0263 21.9211 79.6361 22.0194C80.1673 22.0981 80.4427 22.4719 80.4623 23.003C80.482 23.3768 80.4623 23.7309 80.4623 24.1047Z" fill="#BBC6CD"/>
</svg>
