<svg width="195" height="144" viewBox="0 0 195 144" fill="none" xmlns="http://www.w3.org/2000/svg">
<path fill-rule="evenodd" clip-rule="evenodd" d="M113.383 86.1007C113.213 57.4149 113.341 28.686 113.341 0C122.395 0 131.449 0 140.503 0C140.588 28.686 140.503 57.4149 140.546 86.1007C131.449 86.1436 122.395 86.1436 113.383 86.1007Z" fill="#DCDDE1"/>
<path fill-rule="evenodd" clip-rule="evenodd" d="M82.582 31.1693C84.0205 30.9124 85.5014 31.0409 86.9822 31.0409C94.64 31.0409 102.256 31.0409 109.914 31.0409C109.956 49.4085 109.914 67.819 109.914 86.1865C100.818 86.1865 91.7204 86.2294 82.6243 86.1865C82.582 67.819 82.7089 49.4942 82.582 31.1693Z" fill="#929AAF"/>
<path fill-rule="evenodd" clip-rule="evenodd" d="M51.9922 55.1883C61.0887 55.1456 70.1428 55.1456 79.197 55.1883C79.2393 65.5068 79.197 75.8251 79.197 86.1435C70.1428 86.1864 61.0463 86.1864 51.9922 86.1435C51.9922 75.8251 52.0344 65.5068 51.9922 55.1883Z" fill="#B4BAC4"/>
<path d="M96.9095 113.311C96.9095 121.185 96.9095 129.033 96.9095 136.987C96.3811 136.987 95.9054 136.987 95.377 136.987C95.377 127.316 95.377 117.75 95.377 108.158C95.377 108.185 97.6758 108.158 97.6758 108.158C97.6758 108.158 101.084 121.582 102.617 127.58C102.749 128.161 102.855 128.743 103.013 129.641C103.727 126.84 104.361 124.33 104.995 121.846C106.052 117.803 108.457 108.053 108.457 108.053H110.703C110.703 108.053 110.703 127.21 110.703 136.96C110.201 136.96 109.646 136.96 109.012 136.96C109.012 128.98 109.012 121.053 109.012 113.153C108.959 113.153 108.88 113.126 108.827 113.126C108.113 115.848 107.4 118.596 106.686 121.317C105.814 124.647 104.969 127.976 104.018 131.279C103.885 131.755 103.859 132.283 103.013 132.283C102.089 132.283 101.983 131.834 101.798 131.2C100.318 125.492 98.8649 119.785 97.3852 114.077C97.3059 113.787 97.2002 113.522 97.0945 113.258C97.0417 113.285 96.9624 113.311 96.9095 113.311Z" fill="#929AAF"/>
<path d="M141.01 116.561C141.512 116.561 141.935 116.561 142.49 116.561C142.569 117.459 142.648 118.331 142.728 119.414C143.283 118.701 143.679 118.12 144.155 117.591C146.004 115.504 148.699 115.504 150.338 117.75C151.13 118.833 151.738 120.154 152.029 121.449C152.795 124.99 152.795 128.584 151.817 132.098C151.5 133.287 150.893 134.502 150.126 135.48C148.33 137.805 145.132 138.307 142.807 135.48C142.807 137.938 142.807 140.818 142.807 143.302C142.146 143.328 141.618 143.354 141.01 143.381C141.01 134.476 141.01 125.598 141.01 116.561ZM142.754 127.606C142.754 129.218 142.781 133.419 142.781 133.419C142.781 133.419 142.992 133.868 143.362 134.397C145.027 136.801 148.197 136.405 149.466 133.604C150.893 130.46 150.866 127.104 150.496 123.748C150.338 122.321 149.968 120.841 149.36 119.52C148.409 117.486 146.559 117.195 144.894 118.701C143.547 119.917 142.728 121.37 142.728 121.37C142.728 121.37 142.754 126.179 142.754 127.606Z" fill="#929AAF"/>
<path d="M167.09 137.093C166.509 137.066 166.033 137.04 165.452 137.013C165.452 131.544 165.452 126.153 165.452 120.763C165.373 120.736 165.294 120.736 165.241 120.71C163.55 124.488 161.832 128.267 160.141 132.046C159.56 133.34 158.08 136.908 158.08 136.908H156.362C156.362 136.908 156.362 123.458 156.362 116.641C156.917 116.641 157.419 116.641 158.001 116.641C158.001 122.031 158.001 127.395 158.001 132.733C158.08 132.759 158.159 132.786 158.238 132.786C159.56 129.879 160.881 126.946 162.202 124.039C163.153 121.925 165.399 116.667 165.399 116.667H167.143C167.09 116.667 167.09 130.117 167.09 137.093Z" fill="#929AAF"/>
<path d="M194.677 137.066C194.334 137.04 193.356 137.092 193.356 137.092C193.356 137.092 193.039 135.56 192.854 134.714C192.484 135.164 192.193 135.533 191.903 135.877C189.683 138.414 186.01 137.938 184.636 134.846C183.632 132.521 183.685 130.117 184.768 127.844C185.799 125.677 187.807 125.017 190 124.858C190.872 124.779 193.012 124.858 193.012 124.858C193.092 124.436 193.092 122.11 193.012 121.291C192.96 120.498 192.907 119.204 191.48 118.252C190.608 117.671 189.472 117.83 189.049 117.856C187.675 117.909 186.486 118.702 185.35 119.785C185.217 119.626 184.398 118.279 184.398 118.279C184.398 118.279 185.27 117.539 186.037 117.09C187.992 115.98 190.079 115.742 192.114 116.72C194.096 117.671 194.598 119.574 194.624 121.555C194.704 124.541 194.677 134.767 194.677 137.066ZM192.986 126.285C191.797 126.285 190.74 126.232 189.815 126.285C187.648 126.444 186.354 127.527 186.01 129.694C185.825 130.83 185.799 131.887 185.957 133.05C186.142 134.397 187.041 135.613 188.468 135.851C189.894 136.088 190.872 135.296 191.691 134.212C193.224 132.072 193.039 129.06 192.986 126.285Z" fill="#929AAF"/>
<path d="M124.205 133.869C124.311 133.975 124.998 134.82 125.103 135.085C125.13 135.111 124.178 135.983 123.967 136.141C121.008 138.572 116.753 137.806 115.326 134.292C113.292 129.324 113.477 123.617 115.379 119.283C116.357 117.09 117.863 115.98 120.241 116.192C122.54 116.403 123.597 117.751 124.39 119.97C125.235 122.375 125.209 124.119 125.209 127.105C121.88 127.105 118.894 127.105 115.802 127.105C115.776 129.773 116.013 132.231 117.467 134.397C118.603 136.062 120.796 136.3 122.725 135.058C123.254 134.715 123.676 134.318 124.205 133.869ZM115.802 125.651C118.075 125.651 123.571 125.546 123.571 125.546C123.571 125.546 123.386 121.503 122.382 119.679C121.827 118.675 121.008 117.751 119.713 117.751C118.392 117.751 117.837 118.517 117.255 119.521C116.172 121.371 115.855 123.379 115.802 125.651Z" fill="#929AAF"/>
<path d="M173.433 125.625C175.309 122.93 179.986 116.746 179.986 116.746L181.888 116.72C181.888 116.72 177.502 122.903 175.362 126.048C177.66 129.641 182.337 136.855 182.337 136.855L180.144 136.828C180.144 136.828 176.128 130.566 174.384 127.871C174.199 127.58 173.935 127.29 173.485 126.682C173.485 130.328 173.485 133.605 173.485 136.961C172.825 136.961 172.323 136.961 171.715 136.961C171.715 130.196 171.715 123.484 171.715 116.614C172.191 116.588 172.719 116.614 173.406 116.588C173.433 119.653 173.433 122.613 173.433 125.625C173.565 125.651 173.3 125.598 173.433 125.625Z" fill="#929AAF"/>
<path d="M133.374 137.013C132.608 137.013 132.132 137.013 131.498 137.013C131.498 130.724 131.498 124.515 131.498 118.12C129.886 118.12 128.433 118.12 126.9 118.12C126.9 117.539 126.9 117.116 126.9 116.641C130.599 116.641 134.219 116.641 137.892 116.641C137.892 117.143 137.892 117.565 137.892 118.173C136.439 118.173 134.986 118.173 133.374 118.173C133.374 124.515 133.374 130.698 133.374 137.013Z" fill="#929AAF"/>
<path d="M5.90596 125.096C5.19252 124.515 4.45266 124.039 3.84491 123.431C2.81438 122.401 2.25948 121.08 1.99524 119.626C1.59889 117.618 1.65174 115.61 2.23306 113.655C3.23716 110.246 6.14378 108.079 9.79026 108.026C11.2171 108 12.644 108.026 14.0709 108C14.573 108 14.7051 108.185 14.7051 108.661C14.7051 117.83 14.7051 126.972 14.7051 136.141C14.7051 136.326 14.6787 136.485 14.6522 136.723C13.6746 136.723 12.7233 136.723 11.7192 136.723C11.6928 136.432 11.6663 136.141 11.6663 135.877C11.6663 132.759 11.6399 129.615 11.6663 126.497C11.6663 125.889 11.5078 125.678 10.8736 125.704C8.62761 125.783 9.26178 125.308 8.33695 127.369C6.98934 130.302 5.69457 133.261 4.39981 136.247C4.21484 136.696 3.97703 136.828 3.5014 136.828C2.57657 136.802 1.65174 136.828 0.594788 136.828C2.3916 132.785 4.16199 128.928 5.90596 125.096ZM11.6663 123.114C11.6663 122.797 11.6663 122.507 11.6663 122.216C11.6663 118.913 11.6663 115.61 11.6663 112.307C11.6663 110.616 11.6663 110.59 10.0016 110.616C7.96702 110.616 6.51371 111.567 5.69457 113.443C4.92828 115.214 4.92829 117.09 5.19252 118.966C5.35107 120.023 5.721 121.001 6.46087 121.793C7.88775 123.352 9.73741 123.194 11.6663 123.114Z" fill="#929AAF"/>
<path d="M31.537 134.16C32.7525 134.503 32.9374 133.658 33.2017 132.839C34.1001 129.906 34.5228 126.92 34.6021 123.881C34.6814 121.45 34.6285 119.019 34.6285 116.535C37.8787 116.535 40.9702 116.535 44.1411 116.535C44.1411 122.375 44.1411 128.241 44.1411 134.133C44.696 134.16 45.198 134.186 45.7529 134.213C45.7529 136.379 45.7529 138.52 45.7529 140.686C44.8281 140.686 43.9297 140.686 42.952 140.686C42.952 139.392 42.952 138.123 42.952 136.802C40.0454 136.802 37.1916 136.802 34.2586 136.802C34.2586 138.097 34.2586 139.365 34.2586 140.66C33.3073 140.66 32.4618 140.66 31.537 140.66C31.537 138.573 31.537 136.432 31.537 134.16ZM35.844 134.186C37.4559 134.186 39.0942 134.186 40.7324 134.16C40.8645 134.16 41.0759 133.79 41.0759 133.605C41.1024 128.928 41.0759 124.277 41.1024 119.6C41.1024 119.178 40.9967 118.993 40.5475 118.993C39.7547 119.019 38.9356 119.019 38.1429 118.993C37.6937 118.966 37.5616 119.151 37.5616 119.574C37.5616 120.631 37.588 121.661 37.5087 122.718C37.3502 124.911 37.2181 127.131 36.9274 129.298C36.6896 130.936 36.214 132.495 35.844 134.186Z" fill="#929AAF"/>
<path d="M18.8008 116.509C19.8313 116.509 20.809 116.509 21.8924 116.509C21.8924 117.936 21.8924 119.336 21.8924 120.737C21.8924 122.137 21.8924 123.538 21.8924 125.017C23.4249 125.017 24.9311 125.017 26.5165 125.017C26.5165 122.19 26.5165 119.389 26.5165 116.482C27.5206 116.482 28.419 116.482 29.3439 116.509C29.4496 116.509 29.5817 116.72 29.6345 116.852C29.6874 116.984 29.661 117.169 29.661 117.328C29.661 123.564 29.661 129.8 29.661 136.01C29.661 136.247 29.661 136.485 29.661 136.776C28.604 136.776 27.6263 136.776 26.5429 136.776C26.5429 136.485 26.5429 136.247 26.5429 135.983C26.5429 133.446 26.5165 130.936 26.5429 128.4C26.5429 127.845 26.3844 127.66 25.8295 127.686C24.5347 127.713 23.24 127.686 21.8924 127.686C21.8924 130.751 21.8924 133.737 21.8924 136.749C20.8354 136.749 19.8313 136.749 18.8008 136.749C18.8008 130.011 18.8008 123.3 18.8008 116.509Z" fill="#929AAF"/>
<path d="M58.7274 133.129C58.9388 133.789 59.1501 134.476 59.3351 135.163C59.3615 135.296 59.2558 135.533 59.1237 135.639C55.4244 138.625 50.0075 137.092 48.4485 132.627C47.6294 130.302 47.5237 127.897 47.7351 125.492C47.8936 123.881 48.2107 122.269 48.6071 120.71C48.8185 119.864 49.2677 119.045 49.7961 118.332C52.0686 115.161 56.6135 115.583 58.2782 119.124C59.0973 120.868 59.3087 122.718 59.3615 124.594C59.388 125.307 59.3351 126.021 59.3615 126.734C59.388 127.236 59.2294 127.395 58.7274 127.395C56.4285 127.368 54.1296 127.395 51.8308 127.395C51.5929 127.395 51.3551 127.395 51.0116 127.395C50.9588 129.535 51.0381 131.57 52.3857 133.287C53.3898 134.556 54.7638 134.582 56.1643 134.186C57.0098 133.895 57.8025 133.499 58.7274 133.129ZM56.1114 124.7C56.1643 123.061 56.1114 121.476 55.4508 120.023C54.7638 118.464 53.0463 118.305 52.1214 119.732C51.1437 121.238 51.1437 122.956 50.9852 124.7C52.7027 124.7 54.3674 124.7 56.1114 124.7Z" fill="#929AAF"/>
<path d="M65.8879 125.493C66.5485 124.224 67.2091 122.93 67.8961 121.661C68.7152 120.076 69.5344 118.49 70.3799 116.931C70.4856 116.72 70.8291 116.509 71.0934 116.509C71.9389 116.456 72.7845 116.482 73.7622 116.482C73.6036 116.799 73.5244 117.037 73.3922 117.248C71.9389 119.997 70.512 122.745 69.0323 125.466C68.8209 125.863 68.8209 126.18 69.0323 126.576C70.7234 129.721 72.4146 132.865 74.1057 136.009C74.2114 136.221 74.3171 136.432 74.4756 136.749C73.3394 136.749 72.3089 136.776 71.2783 136.723C71.1198 136.723 70.9612 136.459 70.8556 136.274C69.323 133.393 67.7904 130.513 66.2842 127.633C66.1785 127.422 66.0464 127.21 65.7822 127.052C65.7822 130.249 65.7822 133.446 65.7822 136.696C64.6988 136.696 63.6947 136.696 62.6378 136.696C62.6378 129.958 62.6378 123.247 62.6378 116.482C63.6683 116.482 64.6724 116.482 65.7293 116.482C65.7293 119.468 65.7293 122.428 65.7293 125.387C65.7558 125.466 65.835 125.466 65.8879 125.493Z" fill="#929AAF"/>
<path d="M85.3885 120.102C84.6751 119.732 84.0938 119.363 83.4596 119.098C81.7949 118.438 80.368 118.94 79.4168 120.472C78.7033 121.661 78.3862 123.009 78.2805 124.357C78.0956 126.656 78.122 128.954 78.7033 131.2C79.7074 135.085 82.5348 134.953 84.9129 133.499C85.0186 133.42 85.1243 133.341 85.3357 133.209C85.5735 133.948 85.8113 134.636 85.9699 135.349C85.9963 135.481 85.7849 135.745 85.6264 135.851C83.4332 137.569 78.6769 137.78 76.5366 134.16C75.4532 132.337 75.0833 130.355 74.9511 128.267C74.7926 125.704 74.8983 123.168 75.8231 120.737C76.8801 117.909 78.8883 116.271 81.9534 116.165C83.1954 116.112 84.4109 116.35 85.4942 117.037C85.6528 117.117 85.8113 117.354 85.8113 117.486C85.7056 118.332 85.5471 119.204 85.3885 120.102Z" fill="#929AAF"/>
</svg>
