<svg width="148" height="72" viewBox="0 0 148 72" fill="none" xmlns="http://www.w3.org/2000/svg">
<path d="M111.871 35.6521C108.739 35.6521 105.712 35.6521 102.601 35.6521C102.412 34.2435 102.265 32.8139 101.991 31.4053C99.4901 17.8659 87.1723 8.57335 73.3832 9.81376C61.1706 10.907 51.1862 20.8723 49.6937 33.1082C48.0542 46.6686 57.6603 60.4393 72.3112 62.1632C75.9057 62.5837 79.5631 62.7309 83.1786 62.7519C104.093 62.8149 125.008 62.7729 145.944 62.7729C147.731 62.7729 147.731 62.7729 147.731 64.581C147.731 66.8726 147.731 69.1852 147.731 71.5819C147.016 71.5819 146.47 71.5819 145.923 71.5819C122.129 71.5819 98.355 71.5609 74.5604 71.6029C68.1072 71.624 62.2217 69.8369 56.8616 66.41C47.4656 60.3972 41.8953 51.7774 40.3819 40.7399C37.8805 22.2599 50.3664 4.81008 68.6538 1.06783C69.5156 0.899638 70.4405 0.878614 71.3233 0.85759C73.4253 0.836566 75.5273 0.941684 77.6083 0.836565C85.8271 0.37404 92.7426 3.54864 98.8595 8.6154C106.91 15.28 111.114 24.0259 111.808 34.4327C111.892 34.7901 111.871 35.1475 111.871 35.6521Z" fill="#92A1AF"/>
<path d="M147.752 47.8039C147.752 50.6631 147.773 53.3962 147.731 56.1293C147.731 56.3606 147.311 56.6129 147.037 56.8021C146.932 56.8862 146.701 56.8231 146.533 56.8231C123.6 56.8021 100.688 56.8021 77.7556 56.739C72.9421 56.718 68.3387 55.7929 64.2818 52.9127C57.3663 48.0141 54.1292 39.5415 56.0841 31.3842C58.0389 23.269 64.6392 17.2562 73.0472 15.9527C85.0496 14.0816 96.3583 23.5423 96.4424 35.61C93.4786 35.61 90.5148 35.61 87.5089 35.61C87.3828 34.8952 87.2777 34.1804 87.1095 33.4866C85.9324 28.4409 81.3711 24.8038 76.1371 24.7197C71.0293 24.6356 66.3838 28.1466 64.9965 33.1292C63.6092 38.0908 65.8373 43.494 70.3146 46.0168C72.858 47.4465 75.6747 47.7618 78.5124 47.7618C94.0882 47.8039 109.643 47.8039 125.219 47.8039C132.197 47.8039 139.155 47.8039 146.134 47.8039C146.575 47.8039 147.037 47.8039 147.752 47.8039Z" fill="#92A1AF"/>
<path d="M34.0551 71.5185C30.9231 71.5185 27.8752 71.5185 24.6802 71.5185C24.6802 50.9572 24.6802 30.4589 24.6802 9.79246C19.9507 9.79246 15.3684 9.79246 10.6809 9.79246C10.6809 6.76502 10.6809 3.88475 10.6809 0.941406C18.4583 0.941406 26.2147 0.941406 34.0551 0.941406C34.0551 24.4881 34.0551 47.9718 34.0551 71.5185Z" fill="#92A1AF"/>
<path d="M19.6564 71.5188C16.6926 71.5188 13.7498 71.5188 10.6599 71.5188C10.6599 55.6668 10.6599 39.7938 10.6599 23.7316C7.06547 23.7316 3.63922 23.7316 0.149902 23.7316C0.149902 20.6621 0.149902 17.7608 0.149902 14.7754C6.62405 14.7754 13.0982 14.7754 19.6775 14.7754C19.6564 33.6548 19.6564 52.5553 19.6564 71.5188Z" fill="#92A1AF"/>
<path d="M137.074 7.18563C137.032 10.6756 134.194 13.4297 130.726 13.3456C127.363 13.2826 124.546 10.4023 124.588 7.03847C124.609 3.61157 127.531 0.83642 130.999 0.899492C134.467 0.983587 137.116 3.71669 137.074 7.18563ZM130.852 12.4206C133.858 12.4206 136.212 10.0449 136.191 7.03847C136.17 4.13717 133.753 1.80352 130.81 1.82454C127.867 1.82454 125.492 4.20024 125.471 7.08051C125.471 10.0659 127.846 12.4206 130.852 12.4206Z" fill="#92A1AF"/>
<path d="M132.302 7.27004C132.869 8.59455 133.5 9.98212 133.5 9.98212L132.47 10.0031L131.44 7.75359L129.653 7.79564L129.674 10.0242H128.707C128.707 10.0242 128.686 5.92451 128.686 4.03236C129.674 4.03236 130.62 3.99031 131.545 4.03236C132.218 4.05338 132.995 4.47386 133.206 5.29379C133.332 5.77734 133.332 6.76547 132.302 7.27004ZM129.611 6.91263C130.032 6.93366 130.452 6.93366 130.83 6.91263C131.251 6.89161 131.755 6.89161 132.134 6.34499C132.197 6.26089 132.344 6.00861 132.323 5.69325C132.302 5.48301 132.197 5.29379 132.028 5.1256C131.587 4.66308 129.611 4.81025 129.611 4.81025V6.91263Z" fill="#92A1AF"/>
</svg>
