<svg width="144" height="144" viewBox="0 0 144 144" fill="none" xmlns="http://www.w3.org/2000/svg">
<path d="M143.378 71.7341C143.378 111.224 111.206 143.3 71.62 143.3C33.0659 143.324 -0.0181189 112.232 0.00587242 71.5662C0.0298637 31.8126 32.0583 -0.0479285 71.764 5.4126e-05C112.477 0.0720281 143.522 33.252 143.378 71.7341ZM140.475 71.7581C140.283 33.1081 109.238 3.7427 73.2274 2.97498C34.6254 2.15927 3.41265 33.372 2.95681 70.8225C2.52497 107.889 32.2742 140.253 71.572 140.349C109.406 140.469 140.163 110.072 140.475 71.7581Z" fill="#92A1AF"/>
<path d="M80.4484 42.9931C82.7276 42.8012 84.6949 42.7052 86.6382 42.4653C88.9414 42.2014 90.1889 40.666 89.6131 38.9146C89.1093 37.3791 87.9817 36.9233 86.4223 37.0193C81.1442 37.3072 75.8421 37.715 70.564 37.715C65.3339 37.715 60.0798 37.3072 54.8497 37.0433C52.7384 36.9233 51.4669 37.763 51.323 39.5144C51.179 41.0498 52.2106 42.1774 54.1779 42.4413C55.7853 42.6572 57.4407 42.6812 59.0482 42.9211C59.552 42.9931 60.2477 43.4729 60.4157 43.9048C63.4386 52.0139 66.4135 60.1709 69.3644 68.304C69.5324 68.7358 69.5804 69.3116 69.4364 69.7195C65.142 82.6508 60.8475 95.5581 56.3611 108.969C48.8758 86.7053 41.5345 64.8972 34.1691 42.9691C36.4243 42.7772 38.4396 42.6812 40.4309 42.4413C42.878 42.1294 44.0536 40.4021 43.1899 38.5307C42.5661 37.1872 41.4625 36.9473 40.071 36.9953C34.0732 37.2832 28.0753 37.4991 22.0775 37.715C21.6697 37.739 21.2378 37.667 20.782 37.643C39.0154 8.06173 83.7832 -0.0953197 112.453 25.7913C111.349 26.0552 110.246 26.2232 109.19 26.607C103.624 28.5983 100.673 34.6921 102.592 40.8099C103.408 43.425 104.728 45.944 106.119 48.3192C108.494 52.3737 110.941 56.3803 112.189 60.9626C113.724 66.6006 113.317 72.1906 111.661 77.7326C108.734 87.545 105.783 97.3575 102.856 107.17C102.784 107.41 102.664 107.65 102.424 108.298C95.0352 86.3694 87.7898 64.8012 80.4484 42.9931Z" fill="#92A1AF"/>
<path d="M72.7727 77.5635C79.2024 95.1971 85.4881 112.375 91.7499 129.529C84.4565 133.655 64.3758 134.231 54.5393 130.536C60.5851 113.023 66.6069 95.509 72.7727 77.5635Z" fill="#92A1AF"/>
<path d="M15.3362 46.9746C25.1007 73.7249 34.6972 100.019 44.3177 126.362C35.8488 124.802 20.5423 108.824 15.0963 95.701C8.42671 79.6028 8.64264 63.5046 15.3362 46.9746Z" fill="#92A1AF"/>
<path d="M126.152 43.4717C140.403 69.4783 132.87 106.833 103.144 124.322C103.384 123.555 103.528 123.027 103.72 122.523C110.27 103.642 116.867 84.7608 123.393 65.8796C125.408 60.0737 126.416 54.0758 126.44 47.9101C126.44 46.5186 126.248 45.1271 126.152 43.4717Z" fill="#92A1AF"/>
</svg>
