<svg width="34" height="34" viewBox="0 0 34 34" fill="none" xmlns="http://www.w3.org/2000/svg">
<path fill-rule="evenodd" clip-rule="evenodd" d="M33.998 17C33.998 26.3882 26.3863 34 16.998 34C7.6098 34 -0.00195312 26.3882 -0.00195312 17C-0.00195312 7.61175 7.6098 0 16.998 0C26.3863 0 33.998 7.61175 33.998 17ZM17.6072 12.5503C15.954 13.2373 12.6489 14.6611 7.69338 16.8201C6.88871 17.1402 6.46655 17.4533 6.4283 17.7593C6.36313 18.2778 7.01196 18.4818 7.89313 18.7581C8.01355 18.7963 8.13821 18.8346 8.26571 18.8771C9.13413 19.159 10.3015 19.4891 10.9078 19.5018C11.4589 19.5132 12.0737 19.2865 12.7523 18.8218C17.382 15.6952 19.7719 14.1157 19.922 14.0817C20.0283 14.0576 20.1756 14.0264 20.2748 14.1157C20.374 14.2035 20.364 14.3707 20.3541 14.416C20.289 14.6894 17.7475 17.0538 16.43 18.2778C16.0191 18.6589 15.7287 18.9295 15.6692 18.9918C15.536 19.1292 15.4 19.261 15.2697 19.3871C14.4622 20.1634 13.8587 20.7471 15.3037 21.6991C15.9979 22.1567 16.5532 22.5349 17.1071 22.9117C17.712 23.324 18.3155 23.7348 19.0975 24.2477C19.2959 24.378 19.4857 24.5126 19.6713 24.6443C20.3754 25.1472 21.0086 25.5977 21.7906 25.5269C22.244 25.4844 22.7143 25.058 22.9523 23.7844C23.5147 20.7726 24.6225 14.2502 24.879 11.5614C24.8946 11.3382 24.8851 11.1139 24.8506 10.8927C24.83 10.7142 24.743 10.5498 24.607 10.4323C24.4044 10.2666 24.0899 10.2312 23.9482 10.234C23.3093 10.2453 22.329 10.5868 17.6072 12.5503Z" fill="#2CA4D6"/>
</svg>
