<svg width="34" height="34" viewBox="0 0 34 34" fill="none" xmlns="http://www.w3.org/2000/svg">
<path d="M22.217 0H11.7801C2.25586 0 -0.00195312 2.25781 -0.00195312 11.7821V22.219C-0.00195312 31.7433 2.25586 34.0011 11.7801 34.0011H22.217C31.7413 34.0011 33.9991 31.7433 33.9991 22.219V11.7821C33.9991 2.25781 31.719 0 22.217 0ZM27.4467 24.2548H24.9785C24.0435 24.2548 23.7555 23.5131 22.0736 21.8089C20.6127 20.3926 19.9656 20.2045 19.6054 20.2045C19.0965 20.2045 18.952 20.3479 18.952 21.046V23.2762C18.952 23.8744 18.7639 24.2335 17.1808 24.2335C14.5628 24.2335 11.6579 22.6504 9.62111 19.7009C6.54942 15.3786 5.70898 12.1412 5.70898 11.4718C5.70898 11.1116 5.85242 10.7748 6.54411 10.7748H9.01761C9.64342 10.7748 9.88142 11.0628 10.1247 11.7321C11.3477 15.2628 13.3845 18.3558 14.2249 18.3558C14.5352 18.3558 14.6786 18.2123 14.6786 17.4208V13.7743C14.584 12.0923 13.699 11.9478 13.699 11.3507C13.699 11.0628 13.937 10.7748 14.3184 10.7748H18.2082C18.7342 10.7748 18.9275 11.0628 18.9275 11.6822V16.6016C18.9275 17.1328 19.1655 17.3209 19.309 17.3209C19.6192 17.3209 19.8849 17.1328 20.4597 16.5569C22.2362 14.5648 23.5091 11.4931 23.5091 11.4931C23.6748 11.1329 23.9627 10.7961 24.5885 10.7961H27.062C27.8037 10.7961 27.9694 11.1775 27.8037 11.7088C27.4934 13.1474 24.4664 17.4197 24.4664 17.4197C24.206 17.8511 24.1062 18.0391 24.4664 18.5204C24.732 18.8806 25.5958 19.6276 26.1706 20.2969C27.2278 21.4976 28.0406 22.5048 28.2574 23.2018C28.5007 23.8935 28.1416 24.2537 27.4435 24.2537L27.4467 24.2548Z" fill="#2787F5"/>
</svg>
