<svg width="80" height="80" viewBox="0 0 80 80" fill="none" xmlns="http://www.w3.org/2000/svg">
<path d="M16 33H23V37H16V33Z" fill="#1B41A2"/>
<path d="M25 33H32V37H25V33Z" fill="#1B41A2"/>
<path d="M34 33H41V37H34V33Z" fill="#1B41A2"/>
<path d="M43 33H50V37H43V33Z" fill="#1B41A2"/>
<path d="M16 39H23V43H16V39Z" fill="#1B41A2"/>
<path d="M25 39H32V43H25V39Z" fill="#1B41A2"/>
<path d="M34 39H41V43H34V39Z" fill="#1B41A2"/>
<path d="M43 39H50V43H43V39Z" fill="#1B41A2"/>
<path d="M16 45H23V49H16V45Z" fill="#1B41A2"/>
<path d="M25 45H32V49H25V45Z" fill="#1B41A2"/>
<path d="M34 45H41V49H34V45Z" fill="#1B41A2"/>
<path d="M43 45H50V49H43V45Z" fill="#1B41A2"/>
<path d="M16 51H23V55H16V51Z" fill="#1B41A2"/>
<path d="M25 51H32V55H25V51Z" fill="#1B41A2"/>
<path d="M34 51H41V55H34V51Z" fill="#1B41A2"/>
<path d="M43 51H50V55H43V51Z" fill="#1B41A2"/>
<path fill-rule="evenodd" clip-rule="evenodd" d="M42 15H24V22H16V15H10V61H56V15H50V22H42V15ZM52 31H14V57H52V31Z" fill="#1B41A2"/>
<path d="M18 10H22V20H18V10Z" fill="#1B41A2"/>
<path d="M44 10H48V20H44V10Z" fill="#1B41A2"/>
<g filter="url(#filter0_b_368_2495)">
<circle cx="56" cy="52" r="21" fill="#C3DBFF" fill-opacity="0.32"/>
<circle cx="56" cy="52" r="20.8133" stroke="#1B41A2" stroke-width="0.373469"/>
</g>
<path d="M45 52L54.5 60L68 45" stroke="white" stroke-width="4"/>
<defs>
<filter id="filter0_b_368_2495" x="27.5306" y="23.5306" width="56.9388" height="56.9388" filterUnits="userSpaceOnUse" color-interpolation-filters="sRGB">
<feFlood flood-opacity="0" result="BackgroundImageFix"/>
<feGaussianBlur in="BackgroundImageFix" stdDeviation="3.73469"/>
<feComposite in2="SourceAlpha" operator="in" result="effect1_backgroundBlur_368_2495"/>
<feBlend mode="normal" in="SourceGraphic" in2="effect1_backgroundBlur_368_2495" result="shape"/>
</filter>
</defs>
</svg>
