<svg width="80" height="80" viewBox="0 0 80 80" fill="none" xmlns="http://www.w3.org/2000/svg">
<rect x="12" y="8" width="40" height="52" rx="3" fill="#1B41A2"/>
<path d="M19 16H27" stroke="white" stroke-width="4" stroke-linecap="square"/>
<path d="M19 24H44" stroke="white" stroke-width="4" stroke-linecap="square"/>
<path d="M19 32H44" stroke="white" stroke-width="4" stroke-linecap="square"/>
<path d="M19 40H44" stroke="white" stroke-width="4" stroke-linecap="square"/>
<path d="M31 48L44 48" stroke="white" stroke-width="4" stroke-linecap="round"/>
<g filter="url(#filter0_b_368_2482)">
<circle cx="49" cy="53" r="21" fill="#C3DBFF" fill-opacity="0.32"/>
<circle cx="49" cy="53" r="20.8133" stroke="#1B41A2" stroke-width="0.373469"/>
</g>
<path d="M54.5548 48.5418C54.5548 45.9625 52.1923 43.8691 49.2774 43.8691C46.3625 43.8691 44 45.9625 44 48.5418C44 51.1211 46.3625 53.2145 49.2774 53.2145C52.1923 53.2145 54.5548 55.3079 54.5548 57.8872C54.5548 60.4665 52.1923 62.5599 49.2774 62.5599C46.3625 62.5599 44 60.4665 44 57.8872" stroke="white" stroke-width="4" stroke-linecap="square"/>
<path d="M49.2773 42V43.8691" stroke="white" stroke-width="4" stroke-linecap="square"/>
<path d="M49.2773 62.5605V64.4296" stroke="white" stroke-width="4" stroke-linecap="square"/>
<defs>
<filter id="filter0_b_368_2482" x="20.5306" y="24.5306" width="56.9388" height="56.9388" filterUnits="userSpaceOnUse" color-interpolation-filters="sRGB">
<feFlood flood-opacity="0" result="BackgroundImageFix"/>
<feGaussianBlur in="BackgroundImageFix" stdDeviation="3.73469"/>
<feComposite in2="SourceAlpha" operator="in" result="effect1_backgroundBlur_368_2482"/>
<feBlend mode="normal" in="SourceGraphic" in2="effect1_backgroundBlur_368_2482" result="shape"/>
</filter>
</defs>
</svg>
